<svg width="26" height="27" viewBox="0 0 26 27" fill="none" xmlns="http://www.w3.org/2000/svg">
<path d="M0.732233 22.2322C-0.244078 23.2085 -0.244078 24.7915 0.732233 25.7678C1.70854 26.7441 3.29146 26.7441 4.26777 25.7678L0.732233 22.2322ZM25.2678 4.76777C26.2441 3.79146 26.2441 2.20854 25.2678 1.23223C24.2915 0.255922 22.7085 0.255922 21.7322 1.23223L25.2678 4.76777ZM21.7322 25.7678C22.7085 26.7441 24.2915 26.7441 25.2678 25.7678C26.2441 24.7915 26.2441 23.2085 25.2678 22.2322L21.7322 25.7678ZM4.26777 1.23223C3.29146 0.255922 1.70854 0.255922 0.732233 1.23223C-0.244078 2.20854 -0.244078 3.79146 0.732233 4.76777L4.26777 1.23223ZM4.26777 25.7678L25.2678 4.76777L21.7322 1.23223L0.732233 22.2322L4.26777 25.7678ZM25.2678 22.2322L4.26777 1.23223L0.732233 4.76777L21.7322 25.7678L25.2678 22.2322Z" fill="#B788FE"/>
</svg>
