<svg width="216" height="207" viewBox="0 0 216 207" fill="none" xmlns="http://www.w3.org/2000/svg">
<g clip-path="url(#clip0_714_3618)">
<path d="M53.6621 243C48.0167 243 42.3712 243 36.7257 243C32.5694 241.983 28.3996 240.966 24.2434 239.949C7.37463 233.806 -4.21418 221.793 -12.0664 206.104C-14.7605 200.708 -15.9384 194.538 -17.739 188.707C-21.8275 175.555 -20.406 163.161 -13.0818 151.324C-5.29724 138.754 3.78697 127.432 15.5112 118.334C33.1787 106.035 50.8597 93.7367 68.5407 81.4246C77.9228 75.5263 87.3319 69.655 96.6869 63.7295C110.875 54.7395 126.146 49.614 143.137 50.4683C148.606 50.7395 154.076 50.9971 159.545 51.2683C160.872 51.6751 162.267 51.9598 163.526 52.5158C169.713 55.2412 175.669 58.6447 182.073 60.6515C193.039 64.082 201.23 71.3499 208.527 79.4314C214.579 86.1298 217.733 94.3062 214.998 103.988C212.169 114.022 206.469 122.293 199.849 129.873C194.109 136.449 188.477 142.89 184.226 150.632C181.071 156.382 177.01 161.765 172.705 166.741C160.777 180.545 146.562 191.596 130.099 199.406C117.252 205.508 105.974 213.725 95.3466 223.013C87.3996 229.942 78.7893 235.827 68.7438 239.217C63.8565 240.885 58.6984 241.766 53.6621 243Z" fill="#823E25"/>
<path d="M142.868 186.338C143.647 185.925 144.393 185.304 145.225 185.13C146.462 184.874 148.206 184.407 148.917 185.001C149.676 185.64 149.969 187.563 149.634 188.669C148.668 191.807 147.488 194.919 145.999 197.847C143.435 202.91 142.811 208.312 142.932 213.804C143.021 217.953 143.6 222.095 143.959 226.238C133.965 235.113 123.976 243.97 113.989 252.835C108.262 244.537 102.888 235.934 100.808 225.979C98.9817 217.247 98.2181 208.289 97.1346 199.412C96.8577 197.123 97.1379 194.76 97.2034 192.44C97.27 190.272 98.8603 189.721 100.577 189.528C102.245 189.349 102.984 190.253 103.074 191.954C103.18 194.008 103.52 196.044 103.76 198.091C104.136 201.3 104.513 204.509 104.889 207.718C105.159 207.72 105.438 207.721 105.709 207.723C105.858 207.197 106.043 206.684 106.158 206.154C106.569 204.259 106.742 202.281 107.392 200.477C109.219 195.467 111.196 190.508 113.245 185.591C113.652 184.603 114.647 183.868 115.374 183.011C118.072 182.974 118.23 183.32 118.05 185.958C117.618 192.134 117.364 198.323 117.035 204.512C117.117 206.51 117.199 208.508 117.303 210.834C118.145 208.439 118.871 206.346 119.605 204.252C123.473 195.335 127.659 186.609 133.397 178.734C133.842 178.131 134.317 177.507 134.917 177.073C137.139 175.431 138.847 176.171 139.214 178.872C137.722 183.063 135.906 187.165 134.822 191.46C133.621 196.193 133.099 201.1 132.281 205.931C132.057 207.33 131.841 208.728 131.617 210.126C131.886 210.196 132.148 210.267 132.419 210.346C132.972 208.942 133.526 207.547 134.079 206.144C134.607 205.175 135.215 204.24 135.654 203.231C138.077 197.609 140.464 191.975 142.868 186.338Z" fill="#ADD137"/>
<path d="M74.308 17.3425C75.6347 16.8272 76.948 15.973 78.3153 15.851C80.3461 15.6747 83.2297 15.2543 84.2586 16.3391C85.3552 17.5052 85.4635 20.6375 84.7189 22.346C82.5799 27.1867 80.1024 31.9461 77.1646 36.3529C72.1012 43.9734 70.084 52.5023 69.2446 61.316C68.6083 67.9737 68.7573 74.7128 68.5542 81.4112C50.8596 93.7368 33.1786 106.035 15.4975 118.347C7.87544 103.988 0.876134 89.2079 -0.586005 72.8823C-1.87214 58.5634 -1.41184 44.0819 -1.47953 29.6681C-1.49307 25.9528 -0.599544 22.2239 -0.0580111 18.5222C0.456445 15.0645 3.10995 14.4815 5.89885 14.495C8.60651 14.5221 9.62189 16.1086 9.44589 18.8476C9.22928 22.1561 9.39174 25.4782 9.39174 28.8003C9.39174 34.0071 9.39174 39.214 9.39174 44.4208C9.82496 44.4751 10.2717 44.5293 10.705 44.5836C11.0434 43.77 11.436 42.9835 11.7203 42.1564C12.7357 39.2004 13.3855 36.0682 14.7664 33.3021C18.6384 25.6274 22.7405 18.0612 26.9509 10.5763C27.7903 9.07121 29.5232 8.08136 30.85 6.84745C35.1822 7.29491 35.3718 7.87797 34.5865 12.0679C32.7318 21.8714 31.1614 31.7292 29.4691 41.5734C29.2254 44.787 28.9817 48.0006 28.7109 51.743C30.5115 48.0684 32.0684 44.8548 33.6389 41.6412C41.5182 28.0952 49.8713 14.9154 60.553 3.38977C61.3789 2.5084 62.2589 1.59992 63.3013 1.01686C67.1733 -1.19334 69.7726 0.311764 69.8539 4.70505C66.6724 11.1323 62.9899 17.3561 60.4447 24.0273C57.6288 31.3766 55.8688 39.1326 53.6485 46.7124C53.0257 48.909 52.4165 51.1057 51.7938 53.3023C52.2134 53.465 52.6196 53.6278 53.0393 53.804C54.19 51.6616 55.3408 49.5328 56.4915 47.3904C57.5205 45.9395 58.6712 44.5564 59.5647 43.0242C64.5062 34.4817 69.3936 25.9121 74.308 17.3425Z" fill="#ADD137"/>
<path d="M20.0334 173.571C19.0264 173.182 18.0296 172.537 16.9918 172.445C15.4504 172.312 13.2617 171.994 12.4808 172.813C11.6484 173.694 11.5662 176.058 12.1314 177.348C13.7549 181.001 15.6354 184.594 17.8652 187.921C21.7083 193.673 23.2394 200.111 23.8765 206.764C24.3595 211.789 24.2464 216.876 24.4006 221.932C37.8309 231.236 51.251 240.519 64.6711 249.813C70.4563 238.974 75.7688 227.817 76.8786 215.494C77.8548 204.686 77.5054 193.755 77.5568 182.875C77.5671 180.07 76.8889 177.255 76.4778 174.461C76.0874 171.851 74.0733 171.411 71.9565 171.421C69.9014 171.442 69.1307 172.639 69.2643 174.707C69.4287 177.204 69.3054 179.712 69.3054 182.219C69.3054 186.15 69.3054 190.08 69.3054 194.01C68.9766 194.051 68.6375 194.092 68.3087 194.133C68.0518 193.519 67.7538 192.926 67.538 192.301C66.7673 190.07 66.2741 187.706 65.2259 185.618C62.2871 179.824 59.1736 174.113 55.9778 168.463C55.3407 167.327 54.0254 166.58 53.0184 165.649C49.7302 165.986 49.5863 166.427 50.1823 169.589C51.5901 176.989 52.7821 184.43 54.0665 191.861C54.2515 194.287 54.4365 196.713 54.642 199.537C53.2753 196.764 52.0936 194.338 50.9016 191.912C44.9212 181.687 38.581 171.739 30.4735 163.039C29.8467 162.373 29.1788 161.688 28.3875 161.248C25.4487 159.579 23.4758 160.715 23.4141 164.031C25.8289 168.883 28.6239 173.581 30.5557 178.617C32.6931 184.164 34.0289 190.019 35.7141 195.74C36.1868 197.398 36.6492 199.056 37.1219 200.715C36.8033 200.837 36.4951 200.96 36.1765 201.093C35.3031 199.476 34.4297 197.869 33.5562 196.252C32.7753 195.157 31.9018 194.113 31.2236 192.956C27.473 186.508 23.7635 180.039 20.0334 173.571Z" fill="#ADD137"/>
<g clip-path="url(#clip1_714_3618)">
<path d="M178.497 55.7917C179.7 56.0188 179.057 59.5767 177.468 60.9242C176.886 61.6282 176.303 62.3247 175.729 63.0287C174.707 64.414 173.679 65.8069 172.658 67.1923C172.536 67.2528 172.363 67.2831 172.302 67.3739C169.186 72.3778 166.077 77.3892 163.021 82.4233C162.862 82.6882 163.119 83.203 163.18 83.6042C161.697 86.443 160.131 89.2439 158.77 92.1433C157.703 94.3992 156.902 96.7837 155.971 99.1078C155.449 100.41 155.147 101.583 156.213 102.908C156.644 103.445 156.554 104.755 156.213 105.497C155.2 107.723 153.558 109.396 151.16 110.228C150.608 110.417 150.117 110.804 149.602 111.106C148.785 111.084 147.961 110.955 147.159 111.053C143.037 111.545 139.814 109.592 136.849 107.155C134.073 104.876 131.471 102.386 128.771 100.009C128.544 99.8118 128.158 99.8042 127.848 99.7058C124.3 96.2387 121.32 92.4537 120.246 87.412C119.8 85.2923 118.499 83.3014 118.317 81.1894C117.871 75.913 117.848 70.6139 117.667 65.33C117.667 65.2467 117.856 65.1559 117.962 65.0726C118.257 64.4216 118.688 63.8008 118.824 63.1195C119.497 59.766 120.087 59.3421 123.574 60.0309C123.635 60.1975 123.756 60.3867 123.756 60.576C123.703 67.2301 123.778 73.8312 125.344 80.3945C126.524 85.3453 128.279 89.9934 130.76 94.384C131.214 95.1865 132.046 96.1781 133.226 95.0426C133.075 93.7557 132.87 92.4764 132.78 91.1819C132.696 90.0615 132.734 88.9336 132.727 87.8056C132.727 87.4044 132.916 86.8972 132.742 86.6171C130.435 83.0289 131.229 78.9335 130.813 75.05C130.578 72.8395 130.541 70.6064 130.42 68.3808C130.654 66.4655 130.896 64.5579 131.131 62.6426C131.539 60.6895 131.811 58.6986 132.394 56.7985C133.233 54.0506 134.149 51.3102 135.314 48.6909C136.025 47.0861 139.247 46.4351 141.009 47.3965C142.719 48.3276 142.325 49.9022 142.008 51.4767C141.115 55.875 140.23 60.2808 139.519 64.7093C139.065 67.548 138.929 70.4474 138.657 73.3165C138.49 75.1409 138.324 76.9728 138.188 78.8048C137.9 82.6882 138.18 86.4884 139.837 90.0918C140.412 92.4991 140.987 94.9139 141.569 97.3212C141.735 97.2758 141.894 97.2228 142.061 97.1774C142.257 94.596 142.462 92.0146 142.658 89.4256C142.794 88.6989 143.059 87.9646 143.044 87.2379C142.976 81.848 144.489 76.7003 145.351 71.4542C146.425 64.9212 150.154 59.7509 153.392 54.3155C154.216 52.9302 155.752 51.825 157.189 50.9847C159.254 49.7659 161.243 51.4086 161.1 54.0203C157.749 57.7296 155.495 62.037 154.186 66.8516C154.163 67.1923 154.224 67.5556 154.11 67.866C152.635 71.9463 151.138 76.019 149.648 80.0993C149.534 80.4172 149.39 80.7427 149.36 81.0758C149.171 83.6723 149.012 86.2765 148.846 88.873C148.672 91.091 148.498 93.3091 148.324 95.5271C148.505 95.5725 148.687 95.6104 148.876 95.6558C149.837 93.1804 150.797 90.6974 151.758 88.222C152.991 85.8904 154.216 83.5588 155.449 81.2272C155.948 80.7351 156.561 80.3112 156.939 79.7359C158.77 76.9425 160.532 74.1037 162.325 71.2801C164.103 68.6836 165.88 66.087 167.658 63.4829C169.67 61.3103 171.682 59.1452 173.701 56.9726C174.775 55.8295 175.207 55.5797 178.497 55.7917ZM123.105 62.3701C121.736 64.2248 121.872 71.212 123.105 72.3853C123.105 69.1075 123.105 65.9356 123.105 62.3701Z" fill="#ADD137"/>
<path d="M133.233 95.0349C132.053 96.1704 131.221 95.1787 130.767 94.3763C128.286 89.9856 126.531 85.3376 125.351 80.3867C123.786 73.8235 123.71 67.2223 123.763 60.5682C123.763 60.379 123.642 60.1897 123.581 60.0232C120.094 59.3343 119.497 59.7582 118.831 63.1118C118.695 63.7931 118.264 64.4138 117.969 65.0649C117.228 61.03 119.429 58.6076 123.294 59.3116C123.71 59.3873 124.262 60.1821 124.285 60.6591C124.391 63.0512 124.338 65.4509 124.33 67.8431C124.315 72.3624 125.435 76.6698 126.403 81.0453C127.265 84.9288 128.642 88.4489 130.692 91.7646C131.403 92.9455 132.371 93.9523 133.233 95.0349Z" fill="#C2DB6F"/>
<path d="M154.186 66.8367C155.495 62.0221 157.756 57.7223 161.1 54.0054C160.684 55.0198 160.351 56.0796 159.836 57.0485C158.384 59.8116 156.871 62.552 155.351 65.2772C155.041 65.8374 154.579 66.3143 154.186 66.8367Z" fill="#BACE7B"/>
<path d="M166.81 63.899C167.09 63.7552 167.37 63.6038 167.65 63.46C165.873 66.0565 164.095 68.653 162.317 71.2572C162.597 70.5834 162.885 69.9097 163.172 69.2359C164.382 67.4494 165.593 65.6704 166.81 63.899Z" fill="#C2D38A"/>
<path d="M123.105 62.3701C123.105 65.9281 123.105 69.1075 123.105 72.3854C121.872 71.212 121.736 64.2324 123.105 62.3701Z" fill="#C5DC75"/>
</g>
</g>
<defs>
<clipPath id="clip0_714_3618">
<rect width="216" height="207" fill="white"/>
</clipPath>
<clipPath id="clip1_714_3618">
<rect width="61.4508" height="64.1793" fill="white" transform="translate(117.667 46.9346)"/>
</clipPath>
</defs>
</svg>
