<svg width="22" height="32" viewBox="0 0 22 32" fill="none" xmlns="http://www.w3.org/2000/svg">
<path d="M20.2857 1H1V31L11.2101 20.2L20.2857 29.8V1Z" fill="#9747FF"/>
<path d="M1 1V0C0.447715 0 0 0.447715 0 1L1 1ZM20.2857 1H21.2857C21.2857 0.447715 20.838 0 20.2857 0V1ZM20.2857 29.8L19.559 30.487C19.8404 30.7846 20.2748 30.8806 20.6554 30.7292C21.036 30.5777 21.2857 30.2096 21.2857 29.8H20.2857ZM11.2101 20.2L11.9368 19.513C11.7479 19.3132 11.485 19.2 11.2101 19.2C10.9351 19.2 10.6723 19.3132 10.4834 19.513L11.2101 20.2ZM1 31H0C0 31.4096 0.249759 31.7777 0.630321 31.9292C1.01088 32.0806 1.4453 31.9846 1.72667 31.687L1 31ZM1 2H20.2857V0H1V2ZM19.2857 1V29.8H21.2857V1H19.2857ZM21.0124 29.113L11.9368 19.513L10.4834 20.887L19.559 30.487L21.0124 29.113ZM10.4834 19.513L0.273326 30.313L1.72667 31.687L11.9368 20.887L10.4834 19.513ZM0 1V31H2V1H0Z" fill="#9747FF"/>
</svg>
