<svg width="52" height="29" viewBox="0 0 52 29" fill="none" xmlns="http://www.w3.org/2000/svg">
<g clip-path="url(#clip0_710_8011)">
<path d="M42.6491 8.89154C42.1431 10.0564 41.641 11.2212 41.1233 12.417C43.5395 12.9995 45.8616 14.009 47.5012 16.094C49.0937 18.1169 49.9017 20.4038 49.1957 22.9703C49.0348 23.5488 48.5132 24.1739 47.9797 24.4884C46.1675 25.5639 44.3593 26.7365 42.3941 27.4354C40.6173 28.0683 38.6325 28.1537 36.734 28.4294C35.1376 28.6584 33.5372 28.8992 31.929 28.9768C30.5601 29.0428 29.1715 28.9768 27.8104 28.8021C22.3661 28.1149 17.4042 25.9677 12.5874 23.5488C10.2653 22.3801 8.06088 20.893 6.04866 19.2545C4.81701 18.2528 3.94622 16.754 3.10682 15.3679C2.03598 13.5974 1.0946 11.7453 0.219888 9.87387C-0.317489 8.72071 0.168896 7.88204 1.39662 7.87039C4.27178 7.84321 7.15479 7.89369 10.026 8.02958C12.9365 8.16548 15.8391 8.46833 18.7496 8.64693C22.0562 8.84883 25.3668 8.98861 28.7479 9.15945C28.0929 7.08608 28.2105 5.05154 29.3559 3.16066C30.2345 1.70852 31.5485 0.702898 33.1921 0.264151C36.6046 -0.648287 40.7192 0.912565 42.0097 4.42254C41.4998 4.89623 40.9703 5.35051 40.4839 5.8475C39.57 6.78323 39.6837 7.58307 40.8291 8.16936C41.4096 8.45668 42.0411 8.65082 42.6491 8.89154ZM37.6636 5.82032C37.4754 5.13696 37.393 4.39148 37.0478 3.79742C36.8635 3.47904 36.1653 3.20337 35.7887 3.29267C34.9219 3.49845 34.2746 4.23617 34.3884 5.0826C34.4786 5.76596 34.9572 6.57745 35.522 6.98513C36.8242 7.92475 37.6676 7.40058 37.6636 5.82032Z" fill="#FABE17"/>
<path d="M42.6488 8.89165C42.0408 8.65092 41.4093 8.45679 40.8327 8.1617C39.6873 7.57541 39.5775 6.77557 40.4875 5.83984C40.9739 5.34285 41.5034 4.88857 42.0133 4.41488C44.6218 3.81306 47.2027 3.20736 49.921 3.9839C51.7528 4.50807 52.0666 4.60125 51.9921 6.01068C51.9685 6.42224 51.6155 7.03183 51.2625 7.16772C49.9171 7.67636 48.5325 8.13452 47.1243 8.40631C45.6534 8.68975 44.1393 8.74022 42.6488 8.89165Z" fill="#EF4424"/>
<path d="M37.6632 5.82007C37.6672 7.40034 36.8238 7.9245 35.5216 6.98488C34.9567 6.5772 34.4782 5.76571 34.388 5.08235C34.2742 4.23592 34.9214 3.49821 35.7883 3.29242C36.1609 3.20312 36.8631 3.47879 37.0474 3.79718C37.3926 4.39123 37.471 5.13671 37.6632 5.82007Z" fill="#030301"/>
</g>
<defs>
<clipPath id="clip0_710_8011">
<rect width="52" height="29" fill="white"/>
</clipPath>
</defs>
</svg>
