<svg width="34" height="19" viewBox="0 0 34 19" fill="none" xmlns="http://www.w3.org/2000/svg">
<g clip-path="url(#clip0_710_8015)">
<path d="M27.886 5.82543C27.5551 6.58858 27.2269 7.35174 26.8883 8.13524C28.4682 8.51682 29.9865 9.17822 31.0585 10.5443C32.0998 11.8696 32.6281 13.3679 32.1664 15.0494C32.0613 15.4285 31.7202 15.838 31.3714 16.0441C30.1865 16.7487 29.0042 17.517 27.7193 17.9748C26.5575 18.3895 25.2597 18.4455 24.0184 18.6261C22.9746 18.7762 21.9282 18.9339 20.8767 18.9848C19.9816 19.028 19.0737 18.9848 18.1838 18.8703C14.624 18.42 11.3797 17.0133 8.23026 15.4285C6.71196 14.6628 5.27061 13.6885 3.95493 12.615C3.14962 11.9586 2.58026 10.9767 2.03142 10.0686C1.33126 8.90857 0.715735 7.69516 0.14381 6.46902C-0.207551 5.7135 0.110469 5.16403 0.913215 5.15639C2.79313 5.13859 4.67817 5.17166 6.55552 5.26069C8.45851 5.34973 10.3564 5.54815 12.2594 5.66516C14.4214 5.79744 16.586 5.88902 18.7967 6.00095C18.3684 4.64254 18.4454 3.30956 19.1943 2.07071C19.7688 1.11931 20.6279 0.460452 21.7025 0.172997C23.9338 -0.424807 26.6242 0.59782 27.4679 2.89746C27.1345 3.20781 26.7883 3.50544 26.4703 3.83105C25.8727 4.44412 25.9471 4.96815 26.696 5.35227C27.0755 5.54052 27.4885 5.66771 27.886 5.82543ZM24.6263 3.81324C24.5032 3.36553 24.4493 2.87711 24.2236 2.4879C24.1031 2.2793 23.6466 2.09869 23.4004 2.1572C22.8336 2.29202 22.4104 2.77535 22.4848 3.32991C22.5437 3.77763 22.8566 4.30929 23.226 4.5764C24.0774 5.19201 24.6288 4.84859 24.6263 3.81324Z" fill="#FABE17"/>
<path d="M27.8856 5.82563C27.4881 5.66791 27.0752 5.54072 26.6982 5.34739C25.9493 4.96327 25.8775 4.43923 26.4725 3.82617C26.7905 3.50055 27.1367 3.20292 27.4701 2.89257C29.1757 2.49828 30.8632 2.10144 32.6405 2.61021C33.8383 2.95363 34.0434 3.01468 33.9947 3.9381C33.9793 4.20774 33.7485 4.60713 33.5177 4.69616C32.638 5.02941 31.7326 5.32958 30.8119 5.50765C29.8502 5.69335 28.8602 5.72642 27.8856 5.82563Z" fill="#EF4424"/>
<path d="M24.6261 3.8132C24.6286 4.84855 24.0772 5.19197 23.2258 4.57635C22.8564 4.30925 22.5436 3.77759 22.4846 3.32987C22.4102 2.77531 22.8334 2.29198 23.4002 2.15715C23.6438 2.09865 24.1029 2.27926 24.2234 2.48786C24.4491 2.87706 24.5004 3.36548 24.6261 3.8132Z" fill="#030301"/>
</g>
<defs>
<clipPath id="clip0_710_8015">
<rect width="34" height="19" fill="white"/>
</clipPath>
</defs>
</svg>
