<svg width="103" height="58" viewBox="0 0 103 58" fill="none" xmlns="http://www.w3.org/2000/svg">
<g clip-path="url(#clip0_710_8003)">
<path d="M84.4776 17.7826C83.4753 20.1122 82.4808 22.4419 81.4552 24.8336C86.2412 25.9984 90.8408 28.0174 94.0884 32.1875C97.2428 36.2333 98.8433 40.8071 97.4448 45.94C97.1263 47.0971 96.0929 48.3473 95.0363 48.9763C91.4468 51.1274 87.8651 53.4725 83.9726 54.8703C80.453 56.1361 76.5216 56.3069 72.7612 56.8582C69.599 57.3164 66.4291 57.7979 63.2436 57.9532C60.532 58.0852 57.7816 57.9532 55.0856 57.6037C44.3016 56.2292 34.4732 51.935 24.9323 47.0971C20.3328 44.7597 15.9663 41.7855 11.9806 38.5085C9.54095 36.5051 7.81612 33.5076 6.15345 30.7353C4.03238 27.1943 2.16771 23.4902 0.435115 19.7473C-0.629304 17.4409 0.334112 15.7636 2.76596 15.7403C8.46099 15.6859 14.1716 15.7869 19.8588 16.0587C25.6238 16.3305 31.3732 16.9362 37.1381 17.2934C43.6878 17.6972 50.2452 17.9767 56.9425 18.3184C55.645 14.1717 55.8781 10.1026 58.1468 6.32083C59.8872 3.41655 62.4899 1.40531 65.7454 0.527814C72.5048 -1.29706 80.655 1.82464 83.2111 8.84459C82.2011 9.79197 81.1522 10.7005 80.1888 11.6945C78.3785 13.566 78.6038 15.1657 80.8725 16.3382C82.0224 16.9129 83.2733 17.3011 84.4776 17.7826ZM74.6026 11.6401C74.2296 10.2734 74.0665 8.78247 73.3828 7.59436C73.0176 6.95759 71.6346 6.40624 70.8887 6.58485C69.1717 6.99642 67.8897 8.47185 68.115 10.1647C68.2937 11.5314 69.2416 13.1544 70.3604 13.9698C72.9399 15.849 74.6103 14.8007 74.6026 11.6401Z" fill="#FABE17"/>
<path d="M84.4777 17.7828C83.2734 17.3014 82.0225 16.9131 80.8804 16.3229C78.6117 15.1503 78.3942 13.5507 80.1967 11.6792C81.1601 10.6852 82.209 9.77665 83.219 8.82927C88.3858 7.62563 93.4981 6.41422 98.8823 7.96731C102.511 9.01564 103.132 9.20201 102.985 12.0209C102.938 12.844 102.239 14.0632 101.539 14.335C98.8745 15.3522 96.1319 16.2686 93.3427 16.8121C90.4291 17.379 87.4301 17.48 84.4777 17.7828Z" fill="#EF4424"/>
<path d="M74.6026 11.6401C74.6104 14.8007 72.9399 15.849 70.3605 13.9698C69.2417 13.1544 68.2938 11.5314 68.1151 10.1647C67.8898 8.47184 69.1717 6.99641 70.8888 6.58484C71.6269 6.40624 73.0176 6.95759 73.3828 7.59435C74.0665 8.78246 74.2219 10.2734 74.6026 11.6401Z" fill="#030301"/>
</g>
<defs>
<clipPath id="clip0_710_8003">
<rect width="103" height="58" fill="white"/>
</clipPath>
</defs>
</svg>
