<svg width="21" height="21" viewBox="0 0 21 21" fill="none" xmlns="http://www.w3.org/2000/svg">
<path d="M16.9615 0.526306H4.03846C2.96739 0.526306 1.9402 0.929392 1.18284 1.64689C0.42548 2.36439 0 3.33752 0 4.35222V16.5951C0 17.6098 0.42548 18.583 1.18284 19.3005C1.9402 20.018 2.96739 20.421 4.03846 20.421H10.5C10.7142 20.421 10.9197 20.3404 11.0711 20.1969C11.2226 20.0534 11.3077 19.8588 11.3077 19.6559V13.5344C11.3077 13.3315 11.2226 13.1368 11.0711 12.9933C10.9197 12.8498 10.7142 12.7692 10.5 12.7692H9.69231V11.2389H10.5C10.7142 11.2389 10.9197 11.1582 11.0711 11.0147C11.2226 10.8712 11.3077 10.6766 11.3077 10.4737V7.79554C11.3077 7.28819 11.5204 6.80162 11.8991 6.44287C12.2778 6.08412 12.7914 5.88258 13.3269 5.88258H15.3462V7.41295H14.5385C14.11 7.41295 13.6992 7.57418 13.3962 7.86118C13.0933 8.14818 12.9231 8.53743 12.9231 8.94331V10.4737C12.9231 10.6766 13.0082 10.8712 13.1596 11.0147C13.3111 11.1582 13.5166 11.2389 13.7308 11.2389H15.12L14.7162 12.7692H13.7308C13.5166 12.7692 13.3111 12.8498 13.1596 12.9933C13.0082 13.1368 12.9231 13.3315 12.9231 13.5344V16.5951C12.9231 16.7981 13.0082 16.9927 13.1596 17.1362C13.3111 17.2797 13.5166 17.3603 13.7308 17.3603C13.945 17.3603 14.1504 17.2797 14.3019 17.1362C14.4534 16.9927 14.5385 16.7981 14.5385 16.5951V14.2996H15.3462C15.5307 14.3047 15.7114 14.2497 15.8584 14.1439C16.0054 14.0381 16.1096 13.8878 16.1538 13.718L16.9615 10.6573C16.9918 10.5444 16.9944 10.4264 16.9692 10.3124C16.944 10.1983 16.8917 10.0912 16.8162 9.99926C16.7376 9.90494 16.6367 9.82947 16.5217 9.77895C16.4066 9.72843 16.2806 9.7043 16.1538 9.70849H14.5385V8.94331H16.1538C16.3681 8.94331 16.5735 8.86269 16.725 8.71919C16.8764 8.57569 16.9615 8.38107 16.9615 8.17813V5.1174C16.9615 4.91446 16.8764 4.71983 16.725 4.57633C16.5735 4.43283 16.3681 4.35222 16.1538 4.35222H13.3269C12.3636 4.35424 11.4404 4.71766 10.7592 5.36297C10.0781 6.00828 9.69444 6.88293 9.69231 7.79554V9.70849H8.88462C8.6704 9.70849 8.46496 9.78911 8.31349 9.93261C8.16202 10.0761 8.07692 10.2707 8.07692 10.4737V13.5344C8.07692 13.7373 8.16202 13.932 8.31349 14.0755C8.46496 14.219 8.6704 14.2996 8.88462 14.2996H9.69231V18.8907H4.03846C3.39582 18.8907 2.7795 18.6488 2.32509 18.2183C1.87067 17.7878 1.61538 17.2039 1.61538 16.5951V4.35222C1.61538 3.7434 1.87067 3.15952 2.32509 2.72902C2.7795 2.29852 3.39582 2.05667 4.03846 2.05667H16.9615C17.6042 2.05667 18.2205 2.29852 18.6749 2.72902C19.1293 3.15952 19.3846 3.7434 19.3846 4.35222V16.5951C19.3846 17.2039 19.1293 17.7878 18.6749 18.2183C18.2205 18.6488 17.6042 18.8907 16.9615 18.8907H13.7308C13.5166 18.8907 13.3111 18.9713 13.1596 19.1148C13.0082 19.2583 12.9231 19.4529 12.9231 19.6559C12.9231 19.8588 13.0082 20.0534 13.1596 20.1969C13.3111 20.3404 13.5166 20.421 13.7308 20.421H16.9615C18.0326 20.421 19.0598 20.018 19.8172 19.3005C20.5745 18.583 21 17.6098 21 16.5951V4.35222C21 3.33752 20.5745 2.36439 19.8172 1.64689C19.0598 0.929392 18.0326 0.526306 16.9615 0.526306V0.526306Z" fill="#9747FF"/>
</svg>
