<svg width="1315" height="54" viewBox="0 0 1315 54" fill="none" xmlns="http://www.w3.org/2000/svg">
<g opacity="0.55" clip-path="url(#clip0_710_7443)">
<g clip-path="url(#clip1_710_7443)">
<path d="M418.35 0.910004C374.56 3.8 330.62 6.7 286.74 4.32001C274.18 3.64001 261.64 2.51001 249.17 0.860008C271.32 3.84001 293.48 6.81001 315.63 9.79001C285.76 5.75001 256.34 -1.57999 228.53 -13.31C248.44 -4.91 268.34 3.49001 288.25 11.89C268.58 3.50001 249.91 -7.05 232.97 -20.12C249.84 -7.09 266.7 5.94001 283.57 18.97C277.57 14.29 271.81 9.32001 266.31 4.05001C207.38 146.31 148.46 288.57 89.5301 430.83C143.8 425.27 198.61 426.13 252.67 433.38C230.52 430.4 208.36 427.43 186.21 424.45C251.3 433.3 314.56 451.99 379.56 461.43C433.69 469.29 487.8 476.7 542.41 479.93C575.15 481.86 607.95 482.65 640.74 482.82C677.88 483.02 715.02 482.44 752.16 481.85C786.58 483.15 818.69 475.97 848.48 460.32C879.47 450.24 906.29 433.01 928.94 408.63C953.32 385.99 970.55 359.17 980.63 328.17C996.28 298.38 1003.46 266.27 1002.16 231.85C999.18 209.7 996.21 187.54 993.23 165.39C981.35 123.04 959.92 86.27 928.94 55.07C912.07 42.04 895.21 29.01 878.34 15.98C839.35 -6.63 797.29 -18.01 752.16 -18.15C674.94 -16.93 597.57 -15.72 520.49 -21.55C499.02 -23.17 477.6 -25.36 456.26 -28.21C478.41 -25.23 500.57 -22.26 522.72 -19.28C474.72 -25.76 427.76 -37.11 380.38 -46.92C335.17 -56.28 289.51 -62.21 243.66 -67.78C219.61 -70.7 195.4 -72.36 171.18 -72.74C143.92 -73.17 116.65 -71.96 89.5301 -69.18C67.3801 -66.2 45.2201 -63.23 23.0701 -60.25C3.1601 -51.85 -16.7399 -43.45 -36.6499 -35.05C-53.5099 -22.01 -70.3799 -8.97999 -87.2399 4.05001C-111.62 26.69 -128.85 53.51 -138.93 84.51C-150.24 104.01 -155.93 125.04 -156 147.6C-161.95 169.75 -161.95 191.91 -156 214.06C-155.93 236.62 -150.24 257.65 -138.93 277.15C-128.85 308.14 -111.62 334.96 -87.2399 357.61C-83.4399 361.25 -79.5299 364.76 -75.4799 368.11C-65.4899 376.39 -54.8199 384.23 -44.6799 392.07C-34.3899 400.02 -23.9699 408.46 -13.3099 416.16C-4.9599 422.19 3.80009 427.65 12.8501 432.55C17.4701 435.05 22.1701 437.41 26.9301 439.64C50.9601 450.84 75.5801 460.78 100.15 470.71C109.79 474.6 119.64 477.98 129.62 480.88C139.8 483.84 150.12 486.3 160.52 488.32C165.53 489.29 170.56 490.16 175.61 490.92C200.07 494.63 224.65 497.66 249.18 500.86C252.41 501.28 255.64 501.69 258.87 502.05C283.68 504.81 308.67 505.5 333.61 505.1C361.9 504.64 390.13 502.79 418.35 500.92C452.77 502.22 484.88 495.04 514.67 479.39C545.66 469.31 572.48 452.08 595.13 427.7C619.51 405.06 636.74 378.24 646.82 347.24C662.47 317.45 669.65 285.34 668.35 250.92C665.37 228.77 662.4 206.61 659.42 184.46C647.54 142.11 626.11 105.34 595.13 74.14C578.26 61.11 561.4 48.08 544.53 35.05C505.53 12.43 463.47 1.05 418.35 0.910004Z" fill="#357BBF"/>
<path d="M615.96 183.3C615.75 189.48 615.24 195.63 614.43 201.75C617.41 179.6 620.38 157.44 623.36 135.29C621.13 151.38 616.81 167.07 610.5 182.04C618.9 162.13 627.3 142.23 635.7 122.32C632.35 130.13 628.51 137.71 624.12 144.98C619.81 152.11 614.5 158.72 610.87 166.24C600.83 187.03 591.72 208.35 583.92 230.08C583.12 232.31 582.64 234.57 582.23 236.9C580.74 247.98 579.25 259.05 577.76 270.13C576.08 281.59 574.54 293.07 573.15 304.56C573.05 305.77 572.96 306.96 572.95 308.18C572.79 330.85 582.32 380.95 582.28 380.68C583.72 389.78 586.99 398.24 590.43 406.74C604.32 441.15 616 476.43 625.27 512.36C630.56 532.86 635.16 553.55 638.01 574.54C635.03 552.39 632.06 530.23 629.08 508.08C631.28 524.73 632.26 541.48 631.69 558.27C631.11 575.27 629.17 592.19 626.92 609.05C629.9 586.9 632.87 564.74 635.85 542.59C628.71 595.67 620.95 648.67 614.82 701.87C611.19 733.4 608.01 764.97 604.99 796.56C603.27 814.55 601.6 832.54 599.94 850.54C598.64 884.96 605.82 917.07 621.47 946.86C631.55 977.85 648.78 1004.67 673.16 1027.32C695.8 1051.7 722.62 1068.93 753.62 1079.01C783.41 1094.66 815.52 1101.84 849.94 1100.54C872.09 1097.56 894.25 1094.59 916.4 1091.61C958.75 1079.73 995.52 1058.3 1026.72 1027.32C1039.75 1010.45 1052.78 993.59 1065.81 976.72C1088.42 937.73 1099.8 895.67 1099.94 850.54C1104.82 797.88 1109.7 745.21 1115.89 692.68C1117.64 677.8 1119.51 662.93 1121.5 648.08C1118.52 670.23 1115.55 692.39 1112.57 714.54C1114.09 703.25 1115.73 691.98 1117.28 680.7C1121.84 647.61 1127.07 614.4 1130.18 581.09C1132.3 558.43 1132.41 535.79 1129.72 513.17C1126.83 488.86 1123.37 464.59 1119.97 440.35C1119.55 437.38 1119.12 434.42 1118.64 431.46C1117.75 425.96 1116.75 420.49 1115.66 415.03C1113.44 403.92 1110.84 392.88 1108.04 381.9C1102.54 360.33 1096.19 338.98 1089 317.91C1085.03 306.27 1080.8 294.72 1076.33 283.27C1071.8 271.68 1066.22 260.18 1064.42 247.75C1067.4 269.9 1070.37 292.06 1073.35 314.21C1072.91 310.57 1072.85 306.99 1073.3 303.35C1070.32 325.5 1067.35 347.66 1064.37 369.81C1064.86 366.72 1065.69 363.8 1066.88 360.91C1058.48 380.82 1050.08 400.72 1041.68 420.63C1045.82 411.24 1052.51 403.2 1057.63 394.34C1060.14 390 1062.47 385.55 1064.6 381.01C1075.78 357.28 1085.91 333.02 1095.24 308.51C1098.81 299.13 1101.6 289.46 1103.59 279.62C1108.91 253.21 1111.5 225.96 1114.74 199.45C1115.4 194.08 1115.79 188.7 1115.97 183.29C1117.27 148.87 1110.09 116.76 1094.44 86.9699C1084.36 55.9799 1067.13 29.1599 1042.75 6.50986C1020.11 -17.8701 993.29 -35.1001 962.29 -45.1801C932.49 -60.8201 900.38 -68.0001 865.96 -66.7001C843.81 -63.7201 821.65 -60.7501 799.5 -57.7701C757.15 -45.8901 720.38 -24.4601 689.18 6.51987C676.15 23.3899 663.12 40.2499 650.09 57.1199C627.48 96.1199 616.1 138.18 615.96 183.3Z" fill="#357BBF"/>
<path d="M486.42 154.95C486.42 143.1 486.42 131.26 486.42 119.19C487.38 119.08 488.27 118.78 489.09 118.92C495.38 120 501.61 119.87 507.87 118.51C510.88 117.85 513.98 117.5 517.06 117.37C525 117.03 532.29 119.2 538.96 123.52C540.02 124.2 541.23 124.83 542.45 125.06C550.19 126.57 557.31 125.58 563.23 119.77C566.81 116.26 570.49 112.92 572.67 108.17C574.12 105.01 576.57 102.46 579.66 100.58C583.39 98.3098 586.21 95.1299 588.04 91.1799C590.2 86.4999 592.15 81.7299 594.28 77.0399C595.39 74.5899 596.63 72.1898 597.93 69.8398C598.93 68.0398 600.3 66.4398 601.22 64.6098C604.58 57.9598 610.09 54.0698 617.03 51.9298C626.8 48.9198 631.34 41.5699 633.34 32.1599C633.55 31.1798 633.58 30.0398 633.3 29.0798C632.22 25.3399 634.03 22.6199 636.22 19.9799C636.3 19.8799 636.39 19.7798 636.49 19.7098C641.31 16.5098 642.76 11.3799 643.87 6.21985C644.37 3.89985 644.04 1.38985 643.94 -1.03015C643.9 -2.04015 643.48 -3.03016 643.28 -4.04015C642.49 -7.96015 643.85 -9.86015 647.75 -10.4902C653.71 -11.4501 659.72 -12.2202 665.61 -13.5402C673.52 -15.3102 681.31 -17.5802 689.17 -19.5402C694.53 -20.8702 699.94 -22.0401 705.33 -23.2802C714.6 -25.4102 724.01 -26.8802 733.11 -29.8202C740.7 -32.2702 748.48 -34.2202 756.28 -35.9002C764.94 -37.7602 773.69 -39.2502 782.46 -40.5502C791.49 -41.8802 800.59 -42.6302 809.63 -43.9102C817.51 -45.0202 825.36 -46.4202 833.19 -47.8702C837.49 -48.6702 841.71 -49.8402 845.97 -50.8202C851.54 -52.1102 856.79 -54.1802 861.59 -57.3302C863.5 -58.5902 865.33 -58.6702 867.38 -57.5902C876.18 -52.9302 885.5 -49.5302 894.91 -46.3802C909.82 -41.3802 924.48 -35.7502 938.86 -29.3602C956.52 -21.5202 974.2 -13.7502 991.87 -5.94015C993.64 -5.16015 995.35 -4.25015 997.09 -3.41015C999.2 -2.41015 1001.23 -1.48015 1003.73 -2.52015C1004.57 -2.87015 1006.07 -2.38015 1006.93 -1.79015C1009.69 0.0998459 1012.35 2.13985 1014.95 4.24985C1017.69 6.46985 1019.57 9.18984 1020.72 12.6998C1022.56 18.3398 1027.06 22.1398 1031.81 25.2098C1036.66 28.3398 1041.96 30.7999 1047.21 33.2498C1049.83 34.4698 1052.23 35.8198 1054.16 37.9799C1062.71 47.5798 1072.67 55.4898 1083.38 62.5298C1090.39 67.1398 1096.6 72.7598 1102.97 78.1998C1109.72 83.9598 1117.03 89.0599 1124.01 94.5399C1127.85 97.5599 1131.63 100.67 1135.26 103.94C1140.11 108.3 1145.53 111.73 1151.4 114.45C1159.7 118.29 1168.05 122.03 1176.48 125.59C1180.02 127.08 1183.78 128.07 1187.48 129.17C1196.24 131.78 1205.02 134.32 1213.78 136.91C1217.48 138.01 1221.22 139.02 1224.84 140.34C1232.92 143.29 1241.49 143.56 1249.83 145.05C1255.9 146.14 1262 147.07 1268.11 147.9C1276.53 149.05 1284.94 150.26 1293.02 152.96C1301.62 155.82 1309.58 159.96 1317.23 164.86C1323.4 168.81 1330.03 172.05 1336.46 175.59C1339.4 177.21 1342.32 178.85 1345.29 180.39C1346.98 181.27 1347.69 182.54 1347.66 184.43C1347.59 189.07 1347.63 193.71 1347.63 198.35C1344.28 199.15 1340.95 200.14 1337.56 200.72C1330.88 201.85 1324.26 203.52 1317.4 203.22C1317.27 203.21 1317.15 203.27 1317.02 203.28C1312.29 203.46 1307.52 204.09 1302.82 203.73C1294.55 203.08 1286.33 201.78 1278.08 200.87C1276.03 200.65 1273.93 200.91 1271.85 200.95C1271.83 201.31 1271.81 201.66 1271.79 202.02C1275.36 202.68 1278.9 203.54 1282.5 203.97C1289.35 204.81 1296.22 205.77 1303.11 206C1309.5 206.22 1315.92 205.65 1322.32 205.24C1325.24 205.06 1328.16 204.52 1331.05 204C1336.58 202.99 1342.09 201.88 1347.61 200.81C1347.62 207.75 1347.62 214.7 1347.63 221.64C1347.26 221.85 1346.89 222.07 1346.52 222.28C1341.54 221.87 1336.56 221.41 1331.57 221.06C1329.13 220.89 1326.67 221 1324.23 220.87C1314.73 220.38 1305.24 219.85 1295.75 219.33C1290.11 219.02 1284.45 218.8 1278.82 218.4C1273.83 218.05 1268.86 217.39 1263.87 217.07C1256.81 216.63 1249.74 216.45 1242.68 216.03C1237.3 215.71 1231.93 215.2 1226.56 214.78C1222.85 214.49 1219.14 214.15 1215.42 213.94C1209.25 213.59 1203.08 213.38 1196.92 213.01C1190.52 212.62 1184.12 212.03 1177.72 211.64C1171.43 211.25 1165.13 211.02 1158.84 210.68C1150.5 210.23 1142.17 209.72 1133.83 209.26C1127.93 208.94 1122.02 208.73 1116.12 208.32C1111.39 207.99 1106.69 207.3 1101.97 206.98C1095.43 206.54 1088.87 206.35 1082.33 205.96C1076.06 205.58 1069.8 205.05 1063.53 204.64C1058.92 204.34 1054.29 204.16 1049.68 203.86C1041.74 203.35 1033.8 202.77 1025.86 202.26C1021.37 201.97 1016.87 201.81 1012.38 201.53C1004.31 201.02 996.25 200.46 988.19 199.92C984.99 199.7 981.79 199.41 978.58 199.24C972.29 198.89 966 198.66 959.72 198.27C953.45 197.88 947.2 197.31 940.93 196.92C934.52 196.52 928.09 196.3 921.68 195.91C915.54 195.53 909.41 195 903.27 194.58C898.53 194.26 893.78 194.05 889.04 193.74C881.6 193.26 874.17 192.72 866.73 192.24C862.12 191.95 857.49 191.77 852.88 191.47C845.07 190.97 837.26 190.42 829.45 189.88C825.87 189.63 822.29 189.32 818.71 189.11C812.93 188.78 807.15 188.57 801.37 188.2C795.23 187.8 789.11 187.2 782.97 186.83C776.3 186.42 769.61 186.25 762.93 185.83C757.56 185.5 752.21 184.94 746.84 184.52C743.26 184.24 739.67 183.97 736.08 183.76C730.3 183.42 724.52 183.2 718.75 182.82C712.61 182.42 706.48 181.85 700.34 181.46C694.18 181.07 688.02 180.86 681.86 180.47C675.84 180.09 669.84 179.49 663.82 179.13C657.02 178.72 650.2 178.53 643.4 178.12C638.03 177.79 632.67 177.19 627.3 176.85C620.63 176.42 613.95 176.19 607.28 175.77C601.78 175.42 596.28 174.91 590.79 174.49C587.21 174.21 583.63 173.92 580.04 173.7C574.65 173.38 569.26 173.17 563.87 172.82C557.21 172.39 550.56 171.81 543.89 171.38C538.12 171.01 532.34 170.8 526.57 170.42C520.3 170.01 514.03 169.42 507.76 169.03C501.47 168.64 495.17 168.4 488.88 168.08C488.13 168.04 487.39 167.94 486.38 167.84C486.38 164.48 486.38 161.29 486.38 158.11C489.67 158.32 492.97 158.54 496.26 158.74C499.04 158.91 501.7 158.7 504.36 156.07C502.42 155.69 501.12 155.25 499.79 155.2C495.35 155.05 490.88 155.03 486.42 154.95ZM872.63 7.06985C878.88 6.58984 885.12 6.03985 891.37 5.64985C897.25 5.27985 903.14 4.98985 909.03 4.78985C912.76 4.65985 916.49 4.78985 920.22 4.74985C921.01 4.73985 921.79 4.48985 922.57 4.34985C922.57 4.05985 922.57 3.77985 922.56 3.48985C921.39 3.39985 920.21 3.19985 919.04 3.22985C908.26 3.48985 897.48 3.66985 886.71 4.12985C881.75 4.33985 876.81 5.13985 871.87 5.67985C867.41 6.09985 862.94 6.41985 858.5 6.95985C852.79 7.65984 847.12 8.85985 841.39 9.26985C832.8 9.86985 824.18 10.1098 815.57 10.2299C804.61 10.3799 793.65 10.2699 782.7 10.2699C781.67 10.2699 780.63 10.2398 779.61 10.3098C773.22 10.7598 766.83 11.2598 760.43 11.6898C754.92 12.0599 749.4 12.2798 743.89 12.6798C738.65 13.0598 733.43 13.7498 728.19 13.9998C718.94 14.4398 709.68 14.6498 700.42 14.9799C699.87 14.9998 699.33 15.2498 698.78 15.3998C703.5 17.7699 708.39 18.0898 713.34 17.8098C720 17.4298 726.64 16.8998 733.3 16.4499C741.89 15.8799 750.48 15.3399 759.07 14.7598C766.49 14.2598 773.91 13.3998 781.34 13.2598C799.72 12.9099 818.14 13.8598 836.48 11.7798C841.06 11.2598 845.64 10.7598 850.22 10.2398C855.18 9.66985 860.16 9.14985 865.11 8.48985C867.64 8.12984 870.13 7.54985 872.63 7.06985ZM1204.84 182.18C1204.89 181.95 1204.95 181.72 1205 181.49C1204.6 181.24 1204.22 180.85 1203.79 180.76C1195.75 179.16 1187.71 177.51 1179.64 176.04C1171.95 174.64 1164.24 173.37 1156.52 172.15C1152.47 171.51 1148.4 170.85 1144.32 170.68C1137.37 170.39 1130.4 170.38 1123.43 170.45C1102.19 170.65 1080.95 170.97 1059.76 169.03C1052.99 168.41 1046.21 167.92 1039.42 167.62C1029.27 167.18 1019.1 166.87 1008.94 166.69C1000.82 166.54 992.69 166.61 984.56 166.69C982.13 166.71 979.7 167.19 977.27 167.24C973.02 167.33 968.75 167.48 964.52 167.17C958.39 166.72 952.29 165.94 946.19 165.19C940.6 164.5 935.04 163.37 929.44 162.97C921.24 162.39 913 162.25 904.78 161.99C901.69 161.89 898.59 161.9 895.49 161.99C888.29 162.18 881.09 162.46 873.88 162.68C872.85 162.71 871.82 162.62 870.8 162.54C868.75 162.37 866.7 162.21 864.67 161.97C858.95 161.3 853.17 160.91 847.53 159.82C833.44 157.11 819.67 152.67 805.1 152.54C797.41 152.47 789.73 151.49 782.04 151.27C773.82 151.04 765.59 151.22 757.36 151.22C758.54 152.2 759.83 152.61 761.14 152.69C763.32 152.83 765.53 152.66 767.71 152.8C774.11 153.2 780.49 153.78 786.89 154.13C794.33 154.53 801.81 154.51 809.23 155.14C815.22 155.65 821.18 156.68 827.1 157.78C835.54 159.34 843.94 161.19 852.36 162.88C854.87 163.38 857.39 164.08 859.93 164.16C867.27 164.38 874.63 164.34 881.98 164.37C898.31 164.44 914.68 163.25 930.95 165.84C936.39 166.71 941.86 167.42 947.33 168.06C952.55 168.67 957.78 169.5 963.01 169.55C982.35 169.73 1001.7 169.61 1021.04 169.63C1025.04 169.63 1029.05 169.58 1033.03 169.88C1040.44 170.44 1047.81 171.52 1055.23 171.89C1066.28 172.44 1077.36 172.78 1088.42 172.82C1099.23 172.85 1110.04 172.25 1120.85 172.21C1128.3 172.18 1135.77 172.46 1143.21 172.94C1149.47 173.34 1155.72 174.11 1161.94 174.95C1167.15 175.65 1172.31 176.66 1177.49 177.56C1185.31 178.93 1193.13 180.34 1200.96 181.71C1202.22 181.9 1203.53 182.02 1204.84 182.18ZM941.16 114.43C941.15 114.15 941.14 113.88 941.12 113.6C940.4 113.49 939.68 113.26 938.97 113.31C936.16 113.49 933.35 113.7 930.54 114C926.21 114.46 921.89 115.02 917.56 115.49C912.59 116.04 907.63 116.64 902.65 117.04C897.14 117.48 891.62 117.67 886.11 118.06C880.61 118.44 875.13 119.04 869.63 119.35C863.37 119.71 857.1 119.84 850.83 120.12C839.53 120.62 828.23 121.07 816.95 121.73C810.2 122.12 803.47 122.85 796.73 123.48C789.2 124.19 781.69 125.01 774.16 125.67C769.94 126.04 765.6 125.7 761.51 126.57C755.64 127.82 749.96 126.51 744.23 126.22C736.05 125.79 727.9 124.41 719.72 124.16C711.25 123.91 702.76 124.64 694.27 124.72C688.72 124.78 683.26 125.4 677.82 126.4C675.58 126.81 673.33 127.24 671.09 127.66C671.13 127.95 671.17 128.24 671.21 128.54C673.75 128.54 676.3 128.68 678.83 128.51C684.2 128.16 689.55 127.46 694.92 127.24C701.36 126.97 707.81 127 714.26 127.01C718.77 127.01 723.3 126.98 727.79 127.33C734.68 127.88 741.54 129.07 748.43 129.4C755.37 129.73 762.36 129.6 769.3 129.2C777.1 128.74 784.87 127.78 792.64 126.98C795.7 126.67 798.73 126.16 801.79 125.82C807.14 125.23 812.48 124.49 817.84 124.2C826.83 123.71 835.83 123.53 844.83 123.22C845.09 123.21 845.35 123.21 845.6 123.19C851.99 122.73 858.38 122.19 864.77 121.82C871.96 121.41 879.16 121.27 886.34 120.83C892.74 120.44 899.12 119.79 905.51 119.25C905.9 119.22 906.28 119.21 906.67 119.16C913.9 118.18 921.14 117.2 928.37 116.21C932.65 115.61 936.9 115.02 941.16 114.43ZM1068.36 64.2598C1068.26 63.8699 1068.15 63.4799 1068.05 63.0798C1067.09 63.0798 1066.1 62.9198 1065.17 63.1098C1061.4 63.8898 1057.63 64.6598 1053.91 65.6398C1044.79 68.0398 1035.45 68.7498 1026.1 68.9598C1018.91 69.1199 1011.71 68.5298 1004.52 68.3498C1001.17 68.2598 997.82 68.2598 994.48 68.3699C992.44 68.4398 990.42 68.7798 988.38 68.9998C985.96 69.2598 983.55 69.6099 981.13 69.7399C978.05 69.9099 974.93 69.7099 971.87 70.0199C968.51 70.3598 965.09 70.6898 962.04 72.7399C963.22 73.2798 964.4 73.5698 965.57 73.5598C974.04 73.4498 982.48 74.1599 990.99 73.0298C998.34 72.0499 1005.87 72.3399 1013.32 72.2099C1019.5 72.0999 1025.69 72.3199 1031.87 72.1299C1035.96 71.9998 1040.11 71.7699 1044.1 70.9398C1051.26 69.4598 1058.32 67.5398 1065.4 65.7198C1066.45 65.4398 1067.38 64.7498 1068.36 64.2598ZM579.95 161.38C579.94 161.65 579.93 161.93 579.92 162.2C583.56 162.63 587.18 163.25 590.83 163.44C598.92 163.85 607.03 164.26 615.12 164.25C623.6 164.24 632.09 163.82 640.57 163.41C647.5 163.08 654.41 162.38 661.34 162.11C664.4 161.99 667.49 162.58 670.56 162.75C679.27 163.25 687.99 163.94 696.71 164.13C707.67 164.37 718.63 164.2 729.59 164.16C730.19 164.16 730.78 163.72 731.38 163.49C730.27 162.86 729.27 162.71 728.27 162.72C717.08 162.82 705.93 162.38 694.76 161.39C685.55 160.58 676.26 160.42 667 160.42C654.9 160.43 642.81 160.09 630.7 161.11C623.32 161.73 615.81 160.7 608.35 160.6C600.1 160.48 591.85 160.53 583.6 160.6C582.38 160.61 581.16 161.11 579.95 161.38ZM1107.95 94.1398C1107.09 97.8198 1104.55 98.9798 1101.87 99.9698C1095.96 102.15 1089.95 103.82 1083.75 105.1C1074.16 107.07 1064.39 107.16 1054.76 108.55C1049.18 109.35 1043.56 109.79 1037.96 110.46C1033.26 111.03 1028.6 112.05 1023.89 112.28C1013.1 112.8 1002.29 112.83 991.5 113.31C986.01 113.56 980.49 114.09 975.08 115.02C971.66 115.61 968.33 116.99 965.39 119.17C967.58 119.07 969.64 118.53 971.73 118.12C976.49 117.2 981.24 115.95 986.05 115.58C993.73 114.99 1001.46 115.05 1009.16 114.77C1015.45 114.54 1021.74 114.26 1028.02 113.91C1031.35 113.73 1034.67 113.42 1037.98 113.03C1048.02 111.85 1058.03 110.21 1068.1 109.49C1078.96 108.72 1089.46 106.59 1099.67 103.01C1102.66 101.96 1105.46 100.24 1108.14 98.4998C1109.99 97.3199 1109.87 96.4298 1107.95 94.1398ZM989.48 27.7798C987.33 28.7098 985.49 29.9198 983.49 30.2798C979.34 31.0298 975.11 31.3598 970.91 31.7898C962.87 32.5998 954.84 33.4598 946.79 34.0798C944.13 34.2898 941.41 33.9499 938.74 33.6299C932.66 32.8998 926.63 31.8199 920.44 32.8799C915.01 33.8099 909.52 34.3298 904.06 35.0698C899.61 35.6698 895.17 36.3099 890.74 36.9899C890.07 37.0899 889.45 37.4998 888.8 37.7598C893.4 38.9398 898.01 38.9598 902.53 38.5398C910.18 37.8198 917.78 36.5798 925.42 35.7198C927.57 35.4799 929.78 35.8699 931.97 35.8998C939.56 36.0298 947.19 36.6999 954.71 36.0798C962.99 35.3898 971.16 33.5599 979.53 33.2399C982.56 33.1199 985.7 32.6998 988.35 30.8598C989.54 30.0298 990.62 29.1098 989.48 27.7798ZM721.57 75.1898C721.52 75.5898 721.46 75.9899 721.41 76.3898C724.21 77.0098 726.99 77.7598 729.82 78.2198C732.21 78.6098 734.68 78.9998 737.06 78.7999C742.4 78.3499 747.7 77.4099 753.04 76.8799C761.83 75.9998 770.65 75.4398 779.43 74.4599C787.45 73.5699 795.42 72.3199 803.41 71.1499C804.02 71.0599 804.54 70.2898 805.1 69.8398C803.77 69.1398 802.75 69.0299 801.77 69.1599C793.39 70.2198 785.03 71.3999 776.65 72.3699C769.8 73.1699 762.92 73.7799 756.04 74.3999C749.92 74.9499 743.79 75.4398 737.66 75.8799C736.26 75.9799 734.85 75.7798 733.44 75.7198C729.48 75.5499 725.53 75.3698 721.57 75.1898ZM1232.56 171.76C1232.53 172.1 1232.5 172.44 1232.47 172.79C1234.02 174.36 1236.07 174.37 1238.1 174.48C1242.34 174.72 1246.58 174.9 1250.8 175.25C1259.1 175.94 1267.4 176.75 1275.7 177.46C1277.62 177.62 1279.57 177.46 1281.49 177.66C1287.73 178.3 1293.96 179.06 1300.19 179.71C1300.8 179.77 1301.45 179.46 1302.3 179.28C1300.87 176.99 1298.69 177.05 1296.95 176.85C1288.81 175.88 1280.64 175.12 1272.47 174.42C1264.8 173.77 1257.11 173.3 1249.44 172.75C1249.31 172.74 1249.18 172.72 1249.06 172.71C1243.55 172.38 1238.06 172.07 1232.56 171.76ZM776.52 -23.5502C776.48 -23.2002 776.43 -22.8401 776.39 -22.4902C781.93 -20.8401 787.7 -21.9202 793.35 -21.6702C799.26 -21.4102 805.2 -21.5102 811.12 -21.7702C816.87 -22.0202 822.63 -22.4402 828.33 -23.2002C834.07 -23.9602 840 -23.9102 845.65 -26.2002C844.59 -29.1002 842.66 -28.5302 840.81 -27.9502C836.74 -26.6602 832.58 -26.0002 828.3 -26.0502C827.41 -26.0602 826.52 -25.8402 825.63 -25.7502C820.04 -25.1402 814.46 -24.2001 808.85 -24.0102C799.2 -23.6702 789.54 -23.8102 779.88 -23.7302C778.76 -23.7002 777.64 -23.6102 776.52 -23.5502ZM1092.23 135.28C1092.24 135.56 1092.26 135.84 1092.27 136.13C1093.25 136.21 1094.24 136.34 1095.22 136.35C1104.06 136.37 1112.87 136.32 1121.68 135.07C1127.62 134.23 1133.69 134.33 1139.7 134.04C1141.29 133.96 1142.97 134.21 1144.33 132.07C1142.8 131.95 1141.72 131.74 1140.64 131.79C1135.65 132.02 1130.67 132.34 1125.68 132.57C1123.11 132.69 1120.53 132.53 1117.97 132.73C1109.95 133.38 1101.94 134.13 1093.92 134.86C1093.36 134.91 1092.8 135.14 1092.23 135.28ZM623.03 84.1499C623.09 84.4999 623.15 84.8598 623.2 85.2099C626.51 85.2099 629.83 85.3898 633.12 85.1698C638.61 84.7999 644.12 84.3898 649.57 83.6098C655.01 82.8298 660.4 81.6498 665.78 80.4998C667.03 80.2298 668.5 79.7799 668.96 77.6799C667.58 77.9799 666.5 78.2599 665.42 78.4299C658.98 79.4398 652.55 80.6299 646.07 81.3699C640.72 81.9799 635.3 81.9099 629.93 82.4198C627.6 82.6398 625.33 83.5499 623.03 84.1499ZM620.9 119.02C620.74 118.75 620.57 118.48 620.41 118.21C618.79 118.31 617.14 118.6 615.54 118.47C611.33 118.13 607.14 117.63 602.94 117.14C599.63 116.76 596.34 116.27 593.03 115.89C589.27 115.46 585.55 114.18 581.68 115.21C582.75 115.71 583.83 116.1 584.94 116.24C587.87 116.62 590.82 116.8 593.73 117.22C600.32 118.16 606.88 119.25 613.47 120.16C615.12 120.39 616.83 120.33 618.49 120.15C619.32 120.05 620.1 119.41 620.9 119.02Z" fill="#357BBF"/>
<path d="M872.63 7.06967C870.13 7.53967 867.64 8.12967 865.12 8.46967C860.17 9.12967 855.2 9.64967 850.23 10.2197C845.65 10.7397 841.07 11.2397 836.49 11.7597C818.15 13.8497 799.74 12.8997 781.35 13.2397C773.92 13.3797 766.51 14.2397 759.08 14.7397C750.49 15.3197 741.9 15.8497 733.31 16.4297C726.66 16.8697 720.01 17.4097 713.35 17.7897C708.4 18.0697 703.5 17.7497 698.79 15.3797C699.34 15.2397 699.88 14.9797 700.43 14.9597C709.69 14.6297 718.95 14.4297 728.2 13.9797C733.44 13.7297 738.66 13.0397 743.9 12.6597C749.41 12.2597 754.93 12.0397 760.44 11.6697C766.84 11.2497 773.23 10.7397 779.62 10.2897C780.65 10.2197 781.68 10.2497 782.71 10.2497C793.67 10.2497 804.63 10.3697 815.58 10.2097C824.19 10.0897 832.81 9.84967 841.4 9.24967C847.13 8.84967 852.8 7.63967 858.51 6.93967C862.95 6.39967 867.43 6.07967 871.88 5.65967C872.13 6.12967 872.38 6.59967 872.63 7.06967Z" fill="#5BBDD6"/>
<path d="M989.48 27.7798C990.63 29.1098 989.55 30.0298 988.35 30.8698C985.7 32.7098 982.56 33.1298 979.53 33.2498C971.17 33.5698 962.99 35.3998 954.71 36.0898C947.18 36.7098 939.55 36.0398 931.97 35.9098C929.79 35.8698 927.57 35.4898 925.42 35.7298C917.78 36.5898 910.18 37.8298 902.53 38.5498C898.01 38.9698 893.4 38.9498 888.8 37.7698C889.45 37.4998 890.07 37.0998 890.74 36.9998C895.17 36.3198 899.62 35.6798 904.06 35.0798C909.52 34.3398 915.02 33.8198 920.44 32.8898C926.63 31.8298 932.65 32.9098 938.74 33.6398C941.41 33.9598 944.13 34.2898 946.79 34.0898C954.84 33.4698 962.87 32.6098 970.91 31.7998C975.11 31.3698 979.34 31.0398 983.49 30.2898C985.48 29.9198 987.33 28.7098 989.48 27.7798Z" fill="#5CBED6"/>
<path d="M872.63 7.06983C872.38 6.59983 872.13 6.12983 871.88 5.66983C876.83 5.13983 881.76 4.33983 886.73 4.11983C897.5 3.65983 908.28 3.47983 919.06 3.21983C920.23 3.18983 921.41 3.38983 922.58 3.47983C922.58 3.76983 922.58 4.04983 922.59 4.33983C921.81 4.47983 921.02 4.72983 920.24 4.73983C916.51 4.77983 912.78 4.65983 909.05 4.77983C903.16 4.97983 897.27 5.26983 891.39 5.63983C885.12 6.04983 878.88 6.58983 872.63 7.06983Z" fill="#55B6D5"/>
<path d="M830.99 -18.92C830.99 -7.07 830.99 4.77 830.99 16.84C830.03 16.95 829.14 17.25 828.32 17.11C822.03 16.03 815.8 16.16 809.54 17.52C806.53 18.18 803.43 18.53 800.35 18.66C792.41 19 785.12 16.83 778.45 12.51C777.39 11.83 776.18 11.2 774.96 10.97C767.22 9.46 760.1 10.45 754.18 16.26C750.6 19.77 746.92 23.11 744.74 27.86C743.29 31.02 740.84 33.57 737.75 35.45C734.02 37.72 731.2 40.9 729.37 44.85C727.21 49.53 725.26 54.3 723.13 58.99C722.02 61.44 720.78 63.84 719.48 66.19C718.48 67.99 717.11 69.59 716.19 71.42C712.83 78.07 707.32 81.96 700.38 84.1C690.61 87.11 686.07 94.46 684.07 103.87C683.86 104.85 683.83 105.99 684.11 106.95C685.19 110.69 683.38 113.41 681.19 116.05C681.11 116.15 681.02 116.25 680.92 116.32C676.1 119.52 674.65 124.65 673.54 129.81C673.04 132.13 673.37 134.64 673.47 137.06C673.51 138.07 673.93 139.06 674.13 140.07C674.92 143.99 673.56 145.89 669.66 146.52C663.7 147.48 657.69 148.25 651.8 149.57C643.89 151.34 636.1 153.61 628.24 155.57C622.88 156.9 617.47 158.07 612.08 159.31C602.81 161.44 593.4 162.91 584.3 165.85C576.71 168.3 568.93 170.25 561.13 171.93C552.47 173.79 543.72 175.28 534.95 176.58C525.92 177.91 516.82 178.66 507.78 179.94C499.9 181.05 492.05 182.45 484.22 183.9C479.92 184.7 475.7 185.87 471.44 186.85C465.87 188.14 460.62 190.21 455.82 193.36C453.91 194.62 452.08 194.7 450.03 193.62C441.23 188.96 431.91 185.56 422.5 182.41C407.59 177.41 392.93 171.78 378.55 165.39C360.89 157.55 343.21 149.78 325.54 141.97C323.77 141.19 322.06 140.28 320.32 139.44C318.21 138.44 316.18 137.51 313.68 138.55C312.84 138.9 311.34 138.41 310.48 137.82C307.72 135.93 305.06 133.89 302.46 131.78C299.72 129.56 297.84 126.84 296.69 123.33C294.85 117.69 290.35 113.89 285.6 110.82C280.75 107.69 275.45 105.23 270.2 102.78C267.58 101.56 265.18 100.21 263.25 98.05C254.7 88.45 244.74 80.54 234.03 73.5C227.02 68.89 220.81 63.27 214.44 57.83C207.69 52.07 200.38 46.97 193.4 41.49C189.56 38.47 185.78 35.36 182.15 32.09C177.3 27.73 171.88 24.3 166.01 21.58C157.71 17.74 149.36 14 140.93 10.44C137.39 8.95 133.63 7.96 129.93 6.86C121.17 4.25 112.39 1.71 103.63 -0.879997C99.9299 -1.98 96.1899 -2.99 92.5699 -4.31C84.4699 -7.25 75.8999 -7.52 67.5599 -9.02C61.4899 -10.11 55.3899 -11.04 49.2799 -11.87C40.8599 -13.02 32.4499 -14.23 24.3699 -16.93C15.7699 -19.79 7.80991 -23.93 0.159914 -28.83C-6.01009 -32.78 -12.6401 -36.02 -19.0701 -39.56C-22.0101 -41.18 -24.9301 -42.82 -27.9001 -44.36C-29.5901 -45.24 -30.3001 -46.51 -30.2701 -48.4C-30.2001 -53.04 -30.2401 -57.68 -30.2401 -62.32C-26.8901 -63.12 -23.5601 -64.11 -20.1701 -64.69C-13.4901 -65.82 -6.87009 -67.49 -0.0100861 -67.19C0.119913 -67.18 0.239916 -67.24 0.369915 -67.25C5.09991 -67.43 9.86992 -68.06 14.5699 -67.7C22.8399 -67.05 31.0599 -65.75 39.3099 -64.84C41.3599 -64.62 43.4599 -64.88 45.5399 -64.92C45.5599 -65.28 45.5799 -65.63 45.5999 -65.99C42.0299 -66.65 38.4899 -67.51 34.8899 -67.94C28.0399 -68.78 21.1699 -69.74 14.2799 -69.97C7.89991 -70.19 1.46991 -69.62 -4.92009 -69.21C-7.84009 -69.03 -10.7601 -68.49 -13.6501 -67.97C-19.1801 -66.96 -24.6901 -65.85 -30.2101 -64.78C-30.2201 -71.72 -30.2201 -78.67 -30.2301 -85.61C-29.8601 -85.82 -29.4901 -86.04 -29.1201 -86.25C-24.1401 -85.84 -19.1601 -85.38 -14.1701 -85.03C-11.7301 -84.86 -9.27009 -84.97 -6.83009 -84.84C2.66991 -84.35 12.1599 -83.82 21.6499 -83.3C27.2899 -82.99 32.9499 -82.77 38.5799 -82.37C43.5699 -82.02 48.5399 -81.36 53.5299 -81.04C60.5899 -80.6 67.6599 -80.42 74.7199 -80C80.0999 -79.68 85.4699 -79.17 90.8399 -78.75C94.5499 -78.46 98.2599 -78.12 101.98 -77.91C108.15 -77.56 114.32 -77.35 120.48 -76.98C126.88 -76.59 133.28 -76 139.68 -75.61C145.97 -75.22 152.27 -74.99 158.56 -74.65C166.9 -74.2 175.23 -73.69 183.57 -73.23C189.47 -72.91 195.38 -72.7 201.28 -72.29C206.01 -71.96 210.71 -71.27 215.43 -70.95C221.97 -70.51 228.53 -70.32 235.07 -69.93C241.34 -69.55 247.6 -69.02 253.87 -68.61C258.48 -68.31 263.11 -68.13 267.72 -67.83C275.66 -67.32 283.6 -66.74 291.54 -66.23C296.03 -65.94 300.53 -65.78 305.02 -65.5C313.09 -64.99 321.15 -64.43 329.21 -63.89C332.41 -63.67 335.61 -63.38 338.82 -63.21C345.11 -62.86 351.4 -62.63 357.68 -62.24C363.95 -61.85 370.2 -61.28 376.47 -60.89C382.88 -60.49 389.31 -60.27 395.72 -59.88C401.86 -59.5 407.99 -58.97 414.13 -58.55C418.87 -58.23 423.62 -58.02 428.36 -57.71C435.8 -57.23 443.23 -56.69 450.67 -56.21C455.28 -55.92 459.91 -55.74 464.52 -55.44C472.33 -54.94 480.14 -54.39 487.95 -53.85C491.53 -53.6 495.11 -53.29 498.69 -53.08C504.47 -52.75 510.25 -52.54 516.03 -52.17C522.17 -51.77 528.29 -51.17 534.43 -50.8C541.1 -50.39 547.79 -50.22 554.47 -49.8C559.84 -49.47 565.19 -48.91 570.56 -48.49C574.14 -48.21 577.73 -47.94 581.32 -47.73C587.1 -47.39 592.88 -47.17 598.65 -46.79C604.79 -46.39 610.92 -45.82 617.06 -45.43C623.22 -45.04 629.38 -44.83 635.54 -44.44C641.56 -44.06 647.56 -43.46 653.58 -43.1C660.38 -42.69 667.2 -42.5 674 -42.09C679.37 -41.76 684.73 -41.16 690.1 -40.82C696.77 -40.39 703.45 -40.16 710.12 -39.74C715.62 -39.39 721.12 -38.88 726.61 -38.46C730.19 -38.18 733.77 -37.89 737.36 -37.67C742.75 -37.35 748.14 -37.14 753.53 -36.79C760.19 -36.36 766.84 -35.78 773.51 -35.35C779.28 -34.98 785.06 -34.77 790.83 -34.39C797.1 -33.98 803.37 -33.39 809.64 -33C815.93 -32.61 822.23 -32.37 828.52 -32.05C829.27 -32.01 830.01 -31.91 831.02 -31.81C831.02 -28.45 831.02 -25.26 831.02 -22.08C827.73 -22.29 824.43 -22.51 821.14 -22.71C818.36 -22.88 815.7 -22.67 813.04 -20.04C814.98 -19.66 816.28 -19.22 817.61 -19.17C822.06 -19.02 826.53 -18.99 830.99 -18.92ZM444.78 128.96C438.53 129.44 432.29 129.99 426.04 130.38C420.16 130.75 414.27 131.04 408.38 131.24C404.65 131.37 400.92 131.24 397.19 131.28C396.4 131.29 395.62 131.54 394.84 131.68C394.84 131.97 394.84 132.25 394.85 132.54C396.02 132.63 397.2 132.83 398.37 132.8C409.15 132.54 419.93 132.36 430.7 131.9C435.66 131.69 440.6 130.89 445.54 130.35C450 129.93 454.47 129.61 458.91 129.07C464.62 128.37 470.29 127.17 476.02 126.76C484.61 126.16 493.23 125.92 501.84 125.8C512.8 125.65 523.76 125.76 534.71 125.76C535.74 125.76 536.78 125.79 537.8 125.72C544.19 125.27 550.58 124.77 556.98 124.34C562.49 123.97 568.01 123.75 573.52 123.35C578.76 122.97 583.98 122.28 589.22 122.03C598.47 121.59 607.73 121.38 616.99 121.05C617.54 121.03 618.08 120.78 618.63 120.63C613.91 118.26 609.02 117.94 604.07 118.22C597.41 118.6 590.77 119.13 584.11 119.58C575.52 120.15 566.93 120.69 558.34 121.27C550.92 121.77 543.5 122.63 536.07 122.77C517.69 123.12 499.27 122.17 480.93 124.25C476.35 124.77 471.77 125.27 467.19 125.79C462.23 126.36 457.25 126.88 452.3 127.54C449.77 127.9 447.28 128.49 444.78 128.96ZM112.57 -46.15C112.52 -45.92 112.46 -45.69 112.41 -45.46C112.81 -45.21 113.19 -44.82 113.62 -44.73C121.66 -43.13 129.7 -41.48 137.77 -40.01C145.46 -38.61 153.17 -37.34 160.89 -36.12C164.94 -35.48 169.01 -34.82 173.09 -34.65C180.04 -34.36 187.01 -34.35 193.98 -34.42C215.22 -34.62 236.46 -34.94 257.65 -33C264.42 -32.38 271.2 -31.89 277.99 -31.59C288.14 -31.15 298.31 -30.84 308.47 -30.66C316.59 -30.51 324.72 -30.58 332.85 -30.66C335.28 -30.68 337.71 -31.16 340.14 -31.21C344.39 -31.3 348.66 -31.45 352.89 -31.14C359.02 -30.69 365.12 -29.91 371.22 -29.16C376.81 -28.47 382.37 -27.34 387.97 -26.94C396.17 -26.36 404.41 -26.22 412.63 -25.96C415.72 -25.86 418.82 -25.87 421.92 -25.96C429.12 -26.15 436.32 -26.43 443.53 -26.65C444.56 -26.68 445.59 -26.59 446.61 -26.51C448.66 -26.34 450.71 -26.18 452.74 -25.94C458.46 -25.27 464.24 -24.88 469.88 -23.79C483.97 -21.08 497.74 -16.64 512.31 -16.51C520 -16.44 527.68 -15.46 535.37 -15.24C543.59 -15.01 551.82 -15.19 560.05 -15.19C558.87 -16.17 557.58 -16.58 556.27 -16.66C554.09 -16.8 551.88 -16.63 549.7 -16.77C543.3 -17.17 536.92 -17.75 530.52 -18.1C523.08 -18.5 515.6 -18.48 508.18 -19.11C502.19 -19.62 496.23 -20.65 490.31 -21.75C481.87 -23.31 473.47 -25.16 465.05 -26.85C462.54 -27.35 460.02 -28.05 457.48 -28.13C450.14 -28.35 442.78 -28.31 435.43 -28.34C419.1 -28.41 402.73 -27.22 386.46 -29.81C381.02 -30.68 375.55 -31.39 370.08 -32.03C364.86 -32.64 359.63 -33.47 354.4 -33.52C335.06 -33.7 315.71 -33.58 296.37 -33.6C292.37 -33.6 288.36 -33.55 284.38 -33.85C276.97 -34.41 269.6 -35.49 262.18 -35.86C251.13 -36.41 240.05 -36.75 228.99 -36.79C218.18 -36.82 207.37 -36.22 196.56 -36.18C189.11 -36.15 181.64 -36.43 174.2 -36.91C167.94 -37.31 161.69 -38.08 155.47 -38.92C150.26 -39.62 145.1 -40.63 139.92 -41.53C132.1 -42.9 124.28 -44.31 116.45 -45.68C115.19 -45.87 113.88 -45.98 112.57 -46.15ZM376.25 21.61C376.26 21.89 376.27 22.16 376.29 22.44C377.01 22.55 377.73 22.78 378.44 22.73C381.25 22.55 384.06 22.34 386.87 22.04C391.2 21.58 395.52 21.02 399.85 20.55C404.82 20 409.78 19.4 414.76 19C420.27 18.56 425.79 18.37 431.3 17.98C436.8 17.6 442.28 17 447.78 16.69C454.04 16.33 460.31 16.2 466.58 15.92C477.88 15.42 489.18 14.97 500.46 14.31C507.21 13.92 513.94 13.19 520.68 12.56C528.21 11.85 535.72 11.03 543.25 10.37C547.47 10 551.81 10.34 555.9 9.47C561.77 8.22 567.45 9.53 573.18 9.82C581.36 10.25 589.51 11.63 597.69 11.88C606.16 12.13 614.65 11.4 623.14 11.32C628.69 11.26 634.15 10.64 639.59 9.64C641.83 9.23 644.08 8.8 646.32 8.38C646.28 8.09 646.24 7.8 646.2 7.5C643.66 7.5 641.11 7.36 638.58 7.53C633.21 7.88 627.86 8.58 622.49 8.8C616.05 9.07 609.6 9.04 603.15 9.03C598.64 9.03 594.11 9.06 589.62 8.71C582.73 8.16 575.87 6.97 568.98 6.64C562.04 6.31 555.05 6.43999 548.11 6.84C540.31 7.3 532.54 8.25999 524.77 9.06C521.71 9.37 518.68 9.88 515.62 10.22C510.27 10.81 504.93 11.55 499.57 11.84C490.58 12.33 481.58 12.51 472.58 12.82C472.32 12.83 472.06 12.83 471.81 12.85C465.42 13.31 459.03 13.85 452.64 14.22C445.45 14.63 438.25 14.77 431.07 15.21C424.67 15.6 418.29 16.25 411.9 16.79C411.51 16.82 411.13 16.83 410.74 16.88C403.51 17.86 396.27 18.84 389.04 19.83C384.76 20.42 380.5 21.02 376.25 21.61ZM249.05 71.77C249.15 72.16 249.26 72.55 249.36 72.95C250.32 72.95 251.31 73.11 252.24 72.92C256.01 72.14 259.78 71.37 263.5 70.39C272.62 67.99 281.96 67.28 291.31 67.07C298.5 66.91 305.7 67.5 312.89 67.68C316.24 67.77 319.59 67.77 322.93 67.66C324.97 67.59 326.99 67.25 329.03 67.03C331.45 66.77 333.86 66.42 336.28 66.29C339.36 66.12 342.48 66.32 345.54 66.01C348.9 65.67 352.32 65.34 355.37 63.29C354.19 62.75 353.01 62.46 351.84 62.47C343.37 62.58 334.93 61.87 326.42 63C319.07 63.98 311.54 63.69 304.09 63.82C297.91 63.93 291.72 63.71 285.54 63.9C281.45 64.03 277.3 64.26 273.31 65.09C266.15 66.57 259.09 68.49 252.01 70.31C250.96 70.6 250.03 71.28 249.05 71.77ZM737.46 -25.35C737.47 -25.62 737.48 -25.9 737.49 -26.17C733.85 -26.6 730.23 -27.22 726.58 -27.41C718.49 -27.82 710.38 -28.23 702.29 -28.22C693.81 -28.21 685.32 -27.79 676.84 -27.38C669.91 -27.05 663 -26.35 656.07 -26.08C653.01 -25.96 649.92 -26.55 646.85 -26.72C638.14 -27.22 629.42 -27.91 620.7 -28.1C609.74 -28.34 598.78 -28.17 587.82 -28.13C587.22 -28.13 586.63 -27.69 586.03 -27.46C587.14 -26.83 588.14 -26.68 589.14 -26.69C600.33 -26.79 611.48 -26.35 622.65 -25.36C631.86 -24.55 641.15 -24.39 650.41 -24.39C662.51 -24.4 674.6 -24.06 686.71 -25.08C694.09 -25.7 701.6 -24.67 709.06 -24.57C717.31 -24.45 725.56 -24.5 733.81 -24.57C735.03 -24.58 736.24 -25.07 737.46 -25.35ZM209.46 41.9C210.32 38.22 212.86 37.06 215.54 36.07C221.45 33.89 227.46 32.22 233.66 30.94C243.25 28.97 253.02 28.88 262.65 27.49C268.23 26.69 273.85 26.25 279.45 25.58C284.15 25.01 288.81 23.99 293.52 23.76C304.31 23.24 315.12 23.21 325.91 22.73C331.4 22.48 336.92 21.95 342.33 21.02C345.75 20.43 349.08 19.05 352.02 16.87C349.83 16.97 347.77 17.51 345.68 17.92C340.92 18.84 336.17 20.09 331.36 20.46C323.68 21.05 315.95 20.99 308.25 21.27C301.96 21.5 295.67 21.78 289.39 22.13C286.06 22.31 282.74 22.62 279.43 23.01C269.39 24.19 259.38 25.83 249.31 26.55C238.45 27.32 227.95 29.45 217.74 33.03C214.75 34.08 211.95 35.8 209.27 37.54C207.41 38.72 207.54 39.6 209.46 41.9ZM327.93 108.25C330.08 107.32 331.92 106.11 333.92 105.75C338.07 105 342.3 104.67 346.5 104.24C354.54 103.43 362.57 102.57 370.62 101.95C373.28 101.74 376 102.08 378.67 102.4C384.75 103.13 390.78 104.21 396.97 103.15C402.4 102.22 407.89 101.7 413.35 100.96C417.8 100.36 422.24 99.72 426.67 99.04C427.34 98.94 427.96 98.53 428.61 98.27C424.01 97.09 419.4 97.07 414.88 97.49C407.23 98.21 399.63 99.45 391.99 100.31C389.84 100.55 387.63 100.16 385.44 100.13C377.85 100 370.22 99.33 362.7 99.95C354.42 100.64 346.25 102.47 337.88 102.79C334.85 102.91 331.71 103.33 329.06 105.17C327.86 106 326.79 106.92 327.93 108.25ZM595.84 60.84C595.89 60.44 595.95 60.04 596 59.64C593.2 59.02 590.42 58.27 587.59 57.81C585.2 57.42 582.73 57.03 580.35 57.23C575.01 57.68 569.71 58.62 564.37 59.15C555.58 60.03 546.76 60.59 537.98 61.57C529.96 62.46 521.99 63.71 514 64.88C513.39 64.97 512.87 65.74 512.31 66.19C513.64 66.89 514.66 67 515.64 66.87C524.02 65.81 532.38 64.63 540.76 63.66C547.61 62.86 554.49 62.25 561.37 61.63C567.49 61.08 573.62 60.59 579.75 60.15C581.15 60.05 582.56 60.25 583.97 60.31C587.93 60.48 591.88 60.66 595.84 60.84ZM84.8499 -35.72C84.8799 -36.06 84.9099 -36.4 84.9399 -36.75C83.3899 -38.32 81.3399 -38.33 79.3099 -38.44C75.0699 -38.68 70.8299 -38.86 66.6099 -39.21C58.3099 -39.9 50.0099 -40.71 41.7099 -41.42C39.7899 -41.58 37.8399 -41.42 35.9199 -41.62C29.6799 -42.26 23.4499 -43.02 17.2199 -43.67C16.6099 -43.73 15.9599 -43.42 15.1099 -43.24C16.5399 -40.95 18.7199 -41.01 20.4599 -40.81C28.5999 -39.84 36.7699 -39.08 44.9399 -38.38C52.6099 -37.73 60.2999 -37.26 67.9699 -36.71C68.0999 -36.7 68.2299 -36.68 68.3499 -36.67C73.8499 -36.35 79.3499 -36.03 84.8499 -35.72ZM540.89 159.59C540.93 159.24 540.98 158.88 541.02 158.53C535.48 156.88 529.71 157.96 524.06 157.71C518.15 157.45 512.21 157.55 506.29 157.81C500.54 158.06 494.78 158.48 489.08 159.24C483.34 160 477.41 159.95 471.76 162.24C472.82 165.14 474.75 164.57 476.6 163.99C480.67 162.7 484.83 162.04 489.11 162.09C490 162.1 490.89 161.88 491.78 161.79C497.37 161.18 502.95 160.24 508.56 160.05C518.21 159.71 527.87 159.85 537.53 159.77C538.65 159.73 539.77 159.64 540.89 159.59ZM225.18 0.75C225.17 0.470001 225.15 0.190002 225.14 -0.0999985C224.16 -0.18 223.17 -0.309998 222.19 -0.32C213.35 -0.339996 204.54 -0.290001 195.73 0.959999C189.79 1.82 183.71 1.71 177.7 2C176.11 2.08 174.43 1.83 173.07 3.97C174.6 4.09 175.68 4.3 176.76 4.25C181.75 4.02 186.73 3.7 191.72 3.47C194.29 3.35 196.87 3.50999 199.43 3.31C207.45 2.66 215.46 1.91 223.48 1.18C224.05 1.13 224.61 0.900002 225.18 0.75ZM694.38 51.89C694.32 51.54 694.26 51.18 694.21 50.83C690.9 50.83 687.58 50.65 684.29 50.87C678.8 51.24 673.29 51.65 667.84 52.43C662.4 53.21 657.01 54.39 651.63 55.54C650.38 55.81 648.91 56.26 648.45 58.36C649.83 58.06 650.91 57.78 651.99 57.61C658.43 56.6 664.86 55.41 671.34 54.67C676.69 54.06 682.11 54.13 687.48 53.62C689.81 53.4 692.08 52.48 694.38 51.89ZM696.51 17.02C696.67 17.29 696.84 17.56 697 17.83C698.62 17.73 700.27 17.44 701.87 17.57C706.08 17.91 710.27 18.41 714.47 18.9C717.78 19.28 721.07 19.77 724.38 20.15C728.14 20.58 731.86 21.86 735.73 20.83C734.66 20.33 733.58 19.94 732.47 19.8C729.54 19.42 726.59 19.24 723.68 18.82C717.09 17.88 710.53 16.79 703.94 15.88C702.29 15.65 700.58 15.71 698.92 15.89C698.09 15.98 697.31 16.62 696.51 17.02Z" fill="#357BBF"/>
<path d="M376.25 21.6102C380.51 21.0202 384.77 20.4202 389.03 19.8402C396.26 18.8502 403.5 17.8702 410.73 16.8902C411.11 16.8402 411.5 16.8302 411.89 16.8002C418.28 16.2702 424.66 15.6202 431.06 15.2202C438.24 14.7802 445.45 14.6402 452.63 14.2302C459.03 13.8702 465.41 13.3302 471.8 12.8602C472.06 12.8402 472.32 12.8402 472.57 12.8302C481.57 12.5202 490.57 12.3402 499.56 11.8502C504.92 11.5602 510.27 10.8202 515.61 10.2302C518.66 9.89024 521.7 9.39024 524.76 9.07024C532.54 8.27024 540.31 7.30024 548.1 6.85024C555.04 6.44024 562.03 6.32024 568.97 6.65024C575.87 6.98024 582.72 8.17024 589.61 8.72024C594.1 9.08024 598.63 9.04024 603.14 9.04024C609.59 9.04024 616.04 9.07024 622.48 8.81024C627.85 8.59024 633.2 7.89024 638.57 7.54024C641.1 7.37024 643.65 7.51024 646.19 7.51024C646.23 7.80024 646.27 8.09024 646.31 8.39024C644.07 8.81024 641.82 9.23024 639.58 9.65024C634.14 10.6502 628.68 11.2702 623.13 11.3302C614.64 11.4202 606.15 12.1502 597.68 11.8902C589.5 11.6502 581.36 10.2602 573.17 9.83024C567.44 9.53024 561.76 8.22024 555.89 9.48024C551.8 10.3502 547.45 10.0102 543.24 10.3802C535.71 11.0502 528.2 11.8702 520.67 12.5702C513.93 13.2002 507.2 13.9202 500.45 14.3202C489.16 14.9802 477.86 15.4202 466.57 15.9302C460.31 16.2102 454.03 16.3402 447.77 16.7002C442.27 17.0202 436.79 17.6102 431.29 17.9902C425.78 18.3802 420.25 18.5702 414.75 19.0102C409.77 19.4102 404.81 20.0102 399.84 20.5602C395.51 21.0402 391.19 21.5902 386.86 22.0502C384.06 22.3502 381.25 22.5602 378.43 22.7402C377.72 22.7902 376.99 22.5502 376.28 22.4502C376.27 22.1602 376.26 21.8902 376.25 21.6102Z" fill="#5BBDD7"/>
<path d="M209.46 41.8998C207.54 39.6098 207.41 38.7198 209.27 37.5098C211.95 35.7698 214.75 34.0498 217.74 32.9998C227.95 29.4198 238.45 27.2898 249.31 26.5198C259.38 25.8098 269.39 24.1598 279.43 22.9798C282.74 22.5898 286.06 22.2898 289.39 22.0998C295.67 21.7498 301.96 21.4698 308.25 21.2398C315.95 20.9598 323.68 21.0098 331.36 20.4298C336.17 20.0598 340.92 18.8098 345.68 17.8898C347.77 17.4898 349.84 16.9398 352.02 16.8398C349.08 19.0198 345.75 20.3998 342.33 20.9898C336.92 21.9198 331.4 22.4598 325.91 22.6998C315.12 23.1898 304.31 23.2098 293.52 23.7298C288.81 23.9598 284.14 24.9798 279.45 25.5498C273.85 26.2298 268.23 26.6598 262.65 27.4598C253.02 28.8498 243.25 28.9398 233.66 30.9098C227.46 32.1898 221.44 33.8598 215.54 36.0398C212.87 37.0598 210.32 38.2198 209.46 41.8998Z" fill="#58BAD6"/>
<path d="M225.18 0.749901C224.61 0.899901 224.06 1.1299 223.48 1.1799C215.47 1.9099 207.45 2.6699 199.43 3.3099C196.87 3.5199 194.29 3.3599 191.72 3.4699C186.73 3.6999 181.75 4.0199 176.76 4.2499C175.68 4.2999 174.6 4.0899 173.07 3.9699C174.43 1.8299 176.11 2.0699 177.7 1.9999C183.71 1.7099 189.79 1.8099 195.72 0.969901C204.53 -0.280099 213.34 -0.330099 222.18 -0.310099C223.16 -0.310099 224.15 -0.170099 225.13 -0.0900995C225.15 0.189901 225.16 0.469901 225.18 0.749901Z" fill="#57B8D6"/>
<path d="M694.38 51.8901C692.08 52.4901 689.81 53.4001 687.48 53.6201C682.11 54.1301 676.69 54.0601 671.34 54.6701C664.86 55.4101 658.44 56.5901 651.99 57.6101C650.9 57.7801 649.83 58.0601 648.45 58.3601C648.91 56.2601 650.38 55.8101 651.63 55.5401C657.01 54.3901 662.4 53.2101 667.84 52.4301C673.29 51.6501 678.79 51.2401 684.29 50.8701C687.58 50.6501 690.9 50.8301 694.21 50.8301C694.27 51.1801 694.32 51.5301 694.38 51.8901Z" fill="#5ABCD6"/>
<path d="M696.51 17.0198C697.31 16.6298 698.09 15.9798 698.92 15.8898C700.58 15.7098 702.3 15.6498 703.94 15.8798C710.53 16.7998 717.1 17.8798 723.68 18.8198C726.6 19.2398 729.55 19.4198 732.47 19.7998C733.58 19.9398 734.66 20.3298 735.73 20.8298C731.86 21.8498 728.14 20.5798 724.38 20.1498C721.07 19.7698 717.78 19.2798 714.47 18.8998C710.27 18.4098 706.08 17.9198 701.87 17.5698C700.26 17.4398 698.62 17.7298 697 17.8298C696.84 17.5598 696.68 17.2898 696.51 17.0198Z" fill="#4EAFD4"/>
<path d="M-339.71 194.41C-339.71 182.56 -339.71 170.72 -339.71 158.65C-338.75 158.54 -337.86 158.24 -337.04 158.38C-330.75 159.46 -324.52 159.33 -318.26 157.97C-315.25 157.31 -312.15 156.96 -309.07 156.83C-301.13 156.49 -293.84 158.66 -287.17 162.98C-286.11 163.66 -284.9 164.29 -283.68 164.52C-275.94 166.03 -268.82 165.04 -262.9 159.23C-259.32 155.72 -255.64 152.38 -253.46 147.63C-252.01 144.47 -249.56 141.92 -246.47 140.04C-242.74 137.77 -239.92 134.59 -238.09 130.64C-235.93 125.96 -233.98 121.19 -231.85 116.5C-230.74 114.05 -229.5 111.65 -228.2 109.3C-227.2 107.5 -225.83 105.9 -224.91 104.07C-221.55 97.4201 -216.04 93.5301 -209.1 91.3901C-199.33 88.3801 -194.79 81.0301 -192.79 71.6201C-192.58 70.6401 -192.55 69.5001 -192.83 68.5401C-193.91 64.8001 -192.1 62.0801 -189.91 59.4401C-189.83 59.3401 -189.74 59.2401 -189.64 59.1701C-184.82 55.9701 -183.37 50.8401 -182.26 45.6801C-181.76 43.3601 -182.09 40.8501 -182.19 38.4301C-182.23 37.4201 -182.65 36.4301 -182.85 35.4201C-183.64 31.5001 -182.28 29.6001 -178.38 28.9701C-172.42 28.0101 -166.41 27.2401 -160.52 25.9201C-152.61 24.1501 -144.82 21.8801 -136.96 19.9201C-131.59 18.5901 -126.19 17.4201 -120.8 16.1801C-111.53 14.0501 -102.12 12.5801 -93.02 9.64006C-85.43 7.19006 -77.65 5.24006 -69.85 3.56006C-61.19 1.70006 -52.44 0.210062 -43.67 -1.08994C-34.64 -2.41994 -25.54 -3.16994 -16.5 -4.44994C-8.59998 -5.55994 -0.759979 -6.94994 7.08002 -8.39994C11.38 -9.19994 15.6 -10.3699 19.86 -11.3499C25.4301 -12.6399 30.6801 -14.7099 35.48 -17.8599C37.39 -19.1199 39.22 -19.1999 41.27 -18.1199C50.07 -13.4599 59.39 -10.0599 68.8 -6.90994C83.7101 -1.90994 98.37 3.72006 112.75 10.1101C130.41 17.9501 148.09 25.7201 165.76 33.5301C167.53 34.3101 169.24 35.2201 170.98 36.0601C173.09 37.0601 175.12 37.9901 177.62 36.9501C178.46 36.6001 179.96 37.0901 180.82 37.6801C183.58 39.5701 186.24 41.6101 188.84 43.7201C191.58 45.9401 193.46 48.6601 194.61 52.1701C196.45 57.8101 200.95 61.6101 205.7 64.6801C210.55 67.8101 215.85 70.2701 221.1 72.7201C223.72 73.9401 226.12 75.2901 228.05 77.4501C236.6 87.0501 246.56 94.9601 257.27 102C264.28 106.61 270.49 112.23 276.86 117.67C283.61 123.43 290.92 128.53 297.9 134.01C301.74 137.03 305.52 140.14 309.15 143.41C314 147.77 319.42 151.2 325.29 153.92C333.59 157.76 341.94 161.5 350.37 165.06C353.91 166.55 357.67 167.54 361.37 168.64C370.13 171.25 378.91 173.79 387.67 176.38C391.37 177.48 395.11 178.49 398.73 179.81C406.81 182.76 415.38 183.03 423.72 184.52C429.79 185.61 435.89 186.54 442 187.37C450.42 188.52 458.83 189.73 466.91 192.43C475.51 195.29 483.47 199.43 491.12 204.33C497.29 208.28 503.92 211.52 510.35 215.06C513.29 216.68 516.21 218.32 519.18 219.86C520.87 220.74 521.58 222.01 521.55 223.9C521.48 228.54 521.52 233.18 521.52 237.82C518.17 238.62 514.84 239.61 511.45 240.19C504.77 241.32 498.15 242.99 491.29 242.69C491.16 242.68 491.04 242.74 490.91 242.75C486.18 242.93 481.41 243.56 476.71 243.2C468.44 242.55 460.22 241.25 451.97 240.34C449.92 240.12 447.82 240.38 445.74 240.42C445.72 240.78 445.7 241.13 445.68 241.49C449.25 242.15 452.79 243.01 456.39 243.44C463.24 244.28 470.11 245.24 477 245.47C483.39 245.69 489.81 245.12 496.21 244.71C499.13 244.53 502.05 243.99 504.94 243.47C510.47 242.46 515.98 241.35 521.5 240.28C521.51 247.22 521.51 254.17 521.52 261.11C521.15 261.32 520.78 261.54 520.41 261.75C515.43 261.34 510.45 260.88 505.46 260.53C503.02 260.36 500.56 260.47 498.12 260.34C488.62 259.85 479.13 259.32 469.64 258.8C464 258.49 458.34 258.27 452.71 257.87C447.72 257.52 442.75 256.86 437.76 256.54C430.7 256.1 423.63 255.92 416.57 255.5C411.19 255.18 405.82 254.67 400.45 254.25C396.74 253.96 393.03 253.62 389.31 253.41C383.14 253.06 376.97 252.85 370.81 252.48C364.41 252.09 358.01 251.5 351.61 251.11C345.32 250.72 339.02 250.49 332.73 250.15C324.39 249.7 316.06 249.19 307.72 248.73C301.82 248.41 295.91 248.2 290.01 247.79C285.28 247.46 280.58 246.77 275.86 246.45C269.32 246.01 262.76 245.82 256.22 245.43C249.95 245.05 243.69 244.52 237.42 244.11C232.81 243.81 228.18 243.63 223.57 243.33C215.63 242.82 207.69 242.24 199.75 241.73C195.26 241.44 190.76 241.28 186.27 241C178.2 240.49 170.14 239.93 162.08 239.39C158.88 239.17 155.68 238.88 152.47 238.71C146.18 238.36 139.89 238.13 133.61 237.74C127.34 237.35 121.09 236.78 114.82 236.39C108.41 235.99 101.98 235.77 95.57 235.38C89.43 235 83.3 234.47 77.16 234.05C72.42 233.73 67.67 233.52 62.93 233.21C55.49 232.73 48.06 232.19 40.62 231.71C36.01 231.42 31.38 231.24 26.77 230.94C18.96 230.44 11.15 229.89 3.34003 229.35C-0.23996 229.1 -3.81998 228.79 -7.39996 228.58C-13.18 228.25 -18.96 228.04 -24.74 227.67C-30.88 227.27 -36.9999 226.67 -43.14 226.3C-49.81 225.89 -56.5 225.72 -63.18 225.3C-68.55 224.97 -73.9 224.41 -79.27 223.99C-82.8499 223.71 -86.44 223.44 -90.03 223.23C-95.81 222.89 -101.59 222.67 -107.36 222.29C-113.5 221.89 -119.63 221.32 -125.77 220.93C-131.93 220.54 -138.09 220.33 -144.25 219.94C-150.27 219.56 -156.27 218.96 -162.29 218.6C-169.09 218.19 -175.91 218 -182.71 217.59C-188.08 217.26 -193.44 216.66 -198.81 216.32C-205.48 215.89 -212.16 215.66 -218.83 215.24C-224.33 214.89 -229.83 214.38 -235.32 213.96C-238.9 213.68 -242.48 213.39 -246.07 213.17C-251.46 212.85 -256.85 212.64 -262.24 212.29C-268.9 211.86 -275.55 211.28 -282.22 210.85C-287.99 210.48 -293.77 210.27 -299.54 209.89C-305.81 209.48 -312.08 208.89 -318.35 208.5C-324.64 208.11 -330.94 207.87 -337.23 207.55C-337.98 207.51 -338.72 207.41 -339.73 207.31C-339.73 203.95 -339.73 200.76 -339.73 197.58C-336.44 197.79 -333.14 198.01 -329.85 198.21C-327.07 198.38 -324.41 198.17 -321.75 195.54C-323.69 195.16 -324.99 194.72 -326.32 194.67C-330.78 194.51 -335.24 194.49 -339.71 194.41ZM46.5 46.5301C52.75 46.0501 58.99 45.5001 65.24 45.1101C71.12 44.7401 77.01 44.4501 82.9 44.2501C86.63 44.1201 90.36 44.2501 94.09 44.2101C94.88 44.2001 95.66 43.9501 96.44 43.8101C96.44 43.5201 96.44 43.2401 96.43 42.9501C95.26 42.8601 94.08 42.6601 92.91 42.6901C82.13 42.9501 71.35 43.1301 60.58 43.5901C55.62 43.8001 50.68 44.6001 45.74 45.1401C41.28 45.5601 36.81 45.8801 32.37 46.4201C26.66 47.1201 20.9901 48.3201 15.26 48.7301C6.67004 49.3301 -1.94998 49.5701 -10.56 49.6901C-21.52 49.8401 -32.4799 49.7301 -43.43 49.7301C-44.46 49.7301 -45.5 49.7001 -46.52 49.7701C-52.91 50.2201 -59.3 50.7201 -65.7 51.1501C-71.21 51.5201 -76.7299 51.7401 -82.24 52.1401C-87.48 52.5201 -92.7 53.2101 -97.94 53.4601C-107.19 53.9001 -116.45 54.1101 -125.71 54.4401C-126.26 54.4601 -126.8 54.7101 -127.35 54.8601C-122.63 57.2301 -117.74 57.5501 -112.79 57.2701C-106.13 56.8901 -99.49 56.3601 -92.83 55.9101C-84.24 55.3401 -75.65 54.8001 -67.06 54.2201C-59.64 53.7201 -52.22 52.8601 -44.79 52.7201C-26.41 52.3701 -7.98996 53.3201 10.35 51.2401C14.93 50.7201 19.51 50.2201 24.09 49.7001C29.05 49.1301 34.03 48.6101 38.98 47.9501C41.51 47.6001 44 47.0101 46.5 46.5301ZM378.71 221.64C378.76 221.41 378.82 221.18 378.87 220.95C378.47 220.7 378.09 220.31 377.66 220.22C369.62 218.62 361.58 216.97 353.51 215.5C345.82 214.1 338.11 212.83 330.39 211.61C326.34 210.97 322.27 210.31 318.19 210.14C311.24 209.85 304.27 209.84 297.3 209.91C276.06 210.11 254.82 210.43 233.63 208.49C226.86 207.87 220.08 207.38 213.29 207.08C203.14 206.64 192.97 206.33 182.81 206.15C174.69 206 166.56 206.07 158.43 206.15C156 206.17 153.57 206.65 151.14 206.7C146.89 206.79 142.62 206.94 138.39 206.63C132.26 206.18 126.16 205.4 120.06 204.65C114.47 203.96 108.91 202.83 103.31 202.43C95.11 201.85 86.87 201.71 78.65 201.45C75.56 201.35 72.4601 201.36 69.36 201.45C62.16 201.64 54.96 201.92 47.75 202.14C46.72 202.17 45.69 202.08 44.67 202C42.6201 201.83 40.57 201.67 38.54 201.43C32.82 200.76 27.04 200.37 21.4 199.28C7.31003 196.57 -6.45996 192.13 -21.03 192C-28.72 191.93 -36.4 190.95 -44.09 190.73C-52.31 190.5 -60.5399 190.68 -68.77 190.68C-67.59 191.66 -66.3 192.07 -64.99 192.15C-62.81 192.29 -60.6 192.12 -58.42 192.26C-52.02 192.66 -45.64 193.24 -39.24 193.59C-31.8 193.99 -24.32 193.97 -16.9 194.6C-10.91 195.11 -4.94998 196.14 0.970032 197.24C9.41003 198.8 17.81 200.65 26.23 202.34C28.7401 202.84 31.26 203.54 33.8 203.62C41.14 203.84 48.5 203.8 55.85 203.83C72.18 203.9 88.55 202.71 104.82 205.3C110.26 206.17 115.73 206.88 121.2 207.52C126.42 208.13 131.65 208.96 136.88 209.01C156.22 209.19 175.57 209.07 194.91 209.09C198.91 209.09 202.92 209.04 206.9 209.34C214.31 209.9 221.68 210.98 229.1 211.35C240.15 211.9 251.23 212.24 262.29 212.28C273.1 212.31 283.91 211.71 294.72 211.67C302.17 211.64 309.64 211.92 317.08 212.4C323.34 212.8 329.59 213.57 335.81 214.41C341.02 215.11 346.18 216.12 351.36 217.02C359.18 218.39 367 219.8 374.83 221.17C376.09 221.36 377.41 221.48 378.71 221.64ZM115.04 153.89C115.03 153.61 115.02 153.34 115 153.06C114.28 152.95 113.56 152.72 112.85 152.77C110.04 152.95 107.23 153.16 104.42 153.46C100.09 153.92 95.77 154.48 91.44 154.95C86.47 155.5 81.51 156.1 76.53 156.49C71.02 156.93 65.5 157.12 59.99 157.51C54.49 157.89 49.01 158.49 43.51 158.8C37.25 159.16 30.98 159.29 24.71 159.57C13.41 160.07 2.11002 160.52 -9.16998 161.18C-15.92 161.57 -22.65 162.3 -29.39 162.93C-36.92 163.64 -44.43 164.46 -51.96 165.12C-56.18 165.49 -60.52 165.15 -64.61 166.02C-70.48 167.27 -76.1599 165.96 -81.89 165.67C-90.0699 165.24 -98.22 163.86 -106.4 163.61C-114.87 163.36 -123.36 164.09 -131.85 164.17C-137.4 164.23 -142.86 164.85 -148.3 165.85C-150.54 166.26 -152.79 166.69 -155.03 167.11C-154.99 167.4 -154.95 167.69 -154.91 167.99C-152.37 167.99 -149.82 168.13 -147.29 167.96C-141.92 167.61 -136.57 166.91 -131.2 166.69C-124.76 166.42 -118.31 166.45 -111.86 166.46C-107.35 166.46 -102.82 166.43 -98.33 166.78C-91.44 167.33 -84.58 168.52 -77.69 168.85C-70.75 169.18 -63.76 169.05 -56.82 168.65C-49.02 168.19 -41.25 167.23 -33.48 166.43C-30.42 166.12 -27.39 165.61 -24.33 165.27C-18.9799 164.68 -13.64 163.94 -8.27997 163.65C0.710022 163.16 9.71002 162.98 18.71 162.67C18.97 162.66 19.23 162.66 19.48 162.64C25.8701 162.18 32.26 161.64 38.65 161.27C45.84 160.86 53.04 160.72 60.22 160.28C66.62 159.89 73 159.24 79.39 158.7C79.78 158.67 80.16 158.66 80.55 158.61C87.7801 157.63 95.02 156.65 102.25 155.66C106.52 155.07 110.78 154.48 115.04 153.89ZM242.23 103.72C242.13 103.33 242.02 102.94 241.92 102.54C240.96 102.54 239.97 102.38 239.04 102.57C235.27 103.35 231.5 104.12 227.78 105.1C218.66 107.5 209.32 108.21 199.97 108.42C192.78 108.58 185.58 107.99 178.39 107.81C175.04 107.72 171.69 107.72 168.35 107.83C166.31 107.9 164.29 108.24 162.25 108.46C159.83 108.72 157.42 109.07 155 109.2C151.92 109.37 148.8 109.17 145.74 109.48C142.38 109.82 138.96 110.15 135.91 112.2C137.09 112.74 138.27 113.03 139.44 113.02C147.91 112.91 156.35 113.62 164.86 112.49C172.21 111.51 179.74 111.8 187.19 111.67C193.37 111.56 199.56 111.78 205.74 111.59C209.83 111.46 213.98 111.23 217.97 110.4C225.13 108.92 232.19 107 239.27 105.18C240.32 104.9 241.25 104.21 242.23 103.72ZM-246.18 200.84C-246.19 201.11 -246.2 201.39 -246.21 201.66C-242.57 202.09 -238.95 202.71 -235.3 202.9C-227.21 203.31 -219.1 203.72 -211.01 203.71C-202.53 203.7 -194.04 203.28 -185.56 202.87C-178.63 202.54 -171.72 201.84 -164.79 201.57C-161.73 201.45 -158.64 202.04 -155.57 202.21C-146.86 202.71 -138.14 203.4 -129.42 203.59C-118.46 203.83 -107.5 203.66 -96.54 203.62C-95.94 203.62 -95.35 203.18 -94.75 202.95C-95.86 202.32 -96.86 202.17 -97.86 202.18C-109.05 202.28 -120.2 201.84 -131.37 200.85C-140.58 200.04 -149.87 199.88 -159.13 199.88C-171.23 199.89 -183.32 199.55 -195.43 200.57C-202.81 201.19 -210.32 200.16 -217.78 200.06C-226.03 199.94 -234.28 199.99 -242.53 200.06C-243.75 200.07 -244.96 200.57 -246.18 200.84ZM281.82 133.6C280.96 137.28 278.42 138.44 275.74 139.43C269.83 141.61 263.82 143.28 257.62 144.56C248.03 146.53 238.26 146.62 228.63 148.01C223.05 148.81 217.43 149.25 211.83 149.92C207.13 150.49 202.47 151.51 197.76 151.74C186.97 152.26 176.16 152.29 165.37 152.77C159.88 153.02 154.36 153.55 148.95 154.48C145.53 155.07 142.2 156.45 139.26 158.63C141.45 158.53 143.51 157.99 145.6 157.58C150.36 156.66 155.11 155.41 159.92 155.04C167.6 154.45 175.33 154.51 183.03 154.23C189.32 154 195.61 153.72 201.89 153.37C205.22 153.19 208.54 152.88 211.85 152.49C221.89 151.31 231.9 149.67 241.97 148.95C252.83 148.18 263.33 146.05 273.54 142.47C276.53 141.42 279.33 139.7 282.01 137.96C283.87 136.78 283.74 135.89 281.82 133.6ZM163.35 67.2401C161.2 68.1701 159.36 69.3801 157.36 69.7401C153.21 70.4901 148.98 70.8201 144.78 71.2501C136.74 72.0601 128.71 72.9201 120.66 73.5401C118 73.7501 115.28 73.4101 112.61 73.0901C106.53 72.3601 100.5 71.2801 94.31 72.3401C88.88 73.2701 83.39 73.7901 77.93 74.5301C73.48 75.1301 69.04 75.7701 64.61 76.4501C63.94 76.5501 63.32 76.9601 62.67 77.2201C67.2701 78.4001 71.88 78.4201 76.4 78.0001C84.05 77.2801 91.65 76.0401 99.29 75.1801C101.44 74.9401 103.65 75.3301 105.84 75.3601C113.43 75.4901 121.06 76.1601 128.58 75.5401C136.86 74.8501 145.03 73.0201 153.4 72.7001C156.43 72.5801 159.57 72.1601 162.22 70.3201C163.42 69.4901 164.49 68.5701 163.35 67.2401ZM-104.55 114.65C-104.6 115.05 -104.66 115.45 -104.71 115.85C-101.91 116.47 -99.13 117.22 -96.3 117.68C-93.91 118.07 -91.44 118.46 -89.06 118.26C-83.72 117.81 -78.42 116.87 -73.08 116.34C-64.2899 115.46 -55.47 114.9 -46.69 113.92C-38.67 113.03 -30.7 111.78 -22.71 110.61C-22.1 110.52 -21.58 109.75 -21.02 109.3C-22.3499 108.6 -23.37 108.49 -24.35 108.62C-32.73 109.68 -41.09 110.86 -49.47 111.83C-56.32 112.63 -63.2 113.24 -70.08 113.86C-76.2 114.41 -82.33 114.9 -88.46 115.34C-89.86 115.44 -91.27 115.24 -92.68 115.18C-96.65 115.01 -100.6 114.83 -104.55 114.65ZM406.43 211.22C406.4 211.56 406.37 211.9 406.34 212.25C407.89 213.82 409.94 213.83 411.97 213.94C416.21 214.18 420.45 214.36 424.67 214.71C432.97 215.4 441.27 216.21 449.57 216.92C451.49 217.08 453.44 216.92 455.36 217.12C461.6 217.76 467.83 218.52 474.06 219.17C474.67 219.23 475.32 218.92 476.17 218.74C474.74 216.45 472.56 216.51 470.82 216.31C462.68 215.34 454.51 214.58 446.34 213.88C438.67 213.23 430.98 212.76 423.31 212.21C423.18 212.2 423.05 212.18 422.93 212.17C417.43 211.84 411.93 211.53 406.43 211.22ZM-49.6 15.9101C-49.64 16.2601 -49.69 16.6201 -49.73 16.9701C-44.19 18.6201 -38.42 17.5401 -32.77 17.7901C-26.86 18.0501 -20.92 17.9501 -15 17.6901C-9.24997 17.4401 -3.48999 17.0201 2.21002 16.2601C7.95001 15.5001 13.88 15.5501 19.53 13.2601C18.47 10.3601 16.54 10.9301 14.69 11.5101C10.62 12.8001 6.46002 13.4601 2.18002 13.4101C1.29001 13.4001 0.400055 13.6201 -0.48996 13.7101C-6.07996 14.3201 -11.66 15.2601 -17.27 15.4501C-26.92 15.7901 -36.58 15.6501 -46.24 15.7301C-47.36 15.7601 -48.48 15.8501 -49.6 15.9101ZM266.11 174.74C266.12 175.02 266.14 175.3 266.15 175.59C267.13 175.67 268.12 175.8 269.1 175.81C277.94 175.83 286.75 175.78 295.56 174.53C301.5 173.69 307.57 173.79 313.58 173.5C315.17 173.42 316.85 173.67 318.21 171.53C316.68 171.41 315.6 171.2 314.52 171.25C309.53 171.48 304.55 171.8 299.56 172.03C296.99 172.15 294.41 171.99 291.85 172.19C283.83 172.84 275.82 173.59 267.8 174.32C267.23 174.37 266.67 174.6 266.11 174.74ZM-203.1 123.61C-203.04 123.96 -202.98 124.32 -202.92 124.67C-199.61 124.67 -196.29 124.85 -193 124.63C-187.51 124.26 -182 123.85 -176.55 123.07C-171.11 122.29 -165.72 121.11 -160.34 119.96C-159.09 119.69 -157.62 119.24 -157.16 117.14C-158.54 117.44 -159.62 117.72 -160.7 117.89C-167.14 118.9 -173.57 120.09 -180.05 120.83C-185.4 121.44 -190.82 121.37 -196.19 121.88C-198.53 122.1 -200.8 123.01 -203.1 123.61ZM-205.23 158.48C-205.39 158.21 -205.56 157.94 -205.72 157.67C-207.34 157.77 -208.99 158.06 -210.59 157.93C-214.8 157.59 -218.99 157.09 -223.19 156.6C-226.5 156.22 -229.79 155.73 -233.1 155.35C-236.86 154.92 -240.58 153.64 -244.45 154.67C-243.38 155.17 -242.3 155.56 -241.19 155.7C-238.26 156.08 -235.31 156.26 -232.4 156.68C-225.81 157.62 -219.25 158.71 -212.66 159.62C-211.01 159.85 -209.3 159.79 -207.64 159.61C-206.81 159.51 -206.03 158.87 -205.23 158.48Z" fill="#357BBF"/>
<path d="M46.5002 46.5301C44.0002 47.0001 41.5102 47.5901 38.9902 47.9301C34.0402 48.5901 29.0702 49.1101 24.1002 49.6801C19.5202 50.2001 14.9402 50.7001 10.3602 51.2201C-7.97984 53.3101 -26.3898 52.3601 -44.7798 52.7001C-52.2098 52.8401 -59.6199 53.7001 -67.0499 54.2001C-75.6399 54.7801 -84.2298 55.3101 -92.8198 55.8901C-99.4698 56.3301 -106.12 56.8701 -112.78 57.2501C-117.73 57.5301 -122.63 57.2101 -127.34 54.8401C-126.79 54.7001 -126.25 54.4401 -125.7 54.4201C-116.44 54.0901 -107.18 53.8901 -97.9298 53.4401C-92.6898 53.1901 -87.4698 52.5001 -82.2299 52.1201C-76.7198 51.7201 -71.1999 51.5001 -65.6898 51.1301C-59.2898 50.7101 -52.8998 50.2001 -46.5098 49.7501C-45.4798 49.6801 -44.4498 49.7101 -43.4198 49.7101C-32.4598 49.7101 -21.4998 49.8301 -10.5499 49.6701C-1.93985 49.5501 6.68016 49.3101 15.2702 48.7101C21.0002 48.3101 26.6702 47.1001 32.3802 46.4001C36.8202 45.8601 41.3002 45.5401 45.7502 45.1201C46.0101 45.5901 46.2601 46.0601 46.5002 46.5301Z" fill="#5BBDD6"/>
<path d="M-49.6 15.9099C-48.48 15.8499 -47.36 15.7599 -46.24 15.7499C-36.58 15.6699 -26.92 15.7999 -17.27 15.4699C-11.66 15.2699 -6.07998 14.3399 -0.489983 13.7299C0.400017 13.6299 1.29002 13.4099 2.18002 13.4299C6.46002 13.4899 10.61 12.8299 14.69 11.5299C16.54 10.9399 18.47 10.3799 19.53 13.2799C13.88 15.5699 7.96002 15.5199 2.21002 16.2799C-3.48998 17.0299 -9.24998 17.4599 -15 17.7099C-20.92 17.9699 -26.86 18.0699 -32.77 17.8099C-38.41 17.5599 -44.18 18.6299 -49.73 16.9899C-49.69 16.6199 -49.65 16.2599 -49.6 15.9099Z" fill="#5ABDD7"/>
<path d="M46.5 46.5303C46.25 46.0603 46 45.5903 45.75 45.1303C50.7 44.6003 55.63 43.8003 60.6 43.5803C71.37 43.1203 82.15 42.9403 92.93 42.6803C94.1 42.6503 95.28 42.8503 96.45 42.9403C96.45 43.2303 96.45 43.5103 96.46 43.8003C95.68 43.9403 94.89 44.1903 94.11 44.2003C90.38 44.2403 86.65 44.1203 82.92 44.2403C77.03 44.4403 71.14 44.7303 65.26 45.1003C59 45.5103 52.75 46.0503 46.5 46.5303Z" fill="#55B6D5"/>
</g>
<g clip-path="url(#clip2_710_7443)">
<path d="M1418.35 0.910004C1374.56 3.8 1330.62 6.7 1286.74 4.32001C1274.18 3.64001 1261.64 2.51001 1249.17 0.860008C1271.32 3.84001 1293.48 6.81001 1315.63 9.79001C1285.76 5.75001 1256.34 -1.57999 1228.53 -13.31C1248.44 -4.91 1268.34 3.49001 1288.25 11.89C1268.58 3.50001 1249.91 -7.05 1232.97 -20.12C1249.84 -7.09 1266.7 5.94001 1283.57 18.97C1277.57 14.29 1271.81 9.32001 1266.31 4.05001C1207.38 146.31 1148.46 288.57 1089.53 430.83C1143.8 425.27 1198.61 426.13 1252.67 433.38C1230.52 430.4 1208.36 427.43 1186.21 424.45C1251.3 433.3 1314.56 451.99 1379.56 461.43C1433.69 469.29 1487.8 476.7 1542.41 479.93C1575.15 481.86 1607.95 482.65 1640.74 482.82C1677.88 483.02 1715.02 482.44 1752.16 481.85C1786.58 483.15 1818.69 475.97 1848.48 460.32C1879.47 450.24 1906.29 433.01 1928.94 408.63C1953.32 385.99 1970.55 359.17 1980.63 328.17C1996.28 298.38 2003.46 266.27 2002.16 231.85C1999.18 209.7 1996.21 187.54 1993.23 165.39C1981.35 123.04 1959.92 86.27 1928.94 55.07C1912.07 42.04 1895.21 29.01 1878.34 15.98C1839.35 -6.63 1797.29 -18.01 1752.16 -18.15C1674.94 -16.93 1597.57 -15.72 1520.49 -21.55C1499.02 -23.17 1477.6 -25.36 1456.26 -28.21C1478.41 -25.23 1500.57 -22.26 1522.72 -19.28C1474.72 -25.76 1427.76 -37.11 1380.38 -46.92C1335.17 -56.28 1289.51 -62.21 1243.66 -67.78C1219.61 -70.7 1195.4 -72.36 1171.18 -72.74C1143.92 -73.17 1116.65 -71.96 1089.53 -69.18C1067.38 -66.2 1045.22 -63.23 1023.07 -60.25C1003.16 -51.85 983.26 -43.45 963.35 -35.05C946.49 -22.01 929.62 -8.97999 912.76 4.05001C888.38 26.69 871.15 53.51 861.07 84.51C849.76 104.01 844.07 125.04 844 147.6C838.05 169.75 838.05 191.91 844 214.06C844.07 236.62 849.76 257.65 861.07 277.15C871.15 308.14 888.38 334.96 912.76 357.61C916.56 361.25 920.47 364.76 924.52 368.11C934.51 376.39 945.18 384.23 955.32 392.07C965.61 400.02 976.03 408.46 986.69 416.16C995.04 422.19 1003.8 427.65 1012.85 432.55C1017.47 435.05 1022.17 437.41 1026.93 439.64C1050.96 450.84 1075.58 460.78 1100.15 470.71C1109.79 474.6 1119.64 477.98 1129.62 480.88C1139.8 483.84 1150.12 486.3 1160.52 488.32C1165.53 489.29 1170.56 490.16 1175.61 490.92C1200.07 494.63 1224.65 497.66 1249.18 500.86C1252.41 501.28 1255.64 501.69 1258.87 502.05C1283.68 504.81 1308.67 505.5 1333.61 505.1C1361.9 504.64 1390.13 502.79 1418.35 500.92C1452.77 502.22 1484.88 495.04 1514.67 479.39C1545.66 469.31 1572.48 452.08 1595.13 427.7C1619.51 405.06 1636.74 378.24 1646.82 347.24C1662.47 317.45 1669.65 285.34 1668.35 250.92C1665.37 228.77 1662.4 206.61 1659.42 184.46C1647.54 142.11 1626.11 105.34 1595.13 74.14C1578.26 61.11 1561.4 48.08 1544.53 35.05C1505.53 12.43 1463.47 1.05 1418.35 0.910004Z" fill="#357BBF"/>
<path d="M1830.99 -18.92C1830.99 -7.07 1830.99 4.77 1830.99 16.84C1830.03 16.95 1829.14 17.25 1828.32 17.11C1822.03 16.03 1815.8 16.16 1809.54 17.52C1806.53 18.18 1803.43 18.53 1800.35 18.66C1792.41 19 1785.12 16.83 1778.45 12.51C1777.39 11.83 1776.18 11.2 1774.96 10.97C1767.22 9.46 1760.1 10.45 1754.18 16.26C1750.6 19.77 1746.92 23.11 1744.74 27.86C1743.29 31.02 1740.84 33.57 1737.75 35.45C1734.02 37.72 1731.2 40.9 1729.37 44.85C1727.21 49.53 1725.26 54.3 1723.13 58.99C1722.02 61.44 1720.78 63.84 1719.48 66.19C1718.48 67.99 1717.11 69.59 1716.19 71.42C1712.83 78.07 1707.32 81.96 1700.38 84.1C1690.61 87.11 1686.07 94.46 1684.07 103.87C1683.86 104.85 1683.83 105.99 1684.11 106.95C1685.19 110.69 1683.38 113.41 1681.19 116.05C1681.11 116.15 1681.02 116.25 1680.92 116.32C1676.1 119.52 1674.65 124.65 1673.54 129.81C1673.04 132.13 1673.37 134.64 1673.47 137.06C1673.51 138.07 1673.93 139.06 1674.13 140.07C1674.92 143.99 1673.56 145.89 1669.66 146.52C1663.7 147.48 1657.69 148.25 1651.8 149.57C1643.89 151.34 1636.1 153.61 1628.24 155.57C1622.88 156.9 1617.47 158.07 1612.08 159.31C1602.81 161.44 1593.4 162.91 1584.3 165.85C1576.71 168.3 1568.93 170.25 1561.13 171.93C1552.47 173.79 1543.72 175.28 1534.95 176.58C1525.92 177.91 1516.82 178.66 1507.78 179.94C1499.9 181.05 1492.05 182.45 1484.22 183.9C1479.92 184.7 1475.7 185.87 1471.44 186.85C1465.87 188.14 1460.62 190.21 1455.82 193.36C1453.91 194.62 1452.08 194.7 1450.03 193.62C1441.23 188.96 1431.91 185.56 1422.5 182.41C1407.59 177.41 1392.93 171.78 1378.55 165.39C1360.89 157.55 1343.21 149.78 1325.54 141.97C1323.77 141.19 1322.06 140.28 1320.32 139.44C1318.21 138.44 1316.18 137.51 1313.68 138.55C1312.84 138.9 1311.34 138.41 1310.48 137.82C1307.72 135.93 1305.06 133.89 1302.46 131.78C1299.72 129.56 1297.84 126.84 1296.69 123.33C1294.85 117.69 1290.35 113.89 1285.6 110.82C1280.75 107.69 1275.45 105.23 1270.2 102.78C1267.58 101.56 1265.18 100.21 1263.25 98.05C1254.7 88.45 1244.74 80.54 1234.03 73.5C1227.02 68.89 1220.81 63.27 1214.44 57.83C1207.69 52.07 1200.38 46.97 1193.4 41.49C1189.56 38.47 1185.78 35.36 1182.15 32.09C1177.3 27.73 1171.88 24.3 1166.01 21.58C1157.71 17.74 1149.36 14 1140.93 10.44C1137.39 8.95 1133.63 7.96 1129.93 6.86C1121.17 4.25 1112.39 1.71 1103.63 -0.879997C1099.93 -1.98 1096.19 -2.99 1092.57 -4.31C1084.47 -7.25 1075.9 -7.52 1067.56 -9.02C1061.49 -10.11 1055.39 -11.04 1049.28 -11.87C1040.86 -13.02 1032.45 -14.23 1024.37 -16.93C1015.77 -19.79 1007.81 -23.93 1000.16 -28.83C993.99 -32.78 987.36 -36.02 980.93 -39.56C977.99 -41.18 975.07 -42.82 972.1 -44.36C970.41 -45.24 969.7 -46.51 969.73 -48.4C969.8 -53.04 969.76 -57.68 969.76 -62.32C973.11 -63.12 976.44 -64.11 979.83 -64.69C986.51 -65.82 993.13 -67.49 999.99 -67.19C1000.12 -67.18 1000.24 -67.24 1000.37 -67.25C1005.1 -67.43 1009.87 -68.06 1014.57 -67.7C1022.84 -67.05 1031.06 -65.75 1039.31 -64.84C1041.36 -64.62 1043.46 -64.88 1045.54 -64.92C1045.56 -65.28 1045.58 -65.63 1045.6 -65.99C1042.03 -66.65 1038.49 -67.51 1034.89 -67.94C1028.04 -68.78 1021.17 -69.74 1014.28 -69.97C1007.9 -70.19 1001.47 -69.62 995.08 -69.21C992.16 -69.03 989.24 -68.49 986.35 -67.97C980.82 -66.96 975.31 -65.85 969.79 -64.78C969.78 -71.72 969.78 -78.67 969.77 -85.61C970.14 -85.82 970.51 -86.04 970.88 -86.25C975.86 -85.84 980.84 -85.38 985.83 -85.03C988.27 -84.86 990.73 -84.97 993.17 -84.84C1002.67 -84.35 1012.16 -83.82 1021.65 -83.3C1027.29 -82.99 1032.95 -82.77 1038.58 -82.37C1043.57 -82.02 1048.54 -81.36 1053.53 -81.04C1060.59 -80.6 1067.66 -80.42 1074.72 -80C1080.1 -79.68 1085.47 -79.17 1090.84 -78.75C1094.55 -78.46 1098.26 -78.12 1101.98 -77.91C1108.15 -77.56 1114.32 -77.35 1120.48 -76.98C1126.88 -76.59 1133.28 -76 1139.68 -75.61C1145.97 -75.22 1152.27 -74.99 1158.56 -74.65C1166.9 -74.2 1175.23 -73.69 1183.57 -73.23C1189.47 -72.91 1195.38 -72.7 1201.28 -72.29C1206.01 -71.96 1210.71 -71.27 1215.43 -70.95C1221.97 -70.51 1228.53 -70.32 1235.07 -69.93C1241.34 -69.55 1247.6 -69.02 1253.87 -68.61C1258.48 -68.31 1263.11 -68.13 1267.72 -67.83C1275.66 -67.32 1283.6 -66.74 1291.54 -66.23C1296.03 -65.94 1300.53 -65.78 1305.02 -65.5C1313.09 -64.99 1321.15 -64.43 1329.21 -63.89C1332.41 -63.67 1335.61 -63.38 1338.82 -63.21C1345.11 -62.86 1351.4 -62.63 1357.68 -62.24C1363.95 -61.85 1370.2 -61.28 1376.47 -60.89C1382.88 -60.49 1389.31 -60.27 1395.72 -59.88C1401.86 -59.5 1407.99 -58.97 1414.13 -58.55C1418.87 -58.23 1423.62 -58.02 1428.36 -57.71C1435.8 -57.23 1443.23 -56.69 1450.67 -56.21C1455.28 -55.92 1459.91 -55.74 1464.52 -55.44C1472.33 -54.94 1480.14 -54.39 1487.95 -53.85C1491.53 -53.6 1495.11 -53.29 1498.69 -53.08C1504.47 -52.75 1510.25 -52.54 1516.03 -52.17C1522.17 -51.77 1528.29 -51.17 1534.43 -50.8C1541.1 -50.39 1547.79 -50.22 1554.47 -49.8C1559.84 -49.47 1565.19 -48.91 1570.56 -48.49C1574.14 -48.21 1577.73 -47.94 1581.32 -47.73C1587.1 -47.39 1592.88 -47.17 1598.65 -46.79C1604.79 -46.39 1610.92 -45.82 1617.06 -45.43C1623.22 -45.04 1629.38 -44.83 1635.54 -44.44C1641.56 -44.06 1647.56 -43.46 1653.58 -43.1C1660.38 -42.69 1667.2 -42.5 1674 -42.09C1679.37 -41.76 1684.73 -41.16 1690.1 -40.82C1696.77 -40.39 1703.45 -40.16 1710.12 -39.74C1715.62 -39.39 1721.12 -38.88 1726.61 -38.46C1730.19 -38.18 1733.77 -37.89 1737.36 -37.67C1742.75 -37.35 1748.14 -37.14 1753.53 -36.79C1760.19 -36.36 1766.84 -35.78 1773.51 -35.35C1779.28 -34.98 1785.06 -34.77 1790.83 -34.39C1797.1 -33.98 1803.37 -33.39 1809.64 -33C1815.93 -32.61 1822.23 -32.37 1828.52 -32.05C1829.27 -32.01 1830.01 -31.91 1831.02 -31.81C1831.02 -28.45 1831.02 -25.26 1831.02 -22.08C1827.73 -22.29 1824.43 -22.51 1821.14 -22.71C1818.36 -22.88 1815.7 -22.67 1813.04 -20.04C1814.98 -19.66 1816.28 -19.22 1817.61 -19.17C1822.06 -19.02 1826.53 -18.99 1830.99 -18.92ZM1444.78 128.96C1438.53 129.44 1432.29 129.99 1426.04 130.38C1420.16 130.75 1414.27 131.04 1408.38 131.24C1404.65 131.37 1400.92 131.24 1397.19 131.28C1396.4 131.29 1395.62 131.54 1394.84 131.68C1394.84 131.97 1394.84 132.25 1394.85 132.54C1396.02 132.63 1397.2 132.83 1398.37 132.8C1409.15 132.54 1419.93 132.36 1430.7 131.9C1435.66 131.69 1440.6 130.89 1445.54 130.35C1450 129.93 1454.47 129.61 1458.91 129.07C1464.62 128.37 1470.29 127.17 1476.02 126.76C1484.61 126.16 1493.23 125.92 1501.84 125.8C1512.8 125.65 1523.76 125.76 1534.71 125.76C1535.74 125.76 1536.78 125.79 1537.8 125.72C1544.19 125.27 1550.58 124.77 1556.98 124.34C1562.49 123.97 1568.01 123.75 1573.52 123.35C1578.76 122.97 1583.98 122.28 1589.22 122.03C1598.47 121.59 1607.73 121.38 1616.99 121.05C1617.54 121.03 1618.08 120.78 1618.63 120.63C1613.91 118.26 1609.02 117.94 1604.07 118.22C1597.41 118.6 1590.77 119.13 1584.11 119.58C1575.52 120.15 1566.93 120.69 1558.34 121.27C1550.92 121.77 1543.5 122.63 1536.07 122.77C1517.69 123.12 1499.27 122.17 1480.93 124.25C1476.35 124.77 1471.77 125.27 1467.19 125.79C1462.23 126.36 1457.25 126.88 1452.3 127.54C1449.77 127.9 1447.28 128.49 1444.78 128.96ZM1112.57 -46.15C1112.52 -45.92 1112.46 -45.69 1112.41 -45.46C1112.81 -45.21 1113.19 -44.82 1113.62 -44.73C1121.66 -43.13 1129.7 -41.48 1137.77 -40.01C1145.46 -38.61 1153.17 -37.34 1160.89 -36.12C1164.94 -35.48 1169.01 -34.82 1173.09 -34.65C1180.04 -34.36 1187.01 -34.35 1193.98 -34.42C1215.22 -34.62 1236.46 -34.94 1257.65 -33C1264.42 -32.38 1271.2 -31.89 1277.99 -31.59C1288.14 -31.15 1298.31 -30.84 1308.47 -30.66C1316.59 -30.51 1324.72 -30.58 1332.85 -30.66C1335.28 -30.68 1337.71 -31.16 1340.14 -31.21C1344.39 -31.3 1348.66 -31.45 1352.89 -31.14C1359.02 -30.69 1365.12 -29.91 1371.22 -29.16C1376.81 -28.47 1382.37 -27.34 1387.97 -26.94C1396.17 -26.36 1404.41 -26.22 1412.63 -25.96C1415.72 -25.86 1418.82 -25.87 1421.92 -25.96C1429.12 -26.15 1436.32 -26.43 1443.53 -26.65C1444.56 -26.68 1445.59 -26.59 1446.61 -26.51C1448.66 -26.34 1450.71 -26.18 1452.74 -25.94C1458.46 -25.27 1464.24 -24.88 1469.88 -23.79C1483.97 -21.08 1497.74 -16.64 1512.31 -16.51C1520 -16.44 1527.68 -15.46 1535.37 -15.24C1543.59 -15.01 1551.82 -15.19 1560.05 -15.19C1558.87 -16.17 1557.58 -16.58 1556.27 -16.66C1554.09 -16.8 1551.88 -16.63 1549.7 -16.77C1543.3 -17.17 1536.92 -17.75 1530.52 -18.1C1523.08 -18.5 1515.6 -18.48 1508.18 -19.11C1502.19 -19.62 1496.23 -20.65 1490.31 -21.75C1481.87 -23.31 1473.47 -25.16 1465.05 -26.85C1462.54 -27.35 1460.02 -28.05 1457.48 -28.13C1450.14 -28.35 1442.78 -28.31 1435.43 -28.34C1419.1 -28.41 1402.73 -27.22 1386.46 -29.81C1381.02 -30.68 1375.55 -31.39 1370.08 -32.03C1364.86 -32.64 1359.63 -33.47 1354.4 -33.52C1335.06 -33.7 1315.71 -33.58 1296.37 -33.6C1292.37 -33.6 1288.36 -33.55 1284.38 -33.85C1276.97 -34.41 1269.6 -35.49 1262.18 -35.86C1251.13 -36.41 1240.05 -36.75 1228.99 -36.79C1218.18 -36.82 1207.37 -36.22 1196.56 -36.18C1189.11 -36.15 1181.64 -36.43 1174.2 -36.91C1167.94 -37.31 1161.69 -38.08 1155.47 -38.92C1150.26 -39.62 1145.1 -40.63 1139.92 -41.53C1132.1 -42.9 1124.28 -44.31 1116.45 -45.68C1115.19 -45.87 1113.88 -45.98 1112.57 -46.15ZM1376.25 21.61C1376.26 21.89 1376.27 22.16 1376.29 22.44C1377.01 22.55 1377.73 22.78 1378.44 22.73C1381.25 22.55 1384.06 22.34 1386.87 22.04C1391.2 21.58 1395.52 21.02 1399.85 20.55C1404.82 20 1409.78 19.4 1414.76 19C1420.27 18.56 1425.79 18.37 1431.3 17.98C1436.8 17.6 1442.28 17 1447.78 16.69C1454.04 16.33 1460.31 16.2 1466.58 15.92C1477.88 15.42 1489.18 14.97 1500.46 14.31C1507.21 13.92 1513.94 13.19 1520.68 12.56C1528.21 11.85 1535.72 11.03 1543.25 10.37C1547.47 10 1551.81 10.34 1555.9 9.47C1561.77 8.22 1567.45 9.53 1573.18 9.82C1581.36 10.25 1589.51 11.63 1597.69 11.88C1606.16 12.13 1614.65 11.4 1623.14 11.32C1628.69 11.26 1634.15 10.64 1639.59 9.64C1641.83 9.23 1644.08 8.8 1646.32 8.38C1646.28 8.09 1646.24 7.8 1646.2 7.5C1643.66 7.5 1641.11 7.36 1638.58 7.53C1633.21 7.88 1627.86 8.58 1622.49 8.8C1616.05 9.07 1609.6 9.04 1603.15 9.03C1598.64 9.03 1594.11 9.06 1589.62 8.71C1582.73 8.16 1575.87 6.97 1568.98 6.64C1562.04 6.31 1555.05 6.43999 1548.11 6.84C1540.31 7.3 1532.54 8.25999 1524.77 9.06C1521.71 9.37 1518.68 9.88 1515.62 10.22C1510.27 10.81 1504.93 11.55 1499.57 11.84C1490.58 12.33 1481.58 12.51 1472.58 12.82C1472.32 12.83 1472.06 12.83 1471.81 12.85C1465.42 13.31 1459.03 13.85 1452.64 14.22C1445.45 14.63 1438.25 14.77 1431.07 15.21C1424.67 15.6 1418.29 16.25 1411.9 16.79C1411.51 16.82 1411.13 16.83 1410.74 16.88C1403.51 17.86 1396.27 18.84 1389.04 19.83C1384.76 20.42 1380.5 21.02 1376.25 21.61ZM1249.05 71.77C1249.15 72.16 1249.26 72.55 1249.36 72.95C1250.32 72.95 1251.31 73.11 1252.24 72.92C1256.01 72.14 1259.78 71.37 1263.5 70.39C1272.62 67.99 1281.96 67.28 1291.31 67.07C1298.5 66.91 1305.7 67.5 1312.89 67.68C1316.24 67.77 1319.59 67.77 1322.93 67.66C1324.97 67.59 1326.99 67.25 1329.03 67.03C1331.45 66.77 1333.86 66.42 1336.28 66.29C1339.36 66.12 1342.48 66.32 1345.54 66.01C1348.9 65.67 1352.32 65.34 1355.37 63.29C1354.19 62.75 1353.01 62.46 1351.84 62.47C1343.37 62.58 1334.93 61.87 1326.42 63C1319.07 63.98 1311.54 63.69 1304.09 63.82C1297.91 63.93 1291.72 63.71 1285.54 63.9C1281.45 64.03 1277.3 64.26 1273.31 65.09C1266.15 66.57 1259.09 68.49 1252.01 70.31C1250.96 70.6 1250.03 71.28 1249.05 71.77ZM1737.46 -25.35C1737.47 -25.62 1737.48 -25.9 1737.49 -26.17C1733.85 -26.6 1730.23 -27.22 1726.58 -27.41C1718.49 -27.82 1710.38 -28.23 1702.29 -28.22C1693.81 -28.21 1685.32 -27.79 1676.84 -27.38C1669.91 -27.05 1663 -26.35 1656.07 -26.08C1653.01 -25.96 1649.92 -26.55 1646.85 -26.72C1638.14 -27.22 1629.42 -27.91 1620.7 -28.1C1609.74 -28.34 1598.78 -28.17 1587.82 -28.13C1587.22 -28.13 1586.63 -27.69 1586.03 -27.46C1587.14 -26.83 1588.14 -26.68 1589.14 -26.69C1600.33 -26.79 1611.48 -26.35 1622.65 -25.36C1631.86 -24.55 1641.15 -24.39 1650.41 -24.39C1662.51 -24.4 1674.6 -24.06 1686.71 -25.08C1694.09 -25.7 1701.6 -24.67 1709.06 -24.57C1717.31 -24.45 1725.56 -24.5 1733.81 -24.57C1735.03 -24.58 1736.24 -25.07 1737.46 -25.35ZM1209.46 41.9C1210.32 38.22 1212.86 37.06 1215.54 36.07C1221.45 33.89 1227.46 32.22 1233.66 30.94C1243.25 28.97 1253.02 28.88 1262.65 27.49C1268.23 26.69 1273.85 26.25 1279.45 25.58C1284.15 25.01 1288.81 23.99 1293.52 23.76C1304.31 23.24 1315.12 23.21 1325.91 22.73C1331.4 22.48 1336.92 21.95 1342.33 21.02C1345.75 20.43 1349.08 19.05 1352.02 16.87C1349.83 16.97 1347.77 17.51 1345.68 17.92C1340.92 18.84 1336.17 20.09 1331.36 20.46C1323.68 21.05 1315.95 20.99 1308.25 21.27C1301.96 21.5 1295.67 21.78 1289.39 22.13C1286.06 22.31 1282.74 22.62 1279.43 23.01C1269.39 24.19 1259.38 25.83 1249.31 26.55C1238.45 27.32 1227.95 29.45 1217.74 33.03C1214.75 34.08 1211.95 35.8 1209.27 37.54C1207.41 38.72 1207.54 39.6 1209.46 41.9ZM1327.93 108.25C1330.08 107.32 1331.92 106.11 1333.92 105.75C1338.07 105 1342.3 104.67 1346.5 104.24C1354.54 103.43 1362.57 102.57 1370.62 101.95C1373.28 101.74 1376 102.08 1378.67 102.4C1384.75 103.13 1390.78 104.21 1396.97 103.15C1402.4 102.22 1407.89 101.7 1413.35 100.96C1417.8 100.36 1422.24 99.72 1426.67 99.04C1427.34 98.94 1427.96 98.53 1428.61 98.27C1424.01 97.09 1419.4 97.07 1414.88 97.49C1407.23 98.21 1399.63 99.45 1391.99 100.31C1389.84 100.55 1387.63 100.16 1385.44 100.13C1377.85 100 1370.22 99.33 1362.7 99.95C1354.42 100.64 1346.25 102.47 1337.88 102.79C1334.85 102.91 1331.71 103.33 1329.06 105.17C1327.86 106 1326.79 106.92 1327.93 108.25ZM1595.84 60.84C1595.89 60.44 1595.95 60.04 1596 59.64C1593.2 59.02 1590.42 58.27 1587.59 57.81C1585.2 57.42 1582.73 57.03 1580.35 57.23C1575.01 57.68 1569.71 58.62 1564.37 59.15C1555.58 60.03 1546.76 60.59 1537.98 61.57C1529.96 62.46 1521.99 63.71 1514 64.88C1513.39 64.97 1512.87 65.74 1512.31 66.19C1513.64 66.89 1514.66 67 1515.64 66.87C1524.02 65.81 1532.38 64.63 1540.76 63.66C1547.61 62.86 1554.49 62.25 1561.37 61.63C1567.49 61.08 1573.62 60.59 1579.75 60.15C1581.15 60.05 1582.56 60.25 1583.97 60.31C1587.93 60.48 1591.88 60.66 1595.84 60.84ZM1084.85 -35.72C1084.88 -36.06 1084.91 -36.4 1084.94 -36.75C1083.39 -38.32 1081.34 -38.33 1079.31 -38.44C1075.07 -38.68 1070.83 -38.86 1066.61 -39.21C1058.31 -39.9 1050.01 -40.71 1041.71 -41.42C1039.79 -41.58 1037.84 -41.42 1035.92 -41.62C1029.68 -42.26 1023.45 -43.02 1017.22 -43.67C1016.61 -43.73 1015.96 -43.42 1015.11 -43.24C1016.54 -40.95 1018.72 -41.01 1020.46 -40.81C1028.6 -39.84 1036.77 -39.08 1044.94 -38.38C1052.61 -37.73 1060.3 -37.26 1067.97 -36.71C1068.1 -36.7 1068.23 -36.68 1068.35 -36.67C1073.85 -36.35 1079.35 -36.03 1084.85 -35.72ZM1540.89 159.59C1540.93 159.24 1540.98 158.88 1541.02 158.53C1535.48 156.88 1529.71 157.96 1524.06 157.71C1518.15 157.45 1512.21 157.55 1506.29 157.81C1500.54 158.06 1494.78 158.48 1489.08 159.24C1483.34 160 1477.41 159.95 1471.76 162.24C1472.82 165.14 1474.75 164.57 1476.6 163.99C1480.67 162.7 1484.83 162.04 1489.11 162.09C1490 162.1 1490.89 161.88 1491.78 161.79C1497.37 161.18 1502.95 160.24 1508.56 160.05C1518.21 159.71 1527.87 159.85 1537.53 159.77C1538.65 159.73 1539.77 159.64 1540.89 159.59ZM1225.18 0.75C1225.17 0.470001 1225.15 0.190002 1225.14 -0.0999985C1224.16 -0.18 1223.17 -0.309998 1222.19 -0.32C1213.35 -0.339996 1204.54 -0.290001 1195.73 0.959999C1189.79 1.82 1183.71 1.71 1177.7 2C1176.11 2.08 1174.43 1.83 1173.07 3.97C1174.6 4.09 1175.68 4.3 1176.76 4.25C1181.75 4.02 1186.73 3.7 1191.72 3.47C1194.29 3.35 1196.87 3.50999 1199.43 3.31C1207.45 2.66 1215.46 1.91 1223.48 1.18C1224.05 1.13 1224.61 0.900002 1225.18 0.75ZM1694.38 51.89C1694.32 51.54 1694.26 51.18 1694.21 50.83C1690.9 50.83 1687.58 50.65 1684.29 50.87C1678.8 51.24 1673.29 51.65 1667.84 52.43C1662.4 53.21 1657.01 54.39 1651.63 55.54C1650.38 55.81 1648.91 56.26 1648.45 58.36C1649.83 58.06 1650.91 57.78 1651.99 57.61C1658.43 56.6 1664.86 55.41 1671.34 54.67C1676.69 54.06 1682.11 54.13 1687.48 53.62C1689.81 53.4 1692.08 52.48 1694.38 51.89ZM1696.51 17.02C1696.67 17.29 1696.84 17.56 1697 17.83C1698.62 17.73 1700.27 17.44 1701.87 17.57C1706.08 17.91 1710.27 18.41 1714.47 18.9C1717.78 19.28 1721.07 19.77 1724.38 20.15C1728.14 20.58 1731.86 21.86 1735.73 20.83C1734.66 20.33 1733.58 19.94 1732.47 19.8C1729.54 19.42 1726.59 19.24 1723.68 18.82C1717.09 17.88 1710.53 16.79 1703.94 15.88C1702.29 15.65 1700.58 15.71 1698.92 15.89C1698.09 15.98 1697.31 16.62 1696.51 17.02Z" fill="#357BBF"/>
<path d="M1209.46 41.8998C1207.54 39.6098 1207.41 38.7198 1209.27 37.5098C1211.95 35.7698 1214.75 34.0498 1217.74 32.9998C1227.95 29.4198 1238.45 27.2898 1249.31 26.5198C1259.38 25.8098 1269.39 24.1598 1279.43 22.9798C1282.74 22.5898 1286.06 22.2898 1289.39 22.0998C1295.67 21.7498 1301.96 21.4698 1308.25 21.2398C1315.95 20.9598 1323.68 21.0098 1331.36 20.4298C1336.17 20.0598 1340.92 18.8098 1345.68 17.8898C1347.77 17.4898 1349.84 16.9398 1352.02 16.8398C1349.08 19.0198 1345.75 20.3998 1342.33 20.9898C1336.92 21.9198 1331.4 22.4598 1325.91 22.6998C1315.12 23.1898 1304.31 23.2098 1293.52 23.7298C1288.81 23.9598 1284.14 24.9798 1279.45 25.5498C1273.85 26.2298 1268.23 26.6598 1262.65 27.4598C1253.02 28.8498 1243.25 28.9398 1233.66 30.9098C1227.46 32.1898 1221.44 33.8598 1215.54 36.0398C1212.87 37.0598 1210.32 38.2198 1209.46 41.8998Z" fill="#58BAD6"/>
<path d="M1225.18 0.749901C1224.61 0.899901 1224.06 1.1299 1223.48 1.1799C1215.47 1.9099 1207.45 2.6699 1199.43 3.3099C1196.87 3.5199 1194.29 3.3599 1191.72 3.4699C1186.73 3.6999 1181.75 4.0199 1176.76 4.2499C1175.68 4.2999 1174.6 4.0899 1173.07 3.9699C1174.43 1.8299 1176.11 2.0699 1177.7 1.9999C1183.71 1.7099 1189.79 1.8099 1195.72 0.969901C1204.53 -0.280099 1213.34 -0.330099 1222.18 -0.310099C1223.16 -0.310099 1224.15 -0.170099 1225.13 -0.0900995C1225.15 0.189901 1225.16 0.469901 1225.18 0.749901Z" fill="#57B8D6"/>
<path d="M660.29 194.41C660.29 182.56 660.29 170.72 660.29 158.65C661.25 158.54 662.14 158.24 662.96 158.38C669.25 159.46 675.48 159.33 681.74 157.97C684.75 157.31 687.85 156.96 690.93 156.83C698.87 156.49 706.16 158.66 712.83 162.98C713.89 163.66 715.1 164.29 716.32 164.52C724.06 166.03 731.18 165.04 737.1 159.23C740.68 155.72 744.36 152.38 746.54 147.63C747.99 144.47 750.44 141.92 753.53 140.04C757.26 137.77 760.08 134.59 761.91 130.64C764.07 125.96 766.02 121.19 768.15 116.5C769.26 114.05 770.5 111.65 771.8 109.3C772.8 107.5 774.17 105.9 775.09 104.07C778.45 97.4201 783.96 93.5301 790.9 91.3901C800.67 88.3801 805.21 81.0301 807.21 71.6201C807.42 70.6401 807.45 69.5001 807.17 68.5401C806.09 64.8001 807.9 62.0801 810.09 59.4401C810.17 59.3401 810.26 59.2401 810.36 59.1701C815.18 55.9701 816.63 50.8401 817.74 45.6801C818.24 43.3601 817.91 40.8501 817.81 38.4301C817.77 37.4201 817.35 36.4301 817.15 35.4201C816.36 31.5001 817.72 29.6001 821.62 28.9701C827.58 28.0101 833.59 27.2401 839.48 25.9201C847.39 24.1501 855.18 21.8801 863.04 19.9201C868.41 18.5901 873.81 17.4201 879.2 16.1801C888.47 14.0501 897.88 12.5801 906.98 9.64006C914.57 7.19006 922.35 5.24006 930.15 3.56006C938.81 1.70006 947.56 0.210062 956.33 -1.08994C965.36 -2.41994 974.46 -3.16994 983.5 -4.44994C991.4 -5.55994 999.24 -6.94994 1007.08 -8.39994C1011.38 -9.19994 1015.6 -10.3699 1019.86 -11.3499C1025.43 -12.6399 1030.68 -14.7099 1035.48 -17.8599C1037.39 -19.1199 1039.22 -19.1999 1041.27 -18.1199C1050.07 -13.4599 1059.39 -10.0599 1068.8 -6.90994C1083.71 -1.90994 1098.37 3.72006 1112.75 10.1101C1130.41 17.9501 1148.09 25.7201 1165.76 33.5301C1167.53 34.3101 1169.24 35.2201 1170.98 36.0601C1173.09 37.0601 1175.12 37.9901 1177.62 36.9501C1178.46 36.6001 1179.96 37.0901 1180.82 37.6801C1183.58 39.5701 1186.24 41.6101 1188.84 43.7201C1191.58 45.9401 1193.46 48.6601 1194.61 52.1701C1196.45 57.8101 1200.95 61.6101 1205.7 64.6801C1210.55 67.8101 1215.85 70.2701 1221.1 72.7201C1223.72 73.9401 1226.12 75.2901 1228.05 77.4501C1236.6 87.0501 1246.56 94.9601 1257.27 102C1264.28 106.61 1270.49 112.23 1276.86 117.67C1283.61 123.43 1290.92 128.53 1297.9 134.01C1301.74 137.03 1305.52 140.14 1309.15 143.41C1314 147.77 1319.42 151.2 1325.29 153.92C1333.59 157.76 1341.94 161.5 1350.37 165.06C1353.91 166.55 1357.67 167.54 1361.37 168.64C1370.13 171.25 1378.91 173.79 1387.67 176.38C1391.37 177.48 1395.11 178.49 1398.73 179.81C1406.81 182.76 1415.38 183.03 1423.72 184.52C1429.79 185.61 1435.89 186.54 1442 187.37C1450.42 188.52 1458.83 189.73 1466.91 192.43C1475.51 195.29 1483.47 199.43 1491.12 204.33C1497.29 208.28 1503.92 211.52 1510.35 215.06C1513.29 216.68 1516.21 218.32 1519.18 219.86C1520.87 220.74 1521.58 222.01 1521.55 223.9C1521.48 228.54 1521.52 233.18 1521.52 237.82C1518.17 238.62 1514.84 239.61 1511.45 240.19C1504.77 241.32 1498.15 242.99 1491.29 242.69C1491.16 242.68 1491.04 242.74 1490.91 242.75C1486.18 242.93 1481.41 243.56 1476.71 243.2C1468.44 242.55 1460.22 241.25 1451.97 240.34C1449.92 240.12 1447.82 240.38 1445.74 240.42C1445.72 240.78 1445.7 241.13 1445.68 241.49C1449.25 242.15 1452.79 243.01 1456.39 243.44C1463.24 244.28 1470.11 245.24 1477 245.47C1483.39 245.69 1489.81 245.12 1496.21 244.71C1499.13 244.53 1502.05 243.99 1504.94 243.47C1510.47 242.46 1515.98 241.35 1521.5 240.28C1521.51 247.22 1521.51 254.17 1521.52 261.11C1521.15 261.32 1520.78 261.54 1520.41 261.75C1515.43 261.34 1510.45 260.88 1505.46 260.53C1503.02 260.36 1500.56 260.47 1498.12 260.34C1488.62 259.85 1479.13 259.32 1469.64 258.8C1464 258.49 1458.34 258.27 1452.71 257.87C1447.72 257.52 1442.75 256.86 1437.76 256.54C1430.7 256.1 1423.63 255.92 1416.57 255.5C1411.19 255.18 1405.82 254.67 1400.45 254.25C1396.74 253.96 1393.03 253.62 1389.31 253.41C1383.14 253.06 1376.97 252.85 1370.81 252.48C1364.41 252.09 1358.01 251.5 1351.61 251.11C1345.32 250.72 1339.02 250.49 1332.73 250.15C1324.39 249.7 1316.06 249.19 1307.72 248.73C1301.82 248.41 1295.91 248.2 1290.01 247.79C1285.28 247.46 1280.58 246.77 1275.86 246.45C1269.32 246.01 1262.76 245.82 1256.22 245.43C1249.95 245.05 1243.69 244.52 1237.42 244.11C1232.81 243.81 1228.18 243.63 1223.57 243.33C1215.63 242.82 1207.69 242.24 1199.75 241.73C1195.26 241.44 1190.76 241.28 1186.27 241C1178.2 240.49 1170.14 239.93 1162.08 239.39C1158.88 239.17 1155.68 238.88 1152.47 238.71C1146.18 238.36 1139.89 238.13 1133.61 237.74C1127.34 237.35 1121.09 236.78 1114.82 236.39C1108.41 235.99 1101.98 235.77 1095.57 235.38C1089.43 235 1083.3 234.47 1077.16 234.05C1072.42 233.73 1067.67 233.52 1062.93 233.21C1055.49 232.73 1048.06 232.19 1040.62 231.71C1036.01 231.42 1031.38 231.24 1026.77 230.94C1018.96 230.44 1011.15 229.89 1003.34 229.35C999.76 229.1 996.18 228.79 992.6 228.58C986.82 228.25 981.04 228.04 975.26 227.67C969.12 227.27 963 226.67 956.86 226.3C950.19 225.89 943.5 225.72 936.82 225.3C931.45 224.97 926.1 224.41 920.73 223.99C917.15 223.71 913.56 223.44 909.97 223.23C904.19 222.89 898.41 222.67 892.64 222.29C886.5 221.89 880.37 221.32 874.23 220.93C868.07 220.54 861.91 220.33 855.75 219.94C849.73 219.56 843.73 218.96 837.71 218.6C830.91 218.19 824.09 218 817.29 217.59C811.92 217.26 806.56 216.66 801.19 216.32C794.52 215.89 787.84 215.66 781.17 215.24C775.67 214.89 770.17 214.38 764.68 213.96C761.1 213.68 757.52 213.39 753.93 213.17C748.54 212.85 743.15 212.64 737.76 212.29C731.1 211.86 724.45 211.28 717.78 210.85C712.01 210.48 706.23 210.27 700.46 209.89C694.19 209.48 687.92 208.89 681.65 208.5C675.36 208.11 669.06 207.87 662.77 207.55C662.02 207.51 661.28 207.41 660.27 207.31C660.27 203.95 660.27 200.76 660.27 197.58C663.56 197.79 666.86 198.01 670.15 198.21C672.93 198.38 675.59 198.17 678.25 195.54C676.31 195.16 675.01 194.72 673.68 194.67C669.22 194.51 664.76 194.49 660.29 194.41ZM1046.5 46.5301C1052.75 46.0501 1058.99 45.5001 1065.24 45.1101C1071.12 44.7401 1077.01 44.4501 1082.9 44.2501C1086.63 44.1201 1090.36 44.2501 1094.09 44.2101C1094.88 44.2001 1095.66 43.9501 1096.44 43.8101C1096.44 43.5201 1096.44 43.2401 1096.43 42.9501C1095.26 42.8601 1094.08 42.6601 1092.91 42.6901C1082.13 42.9501 1071.35 43.1301 1060.58 43.5901C1055.62 43.8001 1050.68 44.6001 1045.74 45.1401C1041.28 45.5601 1036.81 45.8801 1032.37 46.4201C1026.66 47.1201 1020.99 48.3201 1015.26 48.7301C1006.67 49.3301 998.05 49.5701 989.44 49.6901C978.48 49.8401 967.52 49.7301 956.57 49.7301C955.54 49.7301 954.5 49.7001 953.48 49.7701C947.09 50.2201 940.7 50.7201 934.3 51.1501C928.79 51.5201 923.27 51.7401 917.76 52.1401C912.52 52.5201 907.3 53.2101 902.06 53.4601C892.81 53.9001 883.55 54.1101 874.29 54.4401C873.74 54.4601 873.2 54.7101 872.65 54.8601C877.37 57.2301 882.26 57.5501 887.21 57.2701C893.87 56.8901 900.51 56.3601 907.17 55.9101C915.76 55.3401 924.35 54.8001 932.94 54.2201C940.36 53.7201 947.78 52.8601 955.21 52.7201C973.59 52.3701 992.01 53.3201 1010.35 51.2401C1014.93 50.7201 1019.51 50.2201 1024.09 49.7001C1029.05 49.1301 1034.03 48.6101 1038.98 47.9501C1041.51 47.6001 1044 47.0101 1046.5 46.5301ZM1378.71 221.64C1378.76 221.41 1378.82 221.18 1378.87 220.95C1378.47 220.7 1378.09 220.31 1377.66 220.22C1369.62 218.62 1361.58 216.97 1353.51 215.5C1345.82 214.1 1338.11 212.83 1330.39 211.61C1326.34 210.97 1322.27 210.31 1318.19 210.14C1311.24 209.85 1304.27 209.84 1297.3 209.91C1276.06 210.11 1254.82 210.43 1233.63 208.49C1226.86 207.87 1220.08 207.38 1213.29 207.08C1203.14 206.64 1192.97 206.33 1182.81 206.15C1174.69 206 1166.56 206.07 1158.43 206.15C1156 206.17 1153.57 206.65 1151.14 206.7C1146.89 206.79 1142.62 206.94 1138.39 206.63C1132.26 206.18 1126.16 205.4 1120.06 204.65C1114.47 203.96 1108.91 202.83 1103.31 202.43C1095.11 201.85 1086.87 201.71 1078.65 201.45C1075.56 201.35 1072.46 201.36 1069.36 201.45C1062.16 201.64 1054.96 201.92 1047.75 202.14C1046.72 202.17 1045.69 202.08 1044.67 202C1042.62 201.83 1040.57 201.67 1038.54 201.43C1032.82 200.76 1027.04 200.37 1021.4 199.28C1007.31 196.57 993.54 192.13 978.97 192C971.28 191.93 963.6 190.95 955.91 190.73C947.69 190.5 939.46 190.68 931.23 190.68C932.41 191.66 933.7 192.07 935.01 192.15C937.19 192.29 939.4 192.12 941.58 192.26C947.98 192.66 954.36 193.24 960.76 193.59C968.2 193.99 975.68 193.97 983.1 194.6C989.09 195.11 995.05 196.14 1000.97 197.24C1009.41 198.8 1017.81 200.65 1026.23 202.34C1028.74 202.84 1031.26 203.54 1033.8 203.62C1041.14 203.84 1048.5 203.8 1055.85 203.83C1072.18 203.9 1088.55 202.71 1104.82 205.3C1110.26 206.17 1115.73 206.88 1121.2 207.52C1126.42 208.13 1131.65 208.96 1136.88 209.01C1156.22 209.19 1175.57 209.07 1194.91 209.09C1198.91 209.09 1202.92 209.04 1206.9 209.34C1214.31 209.9 1221.68 210.98 1229.1 211.35C1240.15 211.9 1251.23 212.24 1262.29 212.28C1273.1 212.31 1283.91 211.71 1294.72 211.67C1302.17 211.64 1309.64 211.92 1317.08 212.4C1323.34 212.8 1329.59 213.57 1335.81 214.41C1341.02 215.11 1346.18 216.12 1351.36 217.02C1359.18 218.39 1367 219.8 1374.83 221.17C1376.09 221.36 1377.41 221.48 1378.71 221.64ZM1115.04 153.89C1115.03 153.61 1115.02 153.34 1115 153.06C1114.28 152.95 1113.56 152.72 1112.85 152.77C1110.04 152.95 1107.23 153.16 1104.42 153.46C1100.09 153.92 1095.77 154.48 1091.44 154.95C1086.47 155.5 1081.51 156.1 1076.53 156.49C1071.02 156.93 1065.5 157.12 1059.99 157.51C1054.49 157.89 1049.01 158.49 1043.51 158.8C1037.25 159.16 1030.98 159.29 1024.71 159.57C1013.41 160.07 1002.11 160.52 990.83 161.18C984.08 161.57 977.35 162.3 970.61 162.93C963.08 163.64 955.57 164.46 948.04 165.12C943.82 165.49 939.48 165.15 935.39 166.02C929.52 167.27 923.84 165.96 918.11 165.67C909.93 165.24 901.78 163.86 893.6 163.61C885.13 163.36 876.64 164.09 868.15 164.17C862.6 164.23 857.14 164.85 851.7 165.85C849.46 166.26 847.21 166.69 844.97 167.11C845.01 167.4 845.05 167.69 845.09 167.99C847.63 167.99 850.18 168.13 852.71 167.96C858.08 167.61 863.43 166.91 868.8 166.69C875.24 166.42 881.69 166.45 888.14 166.46C892.65 166.46 897.18 166.43 901.67 166.78C908.56 167.33 915.42 168.52 922.31 168.85C929.25 169.18 936.24 169.05 943.18 168.65C950.98 168.19 958.75 167.23 966.52 166.43C969.58 166.12 972.61 165.61 975.67 165.27C981.02 164.68 986.36 163.94 991.72 163.65C1000.71 163.16 1009.71 162.98 1018.71 162.67C1018.97 162.66 1019.23 162.66 1019.48 162.64C1025.87 162.18 1032.26 161.64 1038.65 161.27C1045.84 160.86 1053.04 160.72 1060.22 160.28C1066.62 159.89 1073 159.24 1079.39 158.7C1079.78 158.67 1080.16 158.66 1080.55 158.61C1087.78 157.63 1095.02 156.65 1102.25 155.66C1106.52 155.07 1110.78 154.48 1115.04 153.89ZM1242.23 103.72C1242.13 103.33 1242.02 102.94 1241.92 102.54C1240.96 102.54 1239.97 102.38 1239.04 102.57C1235.27 103.35 1231.5 104.12 1227.78 105.1C1218.66 107.5 1209.32 108.21 1199.97 108.42C1192.78 108.58 1185.58 107.99 1178.39 107.81C1175.04 107.72 1171.69 107.72 1168.35 107.83C1166.31 107.9 1164.29 108.24 1162.25 108.46C1159.83 108.72 1157.42 109.07 1155 109.2C1151.92 109.37 1148.8 109.17 1145.74 109.48C1142.38 109.82 1138.96 110.15 1135.91 112.2C1137.09 112.74 1138.27 113.03 1139.44 113.02C1147.91 112.91 1156.35 113.62 1164.86 112.49C1172.21 111.51 1179.74 111.8 1187.19 111.67C1193.37 111.56 1199.56 111.78 1205.74 111.59C1209.83 111.46 1213.98 111.23 1217.97 110.4C1225.13 108.92 1232.19 107 1239.27 105.18C1240.32 104.9 1241.25 104.21 1242.23 103.72ZM753.82 200.84C753.81 201.11 753.8 201.39 753.79 201.66C757.43 202.09 761.05 202.71 764.7 202.9C772.79 203.31 780.9 203.72 788.99 203.71C797.47 203.7 805.96 203.28 814.44 202.87C821.37 202.54 828.28 201.84 835.21 201.57C838.27 201.45 841.36 202.04 844.43 202.21C853.14 202.71 861.86 203.4 870.58 203.59C881.54 203.83 892.5 203.66 903.46 203.62C904.06 203.62 904.65 203.18 905.25 202.95C904.14 202.32 903.14 202.17 902.14 202.18C890.95 202.28 879.8 201.84 868.63 200.85C859.42 200.04 850.13 199.88 840.87 199.88C828.77 199.89 816.68 199.55 804.57 200.57C797.19 201.19 789.68 200.16 782.22 200.06C773.97 199.94 765.72 199.99 757.47 200.06C756.25 200.07 755.04 200.57 753.82 200.84ZM1281.82 133.6C1280.96 137.28 1278.42 138.44 1275.74 139.43C1269.83 141.61 1263.82 143.28 1257.62 144.56C1248.03 146.53 1238.26 146.62 1228.63 148.01C1223.05 148.81 1217.43 149.25 1211.83 149.92C1207.13 150.49 1202.47 151.51 1197.76 151.74C1186.97 152.26 1176.16 152.29 1165.37 152.77C1159.88 153.02 1154.36 153.55 1148.95 154.48C1145.53 155.07 1142.2 156.45 1139.26 158.63C1141.45 158.53 1143.51 157.99 1145.6 157.58C1150.36 156.66 1155.11 155.41 1159.92 155.04C1167.6 154.45 1175.33 154.51 1183.03 154.23C1189.32 154 1195.61 153.72 1201.89 153.37C1205.22 153.19 1208.54 152.88 1211.85 152.49C1221.89 151.31 1231.9 149.67 1241.97 148.95C1252.83 148.18 1263.33 146.05 1273.54 142.47C1276.53 141.42 1279.33 139.7 1282.01 137.96C1283.87 136.78 1283.74 135.89 1281.82 133.6ZM1163.35 67.2401C1161.2 68.1701 1159.36 69.3801 1157.36 69.7401C1153.21 70.4901 1148.98 70.8201 1144.78 71.2501C1136.74 72.0601 1128.71 72.9201 1120.66 73.5401C1118 73.7501 1115.28 73.4101 1112.61 73.0901C1106.53 72.3601 1100.5 71.2801 1094.31 72.3401C1088.88 73.2701 1083.39 73.7901 1077.93 74.5301C1073.48 75.1301 1069.04 75.7701 1064.61 76.4501C1063.94 76.5501 1063.32 76.9601 1062.67 77.2201C1067.27 78.4001 1071.88 78.4201 1076.4 78.0001C1084.05 77.2801 1091.65 76.0401 1099.29 75.1801C1101.44 74.9401 1103.65 75.3301 1105.84 75.3601C1113.43 75.4901 1121.06 76.1601 1128.58 75.5401C1136.86 74.8501 1145.03 73.0201 1153.4 72.7001C1156.43 72.5801 1159.57 72.1601 1162.22 70.3201C1163.42 69.4901 1164.49 68.5701 1163.35 67.2401ZM895.45 114.65C895.4 115.05 895.34 115.45 895.29 115.85C898.09 116.47 900.87 117.22 903.7 117.68C906.09 118.07 908.56 118.46 910.94 118.26C916.28 117.81 921.58 116.87 926.92 116.34C935.71 115.46 944.53 114.9 953.31 113.92C961.33 113.03 969.3 111.78 977.29 110.61C977.9 110.52 978.42 109.75 978.98 109.3C977.65 108.6 976.63 108.49 975.65 108.62C967.27 109.68 958.91 110.86 950.53 111.83C943.68 112.63 936.8 113.24 929.92 113.86C923.8 114.41 917.67 114.9 911.54 115.34C910.14 115.44 908.73 115.24 907.32 115.18C903.35 115.01 899.4 114.83 895.45 114.65ZM1406.43 211.22C1406.4 211.56 1406.37 211.9 1406.34 212.25C1407.89 213.82 1409.94 213.83 1411.97 213.94C1416.21 214.18 1420.45 214.36 1424.67 214.71C1432.97 215.4 1441.27 216.21 1449.57 216.92C1451.49 217.08 1453.44 216.92 1455.36 217.12C1461.6 217.76 1467.83 218.52 1474.06 219.17C1474.67 219.23 1475.32 218.92 1476.17 218.74C1474.74 216.45 1472.56 216.51 1470.82 216.31C1462.68 215.34 1454.51 214.58 1446.34 213.88C1438.67 213.23 1430.98 212.76 1423.31 212.21C1423.18 212.2 1423.05 212.18 1422.93 212.17C1417.43 211.84 1411.93 211.53 1406.43 211.22ZM950.4 15.9101C950.36 16.2601 950.31 16.6201 950.27 16.9701C955.81 18.6201 961.58 17.5401 967.23 17.7901C973.14 18.0501 979.08 17.9501 985 17.6901C990.75 17.4401 996.51 17.0201 1002.21 16.2601C1007.95 15.5001 1013.88 15.5501 1019.53 13.2601C1018.47 10.3601 1016.54 10.9301 1014.69 11.5101C1010.62 12.8001 1006.46 13.4601 1002.18 13.4101C1001.29 13.4001 1000.4 13.6201 999.51 13.7101C993.92 14.3201 988.34 15.2601 982.73 15.4501C973.08 15.7901 963.42 15.6501 953.76 15.7301C952.64 15.7601 951.52 15.8501 950.4 15.9101ZM1266.11 174.74C1266.12 175.02 1266.14 175.3 1266.15 175.59C1267.13 175.67 1268.12 175.8 1269.1 175.81C1277.94 175.83 1286.75 175.78 1295.56 174.53C1301.5 173.69 1307.57 173.79 1313.58 173.5C1315.17 173.42 1316.85 173.67 1318.21 171.53C1316.68 171.41 1315.6 171.2 1314.52 171.25C1309.53 171.48 1304.55 171.8 1299.56 172.03C1296.99 172.15 1294.41 171.99 1291.85 172.19C1283.83 172.84 1275.82 173.59 1267.8 174.32C1267.23 174.37 1266.67 174.6 1266.11 174.74ZM796.9 123.61C796.96 123.96 797.02 124.32 797.08 124.67C800.39 124.67 803.71 124.85 807 124.63C812.49 124.26 818 123.85 823.45 123.07C828.89 122.29 834.28 121.11 839.66 119.96C840.91 119.69 842.38 119.24 842.84 117.14C841.46 117.44 840.38 117.72 839.3 117.89C832.86 118.9 826.43 120.09 819.95 120.83C814.6 121.44 809.18 121.37 803.81 121.88C801.47 122.1 799.2 123.01 796.9 123.61ZM794.77 158.48C794.61 158.21 794.44 157.94 794.28 157.67C792.66 157.77 791.01 158.06 789.41 157.93C785.2 157.59 781.01 157.09 776.81 156.6C773.5 156.22 770.21 155.73 766.9 155.35C763.14 154.92 759.42 153.64 755.55 154.67C756.62 155.17 757.7 155.56 758.81 155.7C761.74 156.08 764.69 156.26 767.6 156.68C774.19 157.62 780.75 158.71 787.34 159.62C788.99 159.85 790.7 159.79 792.36 159.61C793.19 159.51 793.97 158.87 794.77 158.48Z" fill="#357BBF"/>
<path d="M1046.5 46.5301C1044 47.0001 1041.51 47.5901 1038.99 47.9301C1034.04 48.5901 1029.07 49.1101 1024.1 49.6801C1019.52 50.2001 1014.94 50.7001 1010.36 51.2201C992.02 53.3101 973.61 52.3601 955.22 52.7001C947.79 52.8401 940.38 53.7001 932.95 54.2001C924.36 54.7801 915.77 55.3101 907.18 55.8901C900.53 56.3301 893.88 56.8701 887.22 57.2501C882.27 57.5301 877.37 57.2101 872.66 54.8401C873.21 54.7001 873.75 54.4401 874.3 54.4201C883.56 54.0901 892.82 53.8901 902.07 53.4401C907.31 53.1901 912.53 52.5001 917.77 52.1201C923.28 51.7201 928.8 51.5001 934.31 51.1301C940.71 50.7101 947.1 50.2001 953.49 49.7501C954.52 49.6801 955.55 49.7101 956.58 49.7101C967.54 49.7101 978.5 49.8301 989.45 49.6701C998.06 49.5501 1006.68 49.3101 1015.27 48.7101C1021 48.3101 1026.67 47.1001 1032.38 46.4001C1036.82 45.8601 1041.3 45.5401 1045.75 45.1201C1046.01 45.5901 1046.26 46.0601 1046.5 46.5301Z" fill="#5BBDD6"/>
<path d="M950.4 15.9099C951.52 15.8499 952.64 15.7599 953.76 15.7499C963.42 15.6699 973.08 15.7999 982.73 15.4699C988.34 15.2699 993.92 14.3399 999.51 13.7299C1000.4 13.6299 1001.29 13.4099 1002.18 13.4299C1006.46 13.4899 1010.61 12.8299 1014.69 11.5299C1016.54 10.9399 1018.47 10.3799 1019.53 13.2799C1013.88 15.5699 1007.96 15.5199 1002.21 16.2799C996.51 17.0299 990.75 17.4599 985 17.7099C979.08 17.9699 973.14 18.0699 967.23 17.8099C961.59 17.5599 955.82 18.6299 950.27 16.9899C950.31 16.6199 950.35 16.2599 950.4 15.9099Z" fill="#5ABDD7"/>
<path d="M1046.5 46.5303C1046.25 46.0603 1046 45.5903 1045.75 45.1303C1050.7 44.6003 1055.63 43.8003 1060.6 43.5803C1071.37 43.1203 1082.15 42.9403 1092.93 42.6803C1094.1 42.6503 1095.28 42.8503 1096.45 42.9403C1096.45 43.2303 1096.45 43.5103 1096.46 43.8003C1095.68 43.9403 1094.89 44.1903 1094.11 44.2003C1090.38 44.2403 1086.65 44.1203 1082.92 44.2403C1077.03 44.4403 1071.14 44.7303 1065.26 45.1003C1059 45.5103 1052.75 46.0503 1046.5 46.5303Z" fill="#55B6D5"/>
</g>
<rect width="1315" height="54" fill="#3BCEFA" fill-opacity="0.58"/>
</g>
<defs>
<clipPath id="clip0_710_7443">
<rect width="1315" height="54" fill="white"/>
</clipPath>
<clipPath id="clip1_710_7443">
<rect width="1000" height="1000" fill="white"/>
</clipPath>
<clipPath id="clip2_710_7443">
<rect width="1000" height="1000" fill="white" transform="translate(1000)"/>
</clipPath>
</defs>
</svg>
