<svg width="15" height="12" viewBox="0 0 15 12" fill="none" xmlns="http://www.w3.org/2000/svg">
<path d="M10.2439 11.3991V10.2436C10.2439 9.63068 10.0004 9.04288 9.56704 8.60949C9.13365 8.17609 8.54584 7.93262 7.93293 7.93262H3.31098C2.69807 7.93262 2.11026 8.17609 1.67687 8.60949C1.24348 9.04288 1 9.63068 1 10.2436V11.3991" stroke="#520096" stroke-linecap="round" stroke-linejoin="round"/>
<path d="M5.62241 5.62195C6.89873 5.62195 7.93339 4.58729 7.93339 3.31098C7.93339 2.03466 6.89873 1 5.62241 1C4.34609 1 3.31143 2.03466 3.31143 3.31098C3.31143 4.58729 4.34609 5.62195 5.62241 5.62195Z" stroke="#520096" stroke-linecap="round" stroke-linejoin="round"/>
<path d="M13.7107 11.3992V10.2437C13.7103 9.73164 13.5399 9.23423 13.2262 8.82955C12.9125 8.42486 12.4733 8.13582 11.9775 8.00781" stroke="#520096" stroke-linecap="round" stroke-linejoin="round"/>
<path d="M9.66605 1.0752C10.1631 1.20247 10.6037 1.49158 10.9184 1.89693C11.233 2.30228 11.4038 2.80082 11.4038 3.31395C11.4038 3.82709 11.233 4.32563 10.9184 4.73098C10.6037 5.13633 10.1631 5.42544 9.66605 5.55271" stroke="#520096" stroke-linecap="round" stroke-linejoin="round"/>
</svg>
