<svg width="88" height="28" viewBox="0 0 88 28" fill="none" xmlns="http://www.w3.org/2000/svg">
<path d="M19.7781 20.5555C19.5581 20.7459 19.2501 20.9362 18.8541 21.1265C18.4581 21.3169 18.0108 21.4925 17.5121 21.6536C17.0281 21.8 16.5294 21.9171 16.0161 22.0049C15.5028 22.0928 15.0188 22.1367 14.5641 22.1367C12.8628 22.1367 11.3888 21.8 10.1421 21.1265C8.89539 20.4384 7.92739 19.5087 7.23807 18.3375C6.56339 17.1663 6.22607 15.834 6.22607 14.3406C6.22607 12.9791 6.43876 11.7712 6.86407 10.7171C7.30407 9.66299 7.90539 8.77725 8.66807 8.05985C9.43076 7.34244 10.2961 6.80078 11.2641 6.43475C12.2468 6.05411 13.2881 5.86377 14.3881 5.86377C15.3414 5.86377 16.2214 5.97357 17.0281 6.19318C17.8348 6.41279 18.5388 6.69098 19.1401 7.02769L18.3701 9.15789C18.0768 8.9822 17.7101 8.82117 17.2701 8.67475C16.8448 8.51372 16.3974 8.38926 15.9281 8.30142C15.4734 8.21357 15.0554 8.16965 14.6741 8.16965C13.4421 8.16965 12.3714 8.41122 11.4621 8.89436C10.5528 9.3775 9.84876 10.0656 9.35007 10.9587C8.85139 11.8518 8.60207 12.9132 8.60207 14.143C8.60207 15.2703 8.85139 16.2659 9.35007 17.1297C9.86339 17.9788 10.5674 18.6449 11.4621 19.1281C12.3714 19.6112 13.4201 19.8528 14.6081 19.8528C15.1361 19.8528 15.6494 19.8016 16.1481 19.6991C16.6614 19.5966 17.0941 19.4428 17.4461 19.2379V16.2951H14.3441V14.0771H19.7781V20.5555Z" fill="#520096"/>
<path d="M45.9911 20.6761V22.5097H34.4742V20.9053L40.2387 14.4996C40.9477 13.7114 41.4955 13.044 41.8822 12.4971C42.277 11.9422 42.5509 11.4476 42.704 11.0133C42.8651 10.5709 42.9457 10.1206 42.9457 9.66216C42.9457 9.0831 42.8249 8.56038 42.5831 8.09394C42.3495 7.61942 42.0031 7.24142 41.5439 6.95994C41.0846 6.67851 40.5287 6.53774 39.8761 6.53774C39.0946 6.53774 38.442 6.69053 37.9184 6.99617C37.4027 7.29374 37.016 7.71193 36.7582 8.25074C36.5004 8.7896 36.3715 9.40884 36.3715 10.1085H34.1357C34.1357 9.11934 34.3533 8.21455 34.7884 7.39426C35.2234 6.57392 35.8679 5.92251 36.722 5.43997C37.5759 4.94939 38.6273 4.7041 39.8761 4.7041C40.9879 4.7041 41.9386 4.90114 42.7282 5.29521C43.5177 5.68121 44.122 6.22809 44.5409 6.93583C44.9679 7.6355 45.1814 8.45585 45.1814 9.39676C45.1814 9.91146 45.0928 10.4342 44.9155 10.965C44.7463 11.4878 44.5087 12.0105 44.2026 12.5333C43.9045 13.056 43.554 13.5707 43.1511 14.0774C42.7564 14.5841 42.3334 15.0827 41.8822 15.5732L37.1691 20.6761H45.9911Z" fill="#520096"/>
<path d="M59.4296 12.3282V15.0063C59.4296 16.4458 59.3009 17.6602 59.0429 18.6494C58.785 19.6386 58.4143 20.4348 57.9314 21.038C57.4479 21.6412 56.8638 22.0794 56.1791 22.3529C55.502 22.6183 54.7367 22.751 53.8827 22.751C53.2059 22.751 52.5815 22.6665 52.0095 22.4976C51.4374 22.3288 50.9218 22.0593 50.4626 21.6894C50.0115 21.3114 49.6248 20.8208 49.3025 20.2177C48.9802 19.6145 48.7345 18.8827 48.5653 18.0221C48.3961 17.1616 48.3115 16.1563 48.3115 15.0063V12.3282C48.3115 10.8886 48.4404 9.68225 48.6982 8.70917C48.9641 7.73603 49.3387 6.95593 49.8221 6.36886C50.3055 5.77372 50.8856 5.34748 51.5624 5.09013C52.2472 4.83277 53.0125 4.7041 53.8585 4.7041C54.5433 4.7041 55.1715 4.78855 55.744 4.95744C56.3237 5.11828 56.8396 5.37965 57.2906 5.74155C57.7416 6.09539 58.1244 6.56991 58.4385 7.16505C58.7608 7.75212 59.0066 8.47194 59.176 9.3244C59.3449 10.1769 59.4296 11.1782 59.4296 12.3282ZM57.1817 15.3682V11.9542C57.1817 11.1661 57.1333 10.4744 57.0371 9.87929C56.948 9.27614 56.8154 8.76143 56.6383 8.33517C56.4607 7.90897 56.2352 7.56314 55.9613 7.29775C55.6956 7.03235 55.3854 6.83932 55.0307 6.7187C54.6843 6.59001 54.2935 6.52566 53.8585 6.52566C53.3268 6.52566 52.8555 6.62619 52.4446 6.82724C52.0336 7.02027 51.6873 7.32992 51.4053 7.75612C51.1313 8.18238 50.9218 8.74134 50.7768 9.43294C50.6318 10.1246 50.5593 10.965 50.5593 11.9542V15.3682C50.5593 16.1563 50.6036 16.852 50.6923 17.4552C50.7889 18.0583 50.9299 18.581 51.1152 19.0234C51.3005 19.4577 51.5261 19.8156 51.792 20.097C52.0578 20.3785 52.364 20.5876 52.7104 20.7243C53.0649 20.853 53.4557 20.9173 53.8827 20.9173C54.4305 20.9173 54.9099 20.8128 55.3205 20.6037C55.7319 20.3946 56.074 20.0689 56.3479 19.6265C56.6301 19.1762 56.8396 18.6012 56.9766 17.9015C57.1135 17.1938 57.1817 16.3493 57.1817 15.3682Z" fill="#520096"/>
<path d="M74.1976 16.5986V18.4322H61.4844V17.1173L69.3637 4.94531H71.1886L69.2306 8.46782L64.0221 16.5986H74.1976ZM71.7441 4.94531V22.5097H69.5083V4.94531H71.7441Z" fill="#520096"/>
<path d="M84.8084 4.92139H85.0014V6.81536H84.8084C83.6237 6.81536 82.6332 7.00834 81.8357 7.39441C81.0376 7.77235 80.4051 8.28305 79.9381 8.92645C79.4706 9.56177 79.1324 10.2775 78.9228 11.0737C78.7215 11.8699 78.6209 12.6782 78.6209 13.4985V16.0801C78.6209 16.8602 78.7133 17.5518 78.8986 18.155C79.084 18.7501 79.3375 19.2527 79.6598 19.6629C79.9821 20.073 80.3451 20.3827 80.7477 20.5917C81.1586 20.8009 81.5854 20.9054 82.0287 20.9054C82.5446 20.9054 83.0038 20.8089 83.4064 20.6159C83.809 20.4148 84.1478 20.1374 84.4217 19.7835C84.7033 19.4216 84.9173 18.9954 85.0619 18.5048C85.2071 18.0142 85.2797 17.4754 85.2797 16.8883C85.2797 16.3656 85.2154 15.8629 85.0861 15.3804C84.9574 14.8898 84.76 14.4555 84.4938 14.0775C84.2281 13.6915 83.8937 13.3899 83.4911 13.1728C83.0962 12.9476 82.6249 12.835 82.0771 12.835C81.4567 12.835 80.8764 12.9878 80.3369 13.2934C79.805 13.591 79.3661 13.9851 79.0196 14.4756C78.6814 14.9581 78.4878 15.4849 78.4394 16.0559L77.2552 16.0439C77.368 15.1431 77.5775 14.3751 77.8833 13.7398C78.1979 13.0964 78.5846 12.5736 79.0438 12.1715C79.5108 11.7614 80.0305 11.4638 80.6025 11.2788C81.1828 11.0858 81.7949 10.9893 82.4395 10.9893C83.3179 10.9893 84.0752 11.1541 84.7116 11.4839C85.3479 11.8136 85.8715 12.2559 86.2824 12.8109C86.6938 13.3577 86.9957 13.977 87.1888 14.6686C87.3906 15.3522 87.4913 16.0559 87.4913 16.7797C87.4913 17.6081 87.3741 18.3842 87.1409 19.108C86.9072 19.8318 86.5563 20.4671 86.0893 21.014C85.6301 21.5609 85.0619 21.9871 84.3854 22.2927C83.7084 22.5983 82.923 22.7511 82.0287 22.7511C81.0783 22.7511 80.2483 22.5581 79.5394 22.1721C78.8304 21.778 78.2419 21.2552 77.775 20.6038C77.3075 19.9524 76.9571 19.2286 76.7234 18.4324C76.4896 17.6362 76.373 16.828 76.373 16.0076V14.9581C76.373 13.7197 76.4979 12.5052 76.7476 11.315C76.9973 10.1247 77.4285 9.04707 78.0406 8.082C78.661 7.11693 79.5191 6.34891 80.6147 5.77787C81.7102 5.20689 83.1084 4.92139 84.8084 4.92139Z" fill="#520096"/>
<path fill-rule="evenodd" clip-rule="evenodd" d="M14.025 25.8039C20.5558 25.8039 25.85 20.5191 25.85 14C25.85 7.48089 20.5558 2.19608 14.025 2.19608C7.49425 2.19608 2.2 7.48089 2.2 14C2.2 20.5191 7.49425 25.8039 14.025 25.8039ZM14.025 28C21.7708 28 28.05 21.732 28.05 14C28.05 6.26799 21.7708 0 14.025 0C6.27919 0 0 6.26799 0 14C0 21.732 6.27919 28 14.025 28Z" fill="#520096"/>
</svg>
