<svg width="21" height="21" viewBox="0 0 21 21" fill="none" xmlns="http://www.w3.org/2000/svg">
<path d="M16.4803 5.5173C16.9527 5.5173 17.3357 5.15451 17.3357 4.70698C17.3357 4.25946 16.9527 3.89667 16.4803 3.89667C16.0079 3.89667 15.625 4.25946 15.625 4.70698C15.625 5.15451 16.0079 5.5173 16.4803 5.5173Z" fill="#9747FF"/>
<path d="M14.1734 8.15925C13.9619 8.23682 13.7915 8.3908 13.6998 8.58735C13.6081 8.7839 13.6026 9.0069 13.6844 9.20732C13.9678 9.89987 13.9916 10.6636 13.7517 11.3708C13.5119 12.0779 13.0229 12.6856 12.3668 13.0921C11.7106 13.4987 10.9269 13.6794 10.1469 13.6041C9.36694 13.5287 8.63791 13.202 8.0818 12.6784C7.5257 12.1548 7.17625 11.4661 7.09193 10.7277C7.00761 9.9892 7.19353 9.2457 7.61859 8.62156C8.04364 7.99741 8.68205 7.53048 9.427 7.29889C10.1719 7.06729 10.9783 7.08507 11.711 7.34926C11.8164 7.38901 11.9291 7.4085 12.0425 7.4066C12.1559 7.4047 12.2678 7.38144 12.3716 7.33819C12.4755 7.29494 12.5692 7.23256 12.6473 7.15467C12.7255 7.07678 12.7865 6.98495 12.8268 6.88451C12.8672 6.78407 12.886 6.67703 12.8822 6.56963C12.8785 6.46223 12.8522 6.35661 12.805 6.25891C12.7577 6.16122 12.6905 6.0734 12.6071 6.00057C12.5237 5.92774 12.4258 5.87136 12.3192 5.8347C11.2203 5.43873 10.0112 5.41225 8.89412 5.7597C7.77709 6.10715 6.81986 6.80744 6.18257 7.74344C5.54528 8.67944 5.26657 9.79437 5.39308 10.9017C5.51959 12.0091 6.04364 13.0417 6.87756 13.8269C7.71148 14.612 8.8047 15.1021 9.97434 15.215C11.144 15.328 12.3191 15.0571 13.3031 14.4475C14.2872 13.838 15.0204 12.9268 15.3802 11.8664C15.74 10.8061 15.7046 9.66078 15.2798 8.62219C15.1979 8.42182 15.0353 8.26049 14.8278 8.17368C14.6203 8.08687 14.385 8.08168 14.1734 8.15925Z" fill="#9747FF"/>
<path d="M20.7563 4.70711C20.7598 3.64575 20.3218 2.62581 19.5372 1.86816C18.7526 1.11051 17.6846 0.676137 16.5644 0.659095H16.5578C12.5202 0.483661 8.46408 0.481636 4.50499 0.65553C3.38726 0.670999 2.31894 1.09451 1.52268 1.83779C0.726418 2.58108 0.263645 3.5868 0.230802 4.64537C-0.0761036 8.44184 -0.0769329 12.255 0.228321 16.0515C0.224521 17.1122 0.661778 18.1316 1.44545 18.8892C2.22912 19.6467 3.29616 20.0814 4.41561 20.0992H4.42228C6.45242 20.2401 14.5067 20.2523 16.5231 20.1027C17.6295 20.0685 18.6811 19.6383 19.4661 18.8988C20.251 18.1594 20.7111 17.1655 20.7534 16.1176C21.0812 12.3205 21.0822 8.50438 20.7563 4.70711ZM19.0457 16.0515C18.8653 17.3237 18.4911 18.2665 16.397 18.4865C12.439 18.7815 8.4627 18.7801 4.50499 18.4825C3.81813 18.4668 3.16497 18.1973 2.68504 17.7316C2.20511 17.2658 1.93647 16.6407 1.93651 15.9898C1.63536 12.2343 1.63619 8.46251 1.93899 4.70711C1.97132 4.0592 2.2625 3.44718 2.75348 2.99511C3.24447 2.54304 3.89853 2.28475 4.58308 2.2726C8.54603 2.07988 12.5168 2.08107 16.4797 2.27616C17.1628 2.30457 17.8089 2.57867 18.2862 3.0426C18.7635 3.50654 19.0361 4.12542 19.0486 4.77315C19.3694 8.52651 19.3684 12.2983 19.0457 16.0515Z" fill="#9747FF"/>
</svg>
