<svg width="130" height="26" viewBox="0 0 130 26" fill="none" xmlns="http://www.w3.org/2000/svg">
<g clip-path="url(#clip0_783_4003)">
<path d="M40.8445 20.5848C42.1817 21.3241 43.6688 22.1959 45.2048 22.9793C46.2451 23.509 46.6832 24.3807 46.2883 25.4593C46.0319 26.1572 45.467 26.0717 44.9973 25.8179C43.0203 24.7448 41.0463 23.6579 39.127 22.491C38.5621 22.149 38.2365 21.9228 37.4958 22.229C34.5131 23.4621 31.4497 23.4014 28.444 22.2759C26.2134 21.4428 24.7408 19.8179 24.0002 17.68C22.7408 14.0386 22.663 10.3421 23.9137 6.68413C25.1529 3.05654 28.2538 0.811025 32.248 0.576543C33.297 0.515853 34.3719 0.504818 35.4094 0.64275C39.6457 1.20551 42.1644 3.60827 43.0953 7.51447C43.8013 10.4717 43.8042 13.4676 42.8618 16.3779C42.4296 17.7324 41.6313 18.9821 40.8445 20.5848ZM40.418 12.1214C40.2509 10.6262 40.1875 9.58344 40.0117 8.55999C39.4238 5.1062 37.2249 3.19447 33.6976 3.0262C30.3229 2.86344 27.784 4.62068 26.8445 7.87034C26.0693 10.5517 26.1126 13.269 26.859 15.9448C27.6803 18.8855 29.6803 20.4 32.6601 20.5076C36.1327 20.6317 38.4958 19.3159 39.5131 16.4165C40.0405 14.9103 40.1846 13.28 40.418 12.1214Z" fill="#5EA500"/>
<path d="M72.2015 0.731087C73.9104 0.739362 73.9969 0.786259 74.5617 2.28695C76.9566 8.62902 79.3485 14.9738 81.7375 21.3187C82.2361 22.6456 82.0833 22.8525 80.6424 22.8718C78.9998 22.8938 78.9277 22.847 78.3831 21.3628C77.9421 20.1601 77.481 18.9628 77.0747 17.749C76.9018 17.2332 76.6626 17.0042 76.0401 17.0125C73.3975 17.0483 70.7548 17.0456 68.1151 17.0152C67.5214 17.0097 67.239 17.178 67.0632 17.7269C66.6078 19.1366 66.092 20.5297 65.5819 21.9228C65.262 22.8001 63.1785 23.3297 62.5473 22.6456C62.3514 22.4332 62.4032 21.8814 62.5272 21.5504C64.0747 17.3766 65.6597 13.2138 67.2303 9.04833C68.0747 6.80833 68.9133 4.56281 69.7606 2.32281C70.3427 0.775224 70.4321 0.722811 72.2015 0.731087ZM72.0142 3.81798C70.6655 7.55591 69.4032 11.0621 68.1208 14.618C70.8125 14.618 73.3312 14.618 75.9623 14.618C74.6597 11.0511 73.3831 7.55867 72.0142 3.81798Z" fill="#5EA500"/>
<path d="M51.7606 14.6095C51.7606 16.9322 51.7606 19.3102 51.7606 21.6908C51.7606 22.7308 51.5647 22.8798 50.2217 22.8743C48.9105 22.8688 48.7145 22.7143 48.7116 21.655C48.7088 15.2357 48.7088 8.81912 48.7116 2.39981C48.7116 1.14463 49.0027 0.863254 50.3341 0.866013C52.3428 0.87153 54.3543 0.81084 56.3543 0.934978C60.1266 1.1667 62.4724 3.32946 62.7722 6.69774C63.092 10.2867 61.0229 13.2964 57.4753 14.0467C55.6799 14.4302 53.7894 14.4246 51.7606 14.6095ZM51.824 12.077C53.3197 11.9998 54.7693 12.0495 56.167 11.8205C58.2102 11.4839 59.4494 9.87567 59.533 7.75705C59.6165 5.63291 58.6771 3.98325 56.8327 3.60532C55.2188 3.27705 53.5272 3.30739 51.8269 3.17498C51.824 6.2536 51.824 9.0867 51.824 12.077Z" fill="#5EA500"/>
<path d="M88.8446 11.2248C90.4267 8.0386 91.9858 4.89102 93.5477 1.74343C93.9973 0.835846 95.8359 0.289639 96.6803 0.896536C96.8791 1.03723 96.8705 1.69102 96.7149 1.99447C95.1644 5.04274 93.6544 8.11585 91.9425 11.0814C90.7322 13.1779 90.078 15.2938 90.3028 17.691C90.4267 19.0234 90.2855 20.3807 90.3402 21.7214C90.3691 22.4386 90.1097 22.7558 89.3662 22.8496C87.6428 23.0676 87.2451 22.7641 87.248 21.1172C87.248 20.5793 87.248 20.0414 87.248 19.5034C87.248 13.9421 87.2278 13.9503 84.5131 9.02895C83.2365 6.71447 82.0492 4.35309 80.8417 2.00274C80.3229 0.993088 80.4843 0.811019 81.6659 0.719984C82.9944 0.617915 83.8647 0.94895 84.4526 2.26205C85.8071 5.2855 87.3604 8.22619 88.8446 11.2248Z" fill="#5EA500"/>
<path d="M105.132 23.0568C104.314 22.2816 103.568 21.5726 102.726 20.7782C106.617 17.705 110.484 14.6513 114.449 11.5202C110.524 8.40022 106.666 5.33263 102.743 2.21539C103.602 1.47057 104.423 0.758842 105.279 0.0195312C109.934 3.73815 114.738 7.57815 119.617 11.4788C114.755 15.3657 109.957 19.2002 105.132 23.0568Z" fill="#5EA500"/>
<path d="M124.83 11.6717C120.893 8.54345 117.038 5.47586 113.092 2.34483C113.882 1.55586 114.623 0.816552 115.441 0C120.282 3.86759 125.081 7.69931 129.997 11.6276C125.141 15.509 120.329 19.36 115.562 23.1697C114.746 22.4138 113.974 21.6965 113.127 20.9131C117.006 17.851 120.873 14.7972 124.83 11.6717Z" fill="#5EA500"/>
<path d="M3.14962 20.1904C5.75769 20.1904 8.18997 20.229 10.6194 20.1738C11.6856 20.149 11.9594 20.6014 11.9421 21.5063C11.9277 22.3614 11.6799 22.7807 10.6568 22.7614C7.66259 22.7035 4.66547 22.7421 1.66836 22.7394C0.293716 22.7366 0.00264966 22.4635 0.00264966 21.1366C-0.00023218 14.7476 -0.00023218 8.35867 0.00264966 1.97247C0.00264966 0.910396 0.256252 0.72281 1.61936 0.733845C2.92772 0.742121 3.14674 0.907638 3.14674 1.96143C3.14962 7.67729 3.14962 13.3904 3.14962 19.1063C3.14962 19.4318 3.14962 19.7601 3.14962 20.1904Z" fill="#5EA601"/>
<path d="M18.3139 11.8123C18.3139 15.1089 18.2735 18.4054 18.3369 21.702C18.36 22.833 17.6655 22.8633 16.8499 22.8744C15.5098 22.8937 15.2418 22.7089 15.239 21.7323C15.2332 15.1061 15.2534 8.47989 15.2188 1.85368C15.213 0.684024 16.0026 0.750231 16.7692 0.747473C17.5271 0.744714 18.3456 0.634369 18.3283 1.82609C18.2822 5.15023 18.3139 8.48265 18.3139 11.8123Z" fill="#5EA500"/>
</g>
<defs>
<clipPath id="clip0_783_4003">
<rect width="130" height="26" fill="white"/>
</clipPath>
</defs>
</svg>
