<svg width="21" height="21" viewBox="0 0 21 21" fill="none" xmlns="http://www.w3.org/2000/svg">
<path d="M10.5 0.526306C4.71006 0.526306 0 4.64513 0 9.70849C0.00350166 11.5342 0.618394 13.3118 1.75617 14.7853C1.81832 14.8668 1.89679 14.9358 1.98711 14.9885C2.07743 15.0413 2.17783 15.0766 2.28257 15.0926C2.3873 15.1085 2.49434 15.1048 2.59755 15.0816C2.70076 15.0583 2.79813 15.0161 2.88411 14.9572C2.97008 14.8983 3.04297 14.824 3.09862 14.7384C3.15426 14.6528 3.19157 14.5577 3.20842 14.4585C3.22526 14.3593 3.22131 14.2579 3.19679 14.1601C3.17227 14.0623 3.12767 13.9701 3.06552 13.8886C2.12715 12.6758 1.61939 11.2122 1.61538 9.70849C1.61538 5.48951 5.60102 2.05667 10.5 2.05667C15.399 2.05667 19.3846 5.48951 19.3846 9.70849C19.3846 13.9275 15.399 17.3603 10.5 17.3603C9.58155 17.3608 8.66773 17.2371 7.78615 16.993C7.66566 16.9599 7.53869 16.9537 7.41523 16.9749C7.29178 16.9962 7.17522 17.0443 7.07474 17.1155L5.65385 18.1255V16.5354C5.65385 16.3324 5.56875 16.1378 5.41728 15.9943C5.26581 15.8508 5.06037 15.7702 4.84615 15.7702C4.63194 15.7702 4.4265 15.8508 4.27503 15.9943C4.12356 16.1378 4.03846 16.3324 4.03846 16.5354V19.6559C4.03913 19.7978 4.08117 19.9369 4.15994 20.0576C4.23871 20.1784 4.35115 20.2762 4.48487 20.3403C4.62097 20.3964 4.76976 20.4192 4.91757 20.4065C5.06538 20.3939 5.20747 20.3463 5.33077 20.268L7.72784 18.565C8.63417 18.7815 9.5653 18.8909 10.5 18.8907C16.2899 18.8907 21 14.7719 21 9.70849C21 4.64513 16.2899 0.526306 10.5 0.526306Z" fill="#9747FF"/>
<path d="M4.39904 13.4536L8.72456 11.4046L10.1648 12.7691C10.4679 13.0558 10.8787 13.2168 11.307 13.2168C11.7353 13.2168 12.146 13.0558 12.4491 12.7691L17.5319 7.95382C17.6675 7.82534 17.7504 7.65535 17.7658 7.47426C17.7812 7.29317 17.728 7.1128 17.6159 6.96542C17.5038 6.81803 17.34 6.71325 17.1537 6.66983C16.9675 6.6264 16.7711 6.64716 16.5996 6.72839L12.274 8.77731L10.8338 7.41284C10.5305 7.12644 10.1198 6.96561 9.69161 6.96561C9.26341 6.96561 8.85269 7.12644 8.54945 7.41284L3.46672 12.2281C3.33012 12.3561 3.24652 12.5263 3.2311 12.7077C3.21569 12.8891 3.26949 13.0697 3.38272 13.2167C3.50213 13.3553 3.66582 13.4533 3.84913 13.496C4.03244 13.5387 4.22543 13.5238 4.39904 13.4536ZM9.69161 8.49489C9.69161 8.49489 11.0471 9.84505 11.5436 10.2494C11.669 10.3541 11.823 10.4232 11.988 10.4485C12.1529 10.4739 12.3221 10.4546 12.476 10.3928C12.5772 10.3516 12.8703 10.2061 12.8703 10.2061L11.307 11.6871C11.307 11.6871 9.92842 10.3611 9.45495 9.93259C9.33583 9.81789 9.18122 9.74214 9.01357 9.71634C8.84592 9.69054 8.67395 9.71603 8.52263 9.78911C8.42216 9.83204 8.12832 9.9759 8.12832 9.9759L9.69161 8.49489Z" fill="#9747FF"/>
</svg>
