<svg width="25" height="25" viewBox="0 0 25 25" fill="none" xmlns="http://www.w3.org/2000/svg">
<path d="M4.40465 19.1406C4.42964 19.2433 4.47496 19.34 4.53793 19.4249C4.6009 19.5098 4.68025 19.5812 4.77129 19.6349C4.86232 19.6886 4.9632 19.7235 5.06796 19.7376C5.17272 19.7517 5.27923 19.7446 5.38121 19.7168C10.0365 18.4278 14.9545 18.4278 19.6097 19.7168C19.7117 19.7446 19.8182 19.7517 19.923 19.7376C20.0277 19.7235 20.1286 19.6886 20.2197 19.6349C20.3107 19.5812 20.39 19.5098 20.453 19.4249C20.516 19.34 20.5613 19.2433 20.5863 19.1406L23.0765 8.56447C23.1107 8.4229 23.1047 8.2746 23.059 8.1363C23.0134 7.998 22.93 7.8752 22.8183 7.78177C22.7066 7.68834 22.571 7.62799 22.4268 7.60754C22.2826 7.58709 22.1356 7.60735 22.0023 7.66603L17.0609 9.86329C16.8819 9.94213 16.68 9.95182 16.4942 9.8905C16.3084 9.82918 16.152 9.70119 16.055 9.53126L13.1839 4.35548C13.1164 4.23337 13.0173 4.13159 12.8971 4.06071C12.7769 3.98983 12.6399 3.95245 12.5004 3.95245C12.3608 3.95245 12.2238 3.98983 12.1036 4.06071C11.9834 4.13159 11.8843 4.23337 11.8168 4.35548L8.94566 9.53126C8.84874 9.70119 8.69228 9.82918 8.50652 9.8905C8.32075 9.95182 8.11885 9.94213 7.93981 9.86329L2.9984 7.66603C2.86511 7.60735 2.71808 7.58709 2.57389 7.60754C2.42969 7.62799 2.29409 7.68834 2.18238 7.78177C2.07067 7.8752 1.98729 7.998 1.94167 8.1363C1.89605 8.2746 1.88999 8.4229 1.92418 8.56447L4.40465 19.1406Z" stroke="white" stroke-width="2" stroke-linecap="round" stroke-linejoin="round"/>
<path d="M9.375 15.791C11.4523 15.5664 13.5477 15.5664 15.625 15.791" stroke="white" stroke-width="2" stroke-linecap="round" stroke-linejoin="round"/>
</svg>
