<svg width="21" height="18" viewBox="0 0 21 18" fill="none" xmlns="http://www.w3.org/2000/svg">
<path d="M20.3867 0.857279C20.1465 0.666081 19.8558 0.540462 19.5459 0.493902C19.236 0.447341 18.9185 0.481595 18.6276 0.592989L0.874117 7.32504C0.615321 7.42689 0.394176 7.59909 0.238602 7.8199C0.083028 8.04072 0 8.30025 0 8.56574C0 8.83123 0.083028 9.09076 0.238602 9.31158C0.394176 9.53239 0.615321 9.70459 0.874117 9.80643L2.02101 10.2543C2.2101 10.33 2.42322 10.3316 2.61355 10.2587C2.80389 10.1857 2.95588 10.0442 3.03616 9.86516C3.07554 9.77601 3.09595 9.68037 3.09622 9.58372C3.0965 9.48707 3.07662 9.39133 3.03774 9.30198C2.99887 9.21262 2.94175 9.13142 2.86966 9.06303C2.79758 8.99464 2.71196 8.94041 2.6177 8.90344L1.76528 8.57308L19.2088 1.96583C19.2356 1.95025 19.2665 1.94201 19.2979 1.94201C19.3294 1.94201 19.3602 1.95025 19.3871 1.96583C19.4124 1.98618 19.4314 2.01256 19.4423 2.04225C19.4532 2.07194 19.4556 2.10386 19.4491 2.13468L16.2641 16.2155C16.2537 16.2656 16.2296 16.3123 16.1943 16.3509C16.1589 16.3896 16.1136 16.4188 16.0626 16.4357C16.0127 16.4545 15.9583 16.4603 15.9052 16.4526C15.8521 16.4448 15.8021 16.4238 15.7604 16.3917L9.56102 11.8106L15.6287 6.00359C15.7583 5.87619 15.835 5.70873 15.8446 5.53202C15.8543 5.35531 15.7962 5.18125 15.6812 5.04186C15.5661 4.90248 15.4018 4.80716 15.2184 4.77344C15.0351 4.73971 14.845 4.76986 14.6833 4.85834L5.78714 9.85048C5.68833 9.89279 5.59999 9.95427 5.52784 10.0309C5.45569 10.1076 5.40132 10.1978 5.36826 10.2956C5.3352 10.3935 5.32417 10.4968 5.3359 10.5989C5.34763 10.701 5.38185 10.7997 5.43635 10.8885C5.49085 10.9773 5.56442 11.0543 5.65229 11.1144C5.74016 11.1746 5.84039 11.2167 5.94649 11.2378C6.05259 11.259 6.1622 11.2589 6.26824 11.2374C6.37427 11.2159 6.47437 11.1736 6.56206 11.1132L10.3049 9.02091L8.48388 10.7755C8.31728 10.9238 8.18737 11.1052 8.10346 11.3066C8.01955 11.508 7.98372 11.7246 7.99853 11.9407C8.01335 12.1568 8.07844 12.3671 8.18914 12.5566C8.29984 12.7461 8.45342 12.91 8.63886 13.0366L14.8383 17.5516C15.1645 17.7902 15.5652 17.9193 15.9774 17.9187C16.1969 17.9172 16.4144 17.8799 16.6206 17.8085C16.9166 17.7079 17.1804 17.5369 17.3866 17.3119C17.5929 17.0869 17.7347 16.8156 17.7985 16.5238L20.9602 2.4577C21.0273 2.16675 21.0093 1.86397 20.9083 1.58197C20.8072 1.29996 20.6269 1.0494 20.3867 0.857279Z" fill="#9747FF"/>
</svg>
