<svg width="16" height="13" viewBox="0 0 16 13" fill="none" xmlns="http://www.w3.org/2000/svg">
<path d="M2.42424 11.6526C2.44147 11.7246 2.47271 11.7924 2.51612 11.852C2.55953 11.9115 2.61423 11.9616 2.67699 11.9993C2.73975 12.0369 2.80929 12.0614 2.88151 12.0713C2.95372 12.0812 3.02715 12.0762 3.09745 12.0567C6.30666 11.1527 9.697 11.1527 12.9062 12.0567C12.9765 12.0762 13.0499 12.0812 13.1222 12.0713C13.1944 12.0614 13.2639 12.0369 13.3267 11.9993C13.3894 11.9616 13.4441 11.9115 13.4875 11.852C13.5309 11.7924 13.5622 11.7246 13.5794 11.6526L15.2961 4.23475C15.3197 4.13546 15.3155 4.03145 15.2841 3.93445C15.2526 3.83744 15.1951 3.75132 15.1181 3.68579C15.0411 3.62025 14.9476 3.57793 14.8482 3.56359C14.7488 3.54924 14.6475 3.56345 14.5556 3.60461L11.1491 5.14572C11.0257 5.20101 10.8865 5.20781 10.7584 5.1648C10.6304 5.12179 10.5225 5.03202 10.4557 4.91284L8.47645 1.28267C8.42987 1.19703 8.3616 1.12564 8.27872 1.07593C8.19585 1.02622 8.1014 1 8.00519 1C7.90899 1 7.81454 1.02622 7.73167 1.07593C7.64879 1.12564 7.58052 1.19703 7.53394 1.28267L5.55469 4.91284C5.48787 5.03202 5.38002 5.12179 5.25195 5.1648C5.12389 5.20781 4.98471 5.20101 4.86128 5.14572L1.45481 3.60461C1.36293 3.56345 1.26156 3.54924 1.16216 3.56359C1.06276 3.57793 0.969279 3.62025 0.892267 3.68579C0.815256 3.75132 0.757781 3.83744 0.726329 3.93445C0.694878 4.03145 0.690702 4.13546 0.714272 4.23475L2.42424 11.6526Z" stroke="#520096" stroke-linecap="round" stroke-linejoin="round"/>
</svg>
