<svg width="119" height="90" viewBox="0 0 119 90" fill="none" xmlns="http://www.w3.org/2000/svg">
<path d="M107.482 47.8152C109.136 48.2875 110.912 48.5134 112.45 49.2874C114.733 50.4403 118.043 51.9581 118.724 53.3665C119.446 54.8746 118.294 57.1418 116.79 57.8731C112.499 59.9269 107.872 61.7108 102.887 62.9577C94.2845 65.1246 88.6308 69.8443 84.1443 75.5044C80.7528 79.7786 78.1833 84.6035 75.247 89.1786C50.9832 86.7078 26.7451 84.2264 2.51626 81.7631C0.0370161 66.8899 -1.59372 52.113 3.43159 39.732C7.83511 28.8706 14.2063 18.993 19.9751 8.83094C21.4663 6.21403 23.9507 4.15784 26.0409 1.8994C28.0026 -0.204698 31.1284 1.05417 34.1597 2.81702C37.0971 4.53832 37.5597 6.29047 36.2578 8.1028C34.6809 10.2894 33.5112 12.7239 32.1646 15.0562C30.0541 18.7118 27.9436 22.3674 25.833 26.023C26.2828 26.3334 26.7325 26.6438 27.197 26.9628C27.8953 26.6044 28.6416 26.2991 29.2865 25.8971C31.5903 24.4602 33.5676 22.6696 36.1925 21.5958C43.5195 18.6418 51.0532 15.9088 58.6719 13.3009C60.196 12.7719 62.4842 13.1664 64.429 13.1342C68.9651 16.172 68.9352 16.7005 66.3818 19.1484C60.3884 24.8651 54.6826 30.7987 48.8496 36.6461C47.2816 38.749 45.7136 40.852 43.9018 43.3092C47.352 41.8614 50.3499 40.584 53.3626 39.3151C67.3982 34.751 81.8363 30.7493 98.1543 29.3814C99.4108 29.2818 100.737 29.1973 102.109 29.4433C107.221 30.3258 109.441 33.0166 107.749 36.1521C101.679 38.6643 95.1467 40.7188 89.6711 43.8024C83.6258 47.1917 78.5655 51.5305 73.0754 55.4562C71.5069 56.6069 69.9531 57.7661 68.3846 58.9167C68.7757 59.2948 69.152 59.6644 69.5375 60.052C71.659 59.2714 73.775 58.5002 75.8964 57.7196C77.6049 57.3478 79.4186 57.1002 81.0126 56.5863C89.8616 53.6859 98.657 50.742 107.482 47.8152Z" fill="#ADD137"/>
</svg>
