<svg width="21" height="15" viewBox="0 0 21 15" fill="none" xmlns="http://www.w3.org/2000/svg">
<path d="M20.7739 4.50255C20.7746 3.49416 20.3716 2.52304 19.646 1.78521C18.9205 1.04737 17.9265 0.597762 16.8647 0.527122C12.6169 0.317889 8.30282 0.317889 4.08445 0.513173C2.0084 0.513173 0.16056 2.41022 0.16056 4.50255C-0.0535199 6.52471 -0.0535199 8.56209 0.16056 10.5843C0.158585 11.5647 0.566314 12.506 1.29466 13.2026C2.023 13.8991 3.01275 14.2943 4.04764 14.3016C6.1826 14.4132 8.32245 14.469 10.4672 14.469C12.612 14.469 14.7396 14.4155 16.85 14.3086C17.8812 14.3069 18.8705 13.9214 19.6045 13.2351C20.3385 12.5489 20.7584 11.6169 20.7739 10.64C21.0754 8.60419 21.0754 6.53841 20.7739 4.50255ZM19.3015 10.5215C19.2979 10.5493 19.2979 10.5774 19.3015 10.6052C19.2996 10.9135 19.2334 11.2185 19.1069 11.5025C18.9803 11.7866 18.7958 12.0442 18.564 12.2606C18.3322 12.477 18.0575 12.648 17.7558 12.7636C17.4541 12.8793 17.1313 12.9374 16.8058 12.9346C12.5682 13.1439 8.32203 13.1439 4.08445 12.9346C3.75646 12.932 3.43231 12.8675 3.13086 12.745C2.82941 12.6225 2.55669 12.4445 2.32855 12.2212C2.10042 11.998 1.92143 11.7339 1.80201 11.4445C1.68259 11.1551 1.62512 10.8461 1.63294 10.5354C1.42282 8.57135 1.42282 6.59217 1.63294 4.62809C1.63625 4.60261 1.63625 4.57685 1.63294 4.55137C1.62723 3.89673 1.87884 3.26349 2.33878 2.7749C2.79872 2.2863 3.4341 1.97731 4.12126 1.90806C6.22677 1.81739 8.34699 1.77555 10.4672 1.77555C12.5875 1.77555 14.7077 1.81739 16.8132 1.90806H16.85C18.1089 1.90806 19.3015 3.19135 19.3015 4.55137C19.2979 4.58616 19.2979 4.6212 19.3015 4.65599C19.5898 6.59694 19.5898 8.56658 19.3015 10.5075V10.5215Z" fill="#9747FF"/>
<path d="M13.9939 6.95051L8.73755 4.38392C8.6515 4.34178 8.55754 4.31612 8.46103 4.30839C8.36452 4.30066 8.26735 4.31102 8.17506 4.33887C8.08277 4.36671 7.99718 4.41151 7.92316 4.4707C7.84915 4.52988 7.78816 4.6023 7.74369 4.68382C7.69922 4.76533 7.67213 4.85435 7.66397 4.94578C7.65581 5.03721 7.66674 5.12927 7.69614 5.2167C7.72553 5.30413 7.77282 5.38522 7.83529 5.45534C7.89777 5.52546 7.97421 5.58323 8.06025 5.62536L12.0578 7.57123L9.11301 9.01494V7.57123C9.11301 7.38626 9.03544 7.20886 8.89738 7.07807C8.75932 6.94727 8.57206 6.87379 8.37682 6.87379C8.18157 6.87379 7.99431 6.94727 7.85625 7.07807C7.71819 7.20886 7.64062 7.38626 7.64062 7.57123V10.1657C7.64062 10.3507 7.71819 10.5281 7.85625 10.6589C7.99431 10.7897 8.18157 10.8632 8.37682 10.8632C8.49455 10.8636 8.61068 10.8373 8.71546 10.7864L13.9719 8.19196C14.0919 8.13305 14.1925 8.04396 14.2626 7.93447C14.3327 7.82497 14.3697 7.6993 14.3694 7.57123C14.3718 7.44529 14.3382 7.32108 14.2721 7.21179C14.206 7.1025 14.1099 7.01221 13.9939 6.95051Z" fill="#9747FF"/>
</svg>
